<?xml version="1.0" encoding="UTF-8"?>
<svg xmlns="http://www.w3.org/2000/svg" xmlns:xlink="http://www.w3.org/1999/xlink" viewBox="0 0 219.9 87.53">
  <defs>
    <style>
      .cls-1 {
        fill: #ce82c8;
      }

      .cls-1, .cls-2, .cls-3, .cls-4, .cls-5, .cls-6, .cls-7, .cls-8, .cls-9, .cls-10, .cls-11, .cls-12, .cls-13, .cls-14, .cls-15, .cls-16, .cls-17, .cls-18, .cls-19, .cls-20, .cls-21, .cls-22, .cls-23, .cls-24 {
        stroke-width: 0px;
      }

      .cls-2 {
        fill: url(#_Безымянный_градиент_570-3);
      }

      .cls-3 {
        fill: url(#_Безымянный_градиент_6-9);
      }

      .cls-4 {
        fill: #b0b3b5;
      }

      .cls-25 {
        isolation: isolate;
      }

      .cls-5 {
        fill: #784fbc;
      }

      .cls-6 {
        fill: url(#_Безымянный_градиент_570);
      }

      .cls-7 {
        fill: none;
      }

      .cls-8 {
        fill: #399bd8;
      }

      .cls-26 {
        opacity: .74;
      }

      .cls-26, .cls-27 {
        mix-blend-mode: multiply;
      }

      .cls-9 {
        fill: url(#_Безымянный_градиент_6-4);
      }

      .cls-10 {
        fill: url(#_Безымянный_градиент_6-2);
      }

      .cls-11 {
        fill: url(#_Безымянный_градиент_6-3);
      }

      .cls-28 {
        opacity: .4;
      }

      .cls-12 {
        fill: #e2b774;
      }

      .cls-13 {
        fill: url(#_Безымянный_градиент_6);
      }

      .cls-27 {
        opacity: .39;
      }

      .cls-14 {
        fill: url(#_Безымянный_градиент_570-2);
      }

      .cls-15 {
        fill: url(#_Безымянный_градиент_6-5);
      }

      .cls-16 {
        fill: url(#_Безымянный_градиент_20);
      }

      .cls-17 {
        fill: url(#_Безымянный_градиент_6-6);
      }

      .cls-18 {
        fill: url(#_Безымянный_градиент_6-8);
      }

      .cls-19 {
        fill: url(#_Безымянный_градиент_570-4);
      }

      .cls-20 {
        fill: url(#_Безымянный_градиент_6-7);
      }

      .cls-21 {
        fill: url(#_Безымянный_градиент_585);
        mix-blend-mode: darken;
        opacity: .3;
      }

      .cls-22 {
        fill: #bea1ff;
      }

      .cls-23 {
        fill: #cc89c9;
      }

      .cls-24 {
        fill: #fcfcfc;
      }
    </style>
    <linearGradient id="_Безымянный_градиент_585" data-name="Безымянный градиент 585" x1="103" y1="88.89" x2="103" y2="79.89" gradientUnits="userSpaceOnUse">
      <stop offset="0" stop-color="#fff"/>
      <stop offset=".18" stop-color="#cbcbcb"/>
      <stop offset=".44" stop-color="#787878"/>
      <stop offset="1" stop-color="#3e3e3e"/>
      <stop offset="1" stop-color="#000"/>
    </linearGradient>
    <linearGradient id="_Безымянный_градиент_20" data-name="Безымянный градиент 20" x1="98.74" y1="20.34" x2="98.59" y2="53.68" gradientUnits="userSpaceOnUse">
      <stop offset="0" stop-color="#fff"/>
      <stop offset=".02" stop-color="#ecf9fd"/>
      <stop offset=".07" stop-color="#bbeaf9"/>
      <stop offset=".12" stop-color="#8eddf5"/>
      <stop offset=".18" stop-color="#68d1f1"/>
      <stop offset=".24" stop-color="#47c7ef"/>
      <stop offset=".3" stop-color="#2dbfec"/>
      <stop offset=".37" stop-color="#19b9eb"/>
      <stop offset=".45" stop-color="#0ab5e9"/>
      <stop offset=".55" stop-color="#02b2e9"/>
      <stop offset=".71" stop-color="#00b2e9"/>
    </linearGradient>
    <linearGradient id="_Безымянный_градиент_6" data-name="Безымянный градиент 6" x1="40.81" y1="18.8" x2="41.35" y2="61.35" gradientUnits="userSpaceOnUse">
      <stop offset="0" stop-color="#fff"/>
      <stop offset=".52" stop-color="#1d1d1b"/>
      <stop offset=".67" stop-color="#1d1d1b"/>
    </linearGradient>
    <linearGradient id="_Безымянный_градиент_6-2" data-name="Безымянный градиент 6" x1="94.16" y1="18.12" x2="94.7" y2="60.66" xlink:href="#_Безымянный_градиент_6"/>
    <linearGradient id="_Безымянный_градиент_6-3" data-name="Безымянный градиент 6" x1="81.46" y1="18.28" x2="82.01" y2="60.82" xlink:href="#_Безымянный_градиент_6"/>
    <linearGradient id="_Безымянный_градиент_6-4" data-name="Безымянный градиент 6" x1="133.07" y1="17.62" x2="133.62" y2="60.16" xlink:href="#_Безымянный_градиент_6"/>
    <linearGradient id="_Безымянный_градиент_6-5" data-name="Безымянный градиент 6" x1="147.83" y1="17.43" x2="148.38" y2="59.97" xlink:href="#_Безымянный_градиент_6"/>
    <linearGradient id="_Безымянный_градиент_6-6" data-name="Безымянный градиент 6" x1="119.82" y1="17.79" x2="120.37" y2="60.33" xlink:href="#_Безымянный_градиент_6"/>
    <linearGradient id="_Безымянный_градиент_6-7" data-name="Безымянный градиент 6" x1="163.35" y1="17.23" x2="163.9" y2="59.77" xlink:href="#_Безымянный_градиент_6"/>
    <linearGradient id="_Безымянный_градиент_6-8" data-name="Безымянный градиент 6" x1="66.41" y1="18.47" x2="66.96" y2="61.02" xlink:href="#_Безымянный_градиент_6"/>
    <linearGradient id="_Безымянный_градиент_6-9" data-name="Безымянный градиент 6" x1="53.62" y1="18.64" x2="54.17" y2="61.18" xlink:href="#_Безымянный_градиент_6"/>
    <linearGradient id="_Безымянный_градиент_570" data-name="Безымянный градиент 570" x1="92.28" y1="56.53" x2="112.03" y2="56.53" gradientUnits="userSpaceOnUse">
      <stop offset="0" stop-color="#fff"/>
      <stop offset="1" stop-color="#bfd8ff"/>
    </linearGradient>
    <linearGradient id="_Безымянный_градиент_570-2" data-name="Безымянный градиент 570" x1="94.92" y1="56.3" x2="115.01" y2="56.3" xlink:href="#_Безымянный_градиент_570"/>
    <linearGradient id="_Безымянный_градиент_570-3" data-name="Безымянный градиент 570" x1="85.53" y1="42.16" x2="104.24" y2="42.16" xlink:href="#_Безымянный_градиент_570"/>
    <linearGradient id="_Безымянный_градиент_570-4" data-name="Безымянный градиент 570" x1="104.24" y1="42.16" x2="122.94" y2="42.16" xlink:href="#_Безымянный_градиент_570"/>
  </defs>
  <g class="cls-25">
    <g id="_Слой_1" data-name="Слой 1">
      <g>
        <path class="cls-21" d="m84.3,86.96l1.79.56,1.96-.43.17-.99.22.07,4.65-3.1,4.51,1.42.77-.52-.17-.05.17-.11-3.94-1.24,1.12-.75c2.24.67,4.91,1.06,7.78,1.06,2.68,0,5.17-.34,7.32-.93l.93.62-3.94,1.24.16.11-.16.05.77.52,4.51-1.42,4.65,3.1.22-.07.17.99,1.96.43,1.79-.56-.03-.15h.03s-.17-1-.17-1l-1.83-.4-.07-.05.16-.05-4.48-2.99,4.52-1.42-.16-.11.16-.05-.77-.52-4.28,1.35-1.09-.72c2.46-1.18,3.97-2.78,3.97-4.54,0-1.9-1.76-3.6-4.57-4.81l1.86-2.28-.18.06.18-.22-4.62,1.51c-2.07-.53-4.46-.84-7.01-.84s-4.73.28-6.74.77l-4.36-1.44.18.22-.18-.06,1.74,2.11c-3.05,1.21-4.99,2.99-4.99,4.98,0,1.67,1.37,3.19,3.61,4.35l-1.36.91-4.28-1.35-.78.52.17.05-.17.11,4.52,1.43-4.48,2.99.16.05-.07.05-1.83.4-.17.99h.03s-.03.16-.03.16Z"/>
        <g class="cls-28">
          <rect class="cls-8" x="26.78" y="29.53" width="143.95" height="24.45" rx="7.36" ry="7.36"/>
          <rect class="cls-16" x="26.78" y="5.07" width="143.95" height="24.45" rx="7.36" ry="7.36"/>
        </g>
        <g>
          <g>
            <rect class="cls-1" x="34.4" width="3.89" height="33.84"/>
            <rect class="cls-1" x="43.42" width="3.89" height="33.84"/>
            <rect class="cls-1" x="38.09" y="8.71" width="5.58" height="1.94"/>
          </g>
          <rect class="cls-1" x="89.48" width="3.89" height="14.42"/>
          <rect class="cls-1" x="95.05" y="14.21" width="3.89" height="19.42"/>
          <rect class="cls-1" x="93.36" width="5.58" height="1.94"/>
          <rect class="cls-1" x="89.48" y="31.69" width="5.58" height="1.94"/>
          <rect class="cls-1" x="93.36" y="12.48" width="5.58" height="1.94"/>
          <g>
            <rect class="cls-1" x="74.83" width="3.89" height="33.84"/>
            <rect class="cls-1" x="84.3" width="3.89" height="33.84"/>
            <rect class="cls-1" x="78.72" width="5.58" height="1.94"/>
            <rect class="cls-1" x="78.72" y="31.9" width="5.58" height="1.94"/>
          </g>
          <g>
            <rect class="cls-1" x="126.46" y=".25" width="3.89" height="33.84"/>
            <rect class="cls-1" x="135.92" y=".25" width="3.89" height="33.84"/>
            <rect class="cls-1" x="130.34" y=".25" width="5.58" height="1.94"/>
            <rect class="cls-1" x="130.34" y="32.15" width="5.58" height="1.94"/>
          </g>
          <g>
            <rect class="cls-1" x="141.22" y=".25" width="3.89" height="33.84"/>
            <rect class="cls-1" x="150.68" y=".25" width="3.89" height="33.84"/>
            <rect class="cls-1" x="145.11" y=".25" width="5.58" height="1.94"/>
            <rect class="cls-1" x="145.11" y="32.15" width="5.58" height="1.94"/>
          </g>
          <g>
            <rect class="cls-1" x="115.35" width="3.89" height="33.84"/>
            <rect class="cls-1" x="119.23" y="31.9" width="5.58" height="1.94"/>
          </g>
          <g>
            <rect class="cls-1" x="161.27" y=".25" width="3.89" height="33.84"/>
            <rect class="cls-1" x="155.69" y=".25" width="5.58" height="1.94"/>
            <rect class="cls-1" x="165.15" y=".25" width="5.58" height="1.94"/>
          </g>
          <g>
            <rect class="cls-1" x="69.24" y="14.42" width="3.89" height="19.42"/>
            <rect class="cls-1" x="69.24" y="0" width="3.89" height="10.65"/>
            <rect class="cls-1" x="59.8" width="3.89" height="33.84"/>
            <rect class="cls-1" x="63.66" width="5.58" height="1.94"/>
            <rect class="cls-1" x="63.66" y="8.71" width="5.58" height="1.94"/>
            <rect class="cls-1" x="63.66" y="14.42" width="5.58" height="1.94"/>
          </g>
          <g>
            <rect class="cls-1" x="48.93" width="3.89" height="33.84"/>
            <rect class="cls-1" x="52.44" y="8.71" width="5.58" height="1.94"/>
            <rect class="cls-1" x="52.82" width="5.58" height="1.94"/>
            <rect class="cls-1" x="52.82" y="31.9" width="5.58" height="1.94"/>
          </g>
        </g>
        <g class="cls-27">
          <polygon class="cls-13" points="43.42 13.78 38.28 13.78 38.28 5.07 34.4 5.07 34.4 38.91 38.28 38.91 38.28 15.73 43.42 15.73 43.42 38.91 47.3 38.91 47.3 5.07 43.42 5.07 43.42 13.78"/>
          <polygon class="cls-10" points="89.48 5.07 89.48 19.5 93.36 19.5 95.05 19.5 95.05 36.76 89.48 36.76 89.48 38.71 95.05 38.71 98.94 38.71 98.94 19.5 98.94 19.29 98.94 17.55 93.36 17.55 93.36 7.02 98.94 7.02 98.94 5.07 93.36 5.07 89.48 5.07"/>
          <path class="cls-11" d="m78.72,5.07h-3.89v33.84h13.35V5.07h-9.46Zm5.58,31.9h-5.58V7.02h5.58v29.95Z"/>
          <path class="cls-9" d="m130.34,5.33h-3.89v33.84h13.35V5.33h-9.46Zm5.58,31.9h-5.58V7.27h5.58v29.95Z"/>
          <path class="cls-15" d="m145.11,5.33h-3.89v33.84h13.35V5.33h-9.46Zm5.58,31.9h-5.58V7.27h5.58v29.95Z"/>
          <polygon class="cls-17" points="119.23 5.07 115.35 5.07 115.35 38.91 119.23 38.91 124.81 38.91 124.81 36.97 119.23 36.97 119.23 5.07"/>
          <polygon class="cls-20" points="165.15 5.33 161.27 5.33 155.69 5.33 155.69 7.27 161.27 7.27 161.27 39.16 165.15 39.16 165.15 7.27 170.73 7.27 170.73 5.33 165.15 5.33"/>
          <path class="cls-18" d="m63.68,5.07h-3.89v33.84h3.89v-17.47h5.56v17.47h3.89v-19.42h-9.44v-3.77h9.44V5.07h-9.44Zm5.56,8.71h-5.56v-6.77h5.56v6.77Z"/>
          <polygon class="cls-3" points="48.93 5.07 48.93 38.91 52.82 38.91 58.4 38.91 58.4 36.97 52.82 36.97 52.82 15.73 58.02 15.73 58.02 13.78 52.82 13.78 52.82 7.02 58.4 7.02 58.4 5.07 52.82 5.07 48.93 5.07"/>
        </g>
        <line class="cls-7" x1="100.46" y1="66.21" x2="100.67" y2="40.98"/>
        <line class="cls-7" x1="94.02" y1="62.07" x2="94.27" y2="44.8"/>
        <line class="cls-7" x1="97.4" y1="64.74" x2="97.49" y2="42.22"/>
        <g>
          <g>
            <polygon class="cls-22" points="99.19 64.13 92.28 69.05 95.25 61.11 105.11 48.23 112.03 43.3 109.06 51.25 99.19 64.13"/>
            <polygon class="cls-22" points="108.02 64.01 115.01 69.05 111.96 60.99 101.91 47.88 94.92 42.85 97.97 50.91 108.02 64.01"/>
            <polygon class="cls-22" points="98.83 35.74 94.32 38.84 89.67 32.08 89.45 32.23 89.28 30.07 87.32 29.13 85.53 30.36 85.7 32.53 87.66 33.46 87.44 33.62 92.09 40.38 87.4 43.6 88.18 44.73 92.46 41.78 101.2 54.49 104.24 52.4 95.5 39.69 99.6 36.86 98.83 35.74"/>
            <polygon class="cls-22" points="109.64 35.74 114.15 38.84 118.8 32.08 119.02 32.23 119.19 30.07 121.16 29.13 122.94 30.36 122.77 32.53 120.81 33.46 121.04 33.62 116.39 40.38 121.08 43.6 120.3 44.73 116.01 41.78 107.27 54.49 104.24 52.4 112.98 39.69 108.87 36.86 109.64 35.74"/>
          </g>
          <g>
            <g>
              <g class="cls-26">
                <polygon class="cls-6" points="99.19 64.48 92.28 69.41 95.25 61.46 105.11 48.59 112.03 43.66 109.06 51.61 99.19 64.48"/>
                <polygon class="cls-14" points="108.02 64.37 115.01 69.41 111.96 61.35 101.91 48.24 94.92 43.2 97.97 51.26 108.02 64.37"/>
                <polygon class="cls-2" points="98.83 36.09 94.32 39.19 89.67 32.43 89.45 32.59 89.28 30.42 87.32 29.49 85.53 30.71 85.7 32.88 87.66 33.81 87.44 33.97 92.09 40.73 87.4 43.95 88.18 45.08 92.46 42.13 101.2 54.84 104.24 52.75 95.5 40.04 99.6 37.22 98.83 36.09"/>
                <polygon class="cls-19" points="109.64 36.09 114.15 39.19 118.8 32.43 119.02 32.59 119.19 30.42 121.16 29.49 122.94 30.71 122.77 32.88 120.81 33.81 121.04 33.97 116.39 40.73 121.08 43.95 120.3 45.08 116.01 42.13 107.27 54.84 104.24 52.75 112.98 40.04 108.87 37.22 109.64 36.09"/>
              </g>
              <circle class="cls-4" cx="103.92" cy="53.6" r="14.34"/>
              <path class="cls-12" d="m90.85,53.6c0,7.14,5.73,12.94,12.83,13.06l.23-26.13c-7.21,0-13.06,5.85-13.06,13.06h0Z"/>
              <path class="cls-23" d="m103.92,40.54h0l-.23,26.13c.07,0,.15,0,.23,0,7.21,0,13.06-5.85,13.06-13.06s-5.85-13.06-13.06-13.06h0Z"/>
            </g>
            <circle class="cls-24" cx="103.92" cy="54.01" r="7.87"/>
            <polygon class="cls-5" points="102.69 49.45 102.69 51.87 100.57 51.87 100.57 49.45 99.52 49.45 99.52 51.87 99.52 52.93 99.52 57.76 100.57 57.76 100.57 52.93 102.69 52.93 102.69 57.76 103.74 57.76 103.74 52.93 103.74 51.87 103.74 49.45 102.69 49.45"/>
            <polygon class="cls-5" points="105.29 56.7 105.29 49.45 104.24 49.45 104.24 56.7 104.24 57.76 105.29 57.76 108.46 57.76 108.46 56.7 105.29 56.7"/>
          </g>
        </g>
      </g>
    </g>
  </g>
</svg>