<?xml version="1.0" encoding="UTF-8"?>
<svg id="_Слой_1" data-name="Слой 1" xmlns="http://www.w3.org/2000/svg" viewBox="0 0 219.9 49.45">
  <defs>
    <style>
      .cls-1 {
        fill: #937eaa;
        stroke: #fff;
        stroke-miterlimit: 10;
      }
    </style>
  </defs>
  <polygon class="cls-1" points="43.09 14.53 43.09 8 32.71 8 32.71 7.99 26.16 7.99 26.16 41.4 26.69 41.4 32.71 41.4 43.09 41.4 43.09 34.85 32.71 34.85 32.71 27.97 43.09 27.97 43.09 21.42 32.71 21.42 32.71 14.53 43.09 14.53"/>
  <polygon class="cls-1" points="101.93 21.97 102.48 15.33 90.02 14.3 90.02 14.3 83.5 13.75 83.5 13.75 82.95 20.39 82.41 26.85 81.88 33.13 81.85 33.49 94.31 34.53 93.73 41.46 81.28 40.43 80.72 47.06 99.7 48.64 99.75 48.12 100.26 42.01 100.83 35.07 101.39 28.43 94.86 27.89 88.93 27.4 89.47 20.93 101.93 21.97"/>
  <path class="cls-1" d="m59.01,29.55l4.91.21.85-19.58-4.91-.21-1.63-.07-8.21-.36-6.54-.28-.28,6.54-.28,6.5-.28,6.54-.6,13.79,6.54.28.46-10.47,8.07,10.88,6.22.27-7.82-14.18,1.88.08,1.63.07Zm-9.56-6.97l.28-6.5,8.21.36-.28,6.5-8.21-.36Z"/>
  <path class="cls-1" d="m80.17,4.32l-4.39.24-5.45.3-6.54.36.36,6.58,1.49,26.8.43-.02,6.11-.34,5.45-.3,4.82-.27,1.72-.1-1.85-33.37-2.14.12Zm-8.35,27.34l-1.12-20.22,5.45-.3,1.12,20.22-5.45.3Z"/>
  <polygon class="cls-1" points="19.92 .99 20.83 14.02 7.98 14.92 7.06 1.89 .53 2.35 3.61 46.22 10.14 45.76 8.43 21.45 21.29 20.55 22.99 44.86 29.52 44.4 26.45 .53 19.92 .99"/>
  <path class="cls-1" d="m153.3,8.45l-4.35.62-5.4.77-6.48.92.95,6.69,3.87,27.26.42-.06,6.06-.86,5.4-.77,4.78-.68,1.7-.24-4.81-33.95-2.13.3Zm-5.89,28.64l-2.92-20.56,5.4-.77,2.92,20.56-5.4.77Z"/>
  <path class="cls-1" d="m180.73,8.39l-4.39-.19-5.45-.23-6.54-.28-.29,6.76-1.17,27.53.43.02,6.11.26,5.45.23,4.82.2,1.72.07,1.46-34.29-2.15-.09Zm-11.02,27.12l.88-20.77,5.45.23-.88,20.77-5.45-.23Z"/>
  <polygon class="cls-1" points="207.89 14.78 207.81 14.76 199.55 12.22 199.46 12.2 188.08 8.7 185.52 17.05 196.9 20.54 189.38 45.05 189.47 45.08 197.72 47.61 197.81 47.64 205.33 23.13 216.72 26.62 219.28 18.28 207.89 14.78"/>
  <polygon class="cls-1" points="126.38 38.78 121.99 13.52 113.39 15.02 117.78 40.28 119.27 48.87 127.87 47.38 139.61 45.34 138.11 36.74 126.38 38.78"/>
</svg>