<?xml version="1.0" encoding="UTF-8"?>
<svg id="_Слой_1" data-name="Слой 1" xmlns="http://www.w3.org/2000/svg" viewBox="0 0 65.18 69.55">
  <defs>
    <style>
      .cls-1 {
        fill: #edd9c0;
      }

      .cls-1, .cls-2, .cls-3, .cls-4, .cls-5, .cls-6, .cls-7, .cls-8 {
        stroke-width: 0px;
      }

      .cls-2 {
        fill: #b0b3b5;
      }

      .cls-3 {
        fill: #784fbc;
      }

      .cls-4 {
        fill: #e2b774;
      }

      .cls-5 {
        fill: #e2d5c3;
      }

      .cls-6 {
        fill: #cc89c9;
      }

      .cls-7 {
        fill: #dbd3ca;
      }

      .cls-8 {
        fill: #fcfcfc;
      }
    </style>
  </defs>
  <polygon class="cls-3" points="23.79 60.97 11.76 69.55 16.93 55.71 34.12 33.28 46.16 24.69 40.99 38.54 23.79 60.97"/>
  <polygon class="cls-3" points="39.18 60.77 51.36 69.55 46.04 55.51 28.54 32.67 16.35 23.89 21.67 37.94 39.18 60.77"/>
  <polygon class="cls-3" points="23.17 11.51 15.32 16.91 7.22 5.13 6.83 5.4 6.53 1.63 3.12 0 0 2.14 .3 5.91 3.71 7.54 3.32 7.81 11.42 19.59 3.26 25.2 4.61 27.17 12.07 22.03 27.3 44.17 32.59 40.53 17.37 18.39 24.52 13.47 23.17 11.51"/>
  <polygon class="cls-3" points="42.01 11.51 49.87 16.91 57.97 5.13 58.35 5.4 58.65 1.63 62.07 0 65.18 2.14 64.88 5.91 61.47 7.54 61.86 7.81 53.76 19.59 61.93 25.2 60.57 27.17 53.11 22.03 37.88 44.17 32.59 40.53 47.82 18.39 40.66 13.47 42.01 11.51"/>
  <circle class="cls-2" cx="32.03" cy="42.63" r="24.99"/>
  <path class="cls-4" d="m9.27,42.63c0,12.44,9.98,22.54,22.36,22.75l.4-45.52c-12.57,0-22.76,10.19-22.76,22.76Z"/>
  <path class="cls-6" d="m32.03,19.87h0l-.4,45.52c.13,0,.27.01.4.01,12.57,0,22.76-10.19,22.76-22.76s-10.19-22.76-22.76-22.76Z"/>
  <line class="cls-7" x1="26.01" y1="64.59" x2="26.37" y2="20.64"/>
  <line class="cls-1" x1="14.79" y1="57.38" x2="15.22" y2="27.29"/>
  <line class="cls-5" x1="20.68" y1="62.04" x2="20.84" y2="22.8"/>
  <circle class="cls-8" cx="32.03" cy="43.34" r="13.71"/>
  <polygon class="cls-3" points="29.89 35.39 29.89 39.62 26.21 39.62 26.21 35.39 24.37 35.39 24.37 39.62 24.37 41.46 24.37 49.87 26.21 49.87 26.21 41.46 29.89 41.46 29.89 49.87 31.72 49.87 31.72 41.46 31.72 39.62 31.72 35.39 29.89 35.39"/>
  <polygon class="cls-3" points="34.43 48.03 34.43 35.39 32.59 35.39 32.59 48.03 32.59 49.87 34.43 49.87 39.95 49.87 39.95 48.03 34.43 48.03"/>
</svg>