<?xml version="1.0" encoding="UTF-8"?>
<svg id="_Слой_1" data-name="Слой 1" xmlns="http://www.w3.org/2000/svg" viewBox="0 0 810.3 1512.03">
  <defs>
    <style>
      .cls-1 {
        fill: #999;
      }

      .cls-1, .cls-2 {
        stroke-width: 0px;
      }

      .cls-3 {
        fill: #cea0e0;
      }

      .cls-3, .cls-4, .cls-5, .cls-6, .cls-7 {
        stroke: #000;
        stroke-miterlimit: 10;
      }

      .cls-2 {
        fill: #bababa;
      }

      .cls-4 {
        fill: #353535;
      }

      .cls-5 {
        fill: #4f4f4f;
      }

      .cls-6 {
        fill: #b78bcc;
      }

      .cls-7 {
        fill: #b2b2b2;
      }
    </style>
  </defs>
  <g>
    <path class="cls-7" d="m154.6,1430.97l399.15-915.96,59.16,25.83c.07.03.14.06.21.09l-406.57,932.99c-13.44,30.85-47.61,45.7-76.32,33.17h0c-16.36-7.14-27.41-21.65-31.4-38.51,22.9.33,45.44-13.91,55.76-37.6Z"/>
    <path class="cls-1" d="m360.94,479.57h9.23c3.89,0,7.04,3.16,7.04,7.04v1010.7h-23.32V486.61c0-3.89,3.16-7.04,7.04-7.04Z" transform="translate(310.58 2040.88) rotate(-156.71)"/>
    <path class="cls-2" d="m363.57,478.63h3.37c3.89,0,7.04,3.16,7.04,7.04v1002.08h-17.45V485.67c0-3.89,3.16-7.04,7.04-7.04Z" transform="translate(312.08 2030.69) rotate(-156.71)"/>
    <g>
      <rect class="cls-6" x="662.52" y="50.86" width="66.94" height="435" rx="12" ry="12" transform="translate(1229.18 790.01) rotate(-156.71)"/>
      <g>
        <polygon class="cls-3" points="735.33 190.35 745.25 184.75 747.79 194.97 737.88 200.57 735.33 190.35"/>
        <polygon class="cls-3" points="746.58 235.47 739.56 207.33 749.48 201.74 753.74 218.83 746.58 235.47"/>
        <polygon class="cls-3" points="753.87 191.54 751.32 181.33 760.49 176.15 763.04 186.37 753.87 191.54"/>
        <polygon class="cls-3" points="733.65 183.58 731.03 173.07 740.94 167.48 743.56 177.99 733.65 183.58"/>
        <polygon class="cls-3" points="739.26 160.71 729.34 166.3 726.79 156.09 736.71 150.49 739.26 160.71"/>
        <polygon class="cls-3" points="758.81 169.38 749.64 174.56 747.02 164.05 756.19 158.87 758.81 169.38"/>
        <polygon class="cls-3" points="699.68 317.45 697.06 306.94 721.83 292.96 714.33 310.4 714.07 309.33 699.68 317.45"/>
        <polygon class="cls-3" points="675.74 318.97 678.36 329.48 668.44 335.08 665.82 324.57 675.74 318.97"/>
        <polygon class="cls-3" points="650.58 333.17 659.75 328 662.37 338.51 653.2 343.68 650.58 333.17"/>
        <polygon class="cls-3" points="681.81 315.55 690.98 310.37 693.6 320.88 684.43 326.06 681.81 315.55"/>
        <polygon class="cls-3" points="655.52 311.01 658.06 321.23 648.89 326.4 646.35 316.19 655.52 311.01"/>
        <polygon class="cls-3" points="688.67 343.04 686.12 332.82 695.29 327.65 697.84 337.87 688.67 343.04"/>
        <polygon class="cls-3" points="723.27 169.73 714.1 174.91 711.55 164.69 720.72 159.51 723.27 169.73"/>
        <polygon class="cls-3" points="695.17 185.58 701.8 170.19 705.48 168.12 708.02 178.33 695.17 185.58"/>
        <polygon class="cls-3" points="689.3 303.6 680.13 308.78 677.58 298.56 686.75 293.39 689.3 303.6"/>
        <polygon class="cls-3" points="680.05 336.25 682.59 346.47 672.68 352.06 670.13 341.85 680.05 336.25"/>
        <polygon class="cls-3" points="681.37 386.97 674.36 358.83 684.28 353.24 688.54 370.33 681.37 386.97"/>
        <polygon class="cls-3" points="742.19 245.67 736.89 257.97 736.76 257.45 734.92 258.49 724.32 215.94 733.49 210.76 742.19 245.67"/>
        <polygon class="cls-3" points="729.26 193.78 731.8 203.99 722.63 209.17 720.09 198.95 729.26 193.78"/>
        <polygon class="cls-3" points="661.59 307.58 671.51 301.99 674.05 312.21 664.14 317.8 661.59 307.58"/>
        <polygon class="cls-3" points="724.95 176.5 727.57 187.01 718.4 192.18 715.78 181.67 724.95 176.5"/>
        <polygon class="cls-3" points="718.25 219.36 728.85 261.91 691.14 283.19 680.54 240.64 718.25 219.36"/>
        <polygon class="cls-3" points="731.18 271.26 725.88 283.56 725.75 283.03 695.37 300.18 692.83 289.96 730.53 268.68 731.18 271.26"/>
        <polygon class="cls-3" points="668.29 362.26 676.99 397.17 670.36 412.56 659.12 367.43 668.29 362.26"/>
        <polygon class="cls-3" points="710.63 318.99 703.94 334.55 701.36 324.22 710.63 318.99"/>
        <polygon class="cls-3" points="699.52 344.63 699.55 344.74 692.92 360.13 690.35 349.81 699.52 344.63"/>
        <polygon class="cls-3" points="779.27 157.84 764.88 165.96 762.26 155.45 787.04 141.47 779.53 158.9 779.27 157.84"/>
        <polygon class="cls-3" points="775.83 167.49 769.14 183.05 766.57 172.72 775.83 167.49"/>
        <polygon class="cls-3" points="764.72 193.14 764.75 193.24 758.13 208.64 755.55 198.31 764.72 193.14"/>
        <path class="cls-3" d="m653.04,370.86l12.93,51.89-31.83,73.96c-2.88,6.69-9.41,10.38-14.5,8.18l-42.95-18.49c-5.1-2.19-6.91-9.47-4.03-16.16l30.72-71.37,49.67-28.03Z"/>
        <path class="cls-3" d="m801.96,105.95l-45.62,25.74-13.66-54.82-.95.54,4.26-9.89c2.88-6.69,9.41-10.38,14.5-8.18l42.95,18.49c5.1,2.19,6.91,9.47,4.03,16.16l-5.37,12.49-.13-.52Z"/>
        <polygon class="cls-3" points="664.06 345.27 666.6 355.49 657.43 360.67 654.89 350.45 664.06 345.27"/>
        <polygon class="cls-3" points="614.38 373.3 648.81 353.88 651.36 364.09 607.76 388.69 614.38 373.3"/>
        <polygon class="cls-3" points="644.51 336.6 647.12 347.11 618.77 363.11 625.58 347.27 644.51 336.6"/>
        <polygon class="cls-3" points="741.1 140.3 731.67 102.46 730.72 103 738.03 86.01 750.27 135.12 741.1 140.3"/>
        <polygon class="cls-3" points="714.01 202.38 716.56 212.6 678.85 233.87 677.48 228.37 676.53 228.91 679.58 221.81 714.01 202.38"/>
        <polygon class="cls-3" points="709.71 185.1 712.33 195.61 683.97 211.61 690.79 195.78 709.71 185.1"/>
        <polygon class="cls-3" points="674.46 244.07 685.07 286.62 675.9 291.79 666.47 253.96 665.51 254.5 668.57 247.39 674.46 244.07"/>
        <polygon class="cls-3" points="791.08 132.06 790.95 131.54 760.57 148.68 758.03 138.46 798.05 115.88 791.08 132.06"/>
        <polygon class="cls-3" points="636.6 321.69 640.27 319.61 642.82 329.83 629.97 337.08 636.6 321.69"/>
        <polygon class="cls-3" points="669.82 295.22 659.91 300.82 654.78 280.26 654.31 280.53 661.82 263.09 669.82 295.22"/>
        <polygon class="cls-3" points="644.66 309.42 643.77 305.85 643.3 306.11 650.26 289.93 653.83 304.24 644.66 309.42"/>
        <polygon class="cls-3" points="745.33 157.28 742.78 147.06 751.95 141.89 754.5 152.11 745.33 157.28"/>
        <polygon class="cls-3" points="709.86 157.92 708.97 154.35 708.5 154.61 715.47 138.43 719.03 152.75 709.86 157.92"/>
        <polygon class="cls-3" points="735.02 143.72 725.11 149.32 719.99 128.76 719.51 129.03 727.02 111.59 735.02 143.72"/>
      </g>
    </g>
    <path class="cls-5" d="m570.73,478.26l57.37,24.69c3.13,1.35,3.08,8.54-.13,15.99l-4.5,10.46c-3.2,7.45-8.39,12.43-11.53,11.08l-57.37-24.69c-3.13-1.35-3.08-8.54.13-15.99l4.5-10.46c3.2-7.45,8.39-12.43,11.53-11.08Z"/>
    <rect class="cls-4" x="592.45" y="397.59" width="15.48" height="186.71" rx="7.74" ry="7.74" transform="translate(1288.41 133.72) rotate(113.29)"/>
    <path class="cls-5" d="m748.18,68.34h64.72c.22,0,.4.18.4.4h0c0,4.34-3.52,7.86-7.86,7.86h-49.78c-4.34,0-7.86-3.52-7.86-7.86h0c0-.22.18-.4.4-.4Z" transform="translate(1468.86 447.6) rotate(-156.71)"/>
  </g>
  <g>
    <path class="cls-7" d="m655.7,1373.28L256.55,457.32l-59.16,25.83c-.07.03-.14.06-.21.09l406.57,932.99c13.44,30.85,47.61,45.7,76.32,33.17h0c16.36-7.14,27.41-21.65,31.4-38.51-22.9.33-45.44-13.91-55.76-37.6Z"/>
    <path class="cls-1" d="m433.08,421.88h23.32v1010.7c0,3.89-3.16,7.04-7.04,7.04h-9.23c-3.89,0-7.04-3.16-7.04-7.04V421.88h0Z" transform="translate(-331.72 251.64) rotate(-23.29)"/>
    <path class="cls-2" d="m436.32,420.94h17.45v1002.08c0,3.89-3.16,7.04-7.04,7.04h-3.37c-3.89,0-7.04-3.16-7.04-7.04V420.94h0Z" transform="translate(-329.62 251.33) rotate(-23.29)"/>
    <g>
      <rect class="cls-6" x="80.84" y="-6.82" width="66.94" height="435" rx="12" ry="12" transform="translate(-73.97 62.35) rotate(-23.29)"/>
      <g>
        <polygon class="cls-3" points="74.96 132.66 65.05 127.06 62.5 137.28 72.42 142.88 74.96 132.66"/>
        <polygon class="cls-3" points="63.72 177.79 70.73 149.64 60.82 144.05 56.56 161.14 63.72 177.79"/>
        <polygon class="cls-3" points="56.43 133.85 58.97 123.64 49.8 118.46 47.26 128.68 56.43 133.85"/>
        <polygon class="cls-3" points="76.65 125.89 79.27 115.38 69.35 109.79 66.73 120.3 76.65 125.89"/>
        <polygon class="cls-3" points="71.04 103.02 80.96 108.61 83.5 98.4 73.59 92.8 71.04 103.02"/>
        <polygon class="cls-3" points="51.49 111.69 60.66 116.87 63.28 106.36 54.11 101.18 51.49 111.69"/>
        <polygon class="cls-3" points="110.62 259.76 113.24 249.25 88.46 235.27 95.97 252.71 96.23 251.65 110.62 259.76"/>
        <polygon class="cls-3" points="134.56 261.28 131.94 271.79 141.85 277.39 144.47 266.88 134.56 261.28"/>
        <polygon class="cls-3" points="159.72 275.48 150.55 270.31 147.93 280.82 157.1 285.99 159.72 275.48"/>
        <polygon class="cls-3" points="128.48 257.86 119.31 252.68 116.69 263.19 125.86 268.37 128.48 257.86"/>
        <polygon class="cls-3" points="154.78 253.32 152.23 263.54 161.4 268.71 163.95 258.5 154.78 253.32"/>
        <polygon class="cls-3" points="121.63 285.35 124.18 275.13 115.01 269.96 112.46 280.18 121.63 285.35"/>
        <polygon class="cls-3" points="87.03 112.04 96.2 117.22 98.75 107 89.58 101.82 87.03 112.04"/>
        <polygon class="cls-3" points="115.12 127.89 108.5 112.5 104.82 110.43 102.28 120.64 115.12 127.89"/>
        <polygon class="cls-3" points="121 245.91 130.17 251.09 132.71 240.87 123.54 235.7 121 245.91"/>
        <polygon class="cls-3" points="130.25 278.56 127.7 288.78 137.62 294.37 140.17 284.16 130.25 278.56"/>
        <polygon class="cls-3" points="128.92 329.28 135.93 301.14 126.02 295.55 121.76 312.64 128.92 329.28"/>
        <polygon class="cls-3" points="68.11 187.98 73.4 200.28 73.53 199.76 75.37 200.8 85.98 158.25 76.81 153.07 68.11 187.98"/>
        <polygon class="cls-3" points="81.04 136.09 78.49 146.3 87.66 151.48 90.21 141.26 81.04 136.09"/>
        <polygon class="cls-3" points="148.7 249.89 138.79 244.3 136.24 254.52 146.16 260.11 148.7 249.89"/>
        <polygon class="cls-3" points="85.34 118.81 82.73 129.32 91.9 134.49 94.51 123.98 85.34 118.81"/>
        <polygon class="cls-3" points="92.05 161.67 81.45 204.22 119.16 225.5 129.76 182.95 92.05 161.67"/>
        <polygon class="cls-3" points="79.12 213.57 84.41 225.87 84.55 225.34 114.92 242.49 117.47 232.27 79.76 210.99 79.12 213.57"/>
        <polygon class="cls-3" points="142.01 304.57 133.31 339.48 139.93 354.87 151.18 309.74 142.01 304.57"/>
        <polygon class="cls-3" points="99.66 261.3 106.36 276.86 108.93 266.53 99.66 261.3"/>
        <polygon class="cls-3" points="110.77 286.94 110.75 287.05 117.37 302.44 119.94 292.12 110.77 286.94"/>
        <polygon class="cls-3" points="31.03 100.15 45.42 108.27 48.04 97.76 23.26 83.78 30.76 101.21 31.03 100.15"/>
        <polygon class="cls-3" points="34.46 109.8 41.16 125.36 43.73 115.03 34.46 109.8"/>
        <polygon class="cls-3" points="45.57 135.45 45.55 135.55 52.17 150.95 54.74 140.62 45.57 135.45"/>
        <path class="cls-3" d="m157.25,313.17l-12.93,51.89,31.83,73.96c2.88,6.69,9.41,10.38,14.5,8.18l42.95-18.49c5.1-2.19,6.91-9.47,4.03-16.16l-30.72-71.37-49.67-28.03Z"/>
        <path class="cls-3" d="m8.33,48.26l45.62,25.74,13.66-54.82.95.54-4.26-9.89c-2.88-6.69-9.41-10.38-14.5-8.18L6.85,20.14C1.76,22.33-.06,29.6,2.83,36.3l5.37,12.49.13-.52Z"/>
        <polygon class="cls-3" points="146.24 287.58 143.7 297.8 152.87 302.98 155.41 292.76 146.24 287.58"/>
        <polygon class="cls-3" points="195.91 315.61 161.49 296.19 158.94 306.4 202.54 331.01 195.91 315.61"/>
        <polygon class="cls-3" points="165.79 278.91 163.17 289.42 191.53 305.42 184.71 289.59 165.79 278.91"/>
        <polygon class="cls-3" points="69.2 82.61 78.63 44.77 79.58 45.31 72.27 28.32 60.03 77.43 69.2 82.61"/>
        <polygon class="cls-3" points="96.28 144.69 93.74 154.91 131.45 176.18 132.82 170.68 133.77 171.22 130.71 164.12 96.28 144.69"/>
        <polygon class="cls-3" points="100.59 127.41 97.97 137.92 126.32 153.92 119.51 138.09 100.59 127.41"/>
        <polygon class="cls-3" points="135.83 186.38 125.23 228.93 134.4 234.1 143.83 196.27 144.78 196.81 141.72 189.7 135.83 186.38"/>
        <polygon class="cls-3" points="19.21 74.37 19.34 73.85 49.72 90.99 52.27 80.77 12.25 58.19 19.21 74.37"/>
        <polygon class="cls-3" points="173.7 264 170.02 261.92 167.48 272.14 180.32 279.39 173.7 264"/>
        <polygon class="cls-3" points="140.47 237.53 150.39 243.13 155.51 222.57 155.98 222.84 148.48 205.4 140.47 237.53"/>
        <polygon class="cls-3" points="165.64 251.73 166.53 248.16 167 248.42 160.03 232.24 156.47 246.55 165.64 251.73"/>
        <polygon class="cls-3" points="64.97 99.59 67.51 89.37 58.34 84.2 55.8 94.42 64.97 99.59"/>
        <polygon class="cls-3" points="100.43 100.23 101.32 96.66 101.79 96.93 94.83 80.74 91.26 95.06 100.43 100.23"/>
        <polygon class="cls-3" points="75.27 86.03 85.19 91.63 90.31 71.07 90.78 71.34 83.28 53.9 75.27 86.03"/>
      </g>
    </g>
    <path class="cls-5" d="m239.57,420.57l-57.37,24.69c-3.13,1.35-3.08,8.54.13,15.99l4.5,10.46c3.2,7.45,8.39,12.43,11.53,11.08l57.37-24.69c3.13-1.35,3.08-8.54-.13-15.99l-4.5-10.46c-3.2-7.45-8.39-12.43-11.53-11.08Z"/>
    <rect class="cls-4" x="202.37" y="339.9" width="15.48" height="186.71" rx="7.74" ry="7.74" transform="translate(525.01 68.98) rotate(66.71)"/>
    <path class="cls-5" d="m4.86,10.65h49.78c4.34,0,7.86,3.52,7.86,7.86h0c0,.22-.18.4-.4.4H-2.61c-.22,0-.4-.18-.4-.4h0c0-4.34,3.52-7.86,7.86-7.86Z" transform="translate(-3.42 12.97) rotate(-23.29)"/>
  </g>
</svg>