<?xml version="1.0" encoding="UTF-8"?>
<svg id="_Слой_1" data-name=" Слой 1" xmlns="http://www.w3.org/2000/svg" viewBox="0 0 502.07 1451.78">
  <defs>
    <style>
      .cls-1 {
        fill: #7c7c7c;
      }

      .cls-1, .cls-2, .cls-3, .cls-4 {
        stroke-width: 0px;
      }

      .cls-5 {
        stroke: #8c8c8c;
      }

      .cls-5, .cls-6, .cls-7, .cls-8, .cls-9, .cls-10, .cls-11 {
        stroke-miterlimit: 10;
      }

      .cls-6 {
        fill: #605f5f;
        stroke: #a5a5a5;
      }

      .cls-7 {
        fill: #8c7373;
      }

      .cls-7, .cls-8 {
        stroke: #686868;
      }

      .cls-8 {
        fill: #ba8b78;
      }

      .cls-2 {
        fill: none;
      }

      .cls-9 {
        stroke: #827e7d;
      }

      .cls-9, .cls-3 {
        fill: #bfbfbf;
      }

      .cls-10 {
        fill: #c7b2cc;
      }

      .cls-10, .cls-11 {
        stroke: #9b9797;
      }

      .cls-11 {
        fill: #b596af;
      }

      .cls-4 {
        fill: #afafaf;
      }
    </style>
  </defs>
  <ellipse class="cls-5" cx="250.56" cy="1411.38" rx="41.95" ry="39.9"/>
  <g>
    <polygon class="cls-8" points="268.12 1069.22 235.9 1070.16 251.63 1090.05 268.12 1069.22"/>
    <path class="cls-8" d="m231.4,1115.62l7.95-10.04-25.58-32.32v21.06c.91.53,1.76,1.25,2.51,2.2l15.12,19.11h0Z"/>
    <g>
      <polygon class="cls-8" points="213.77 1124.4 213.77 1137.9 219.11 1131.15 213.77 1124.4"/>
      <polygon class="cls-8" points="229.32 1200.46 221.37 1210.5 231.4 1223.17 239.34 1213.13 229.32 1200.46"/>
      <polygon class="cls-8" points="239.34 1156.72 231.4 1146.68 221.37 1159.35 229.32 1169.39 239.34 1156.72"/>
      <polygon class="cls-8" points="213.77 1180.81 213.77 1189.04 217.02 1184.93 213.77 1180.81"/>
      <polygon class="cls-8" points="261.66 1184.93 251.63 1172.25 241.61 1184.93 251.63 1197.6 261.66 1184.93"/>
      <polygon class="cls-8" points="281.9 1210.5 273.95 1200.46 263.93 1213.13 271.87 1223.17 281.9 1210.5"/>
      <polygon class="cls-8" points="281.9 1159.35 271.87 1146.68 263.93 1156.72 273.95 1169.4 281.9 1159.35"/>
      <path class="cls-8" d="m231.4,1254.23l-15.12,19.11c-.75.95-1.6,1.67-2.51,2.2v21.06l25.58-32.32-7.95-10.04h0Z"/>
      <path class="cls-8" d="m249.75,1373.45c14.46,0,27.33,8.52,35.68,21.79l2.27-326.58h-.46l-.05,7.55-23.25,29.38,7.95,10.04,15.12-19.11s.03-.03.05-.05l-.22,31.33-2.66,3.36,2.61,3.3-.21,30.79-.14,19.45-.18.23.18.22-.21,30.79-.14,20.35-1.9,2.41,1.87,2.36-.21,30.79-13.95-17.62-7.95,10.04,21.76,27.49-.21,30.79-33.83-42.75-35.36,44.68c-.75.95-1.6,1.67-2.51,2.2v69.04c8.34-13.54,21.35-22.27,35.98-22.27h-.03Z"/>
      <polygon class="cls-8" points="213.77 1231.95 213.77 1245.45 219.11 1238.7 213.77 1231.95"/>
      <path class="cls-7" d="m251.63,1279.8l33.83,42.75.21-30.79-21.76-27.49,7.95-10.04,13.95,17.62.21-30.79-1.87-2.36,1.9-2.41.14-20.35.21-30.79-.18-.22.18-.23.14-19.45.21-30.79-2.61-3.3,2.66-3.36.22-31.33s-.03.03-.05.05l-15.12,19.11-7.95-10.04,23.25-29.38.05-7.54.17-23.75c-.14.15-.27.3-.4.46l-18.87,23.85-16.49,20.83-15.74-19.89-19.62-24.79c-.75-.95-1.6-1.67-2.51-2.2v30.09l25.58,32.32-7.95,10.04-15.12-19.11c-.75-.95-1.6-1.67-2.51-2.2v30.09l5.34,6.75-5.34,6.75v42.91l3.26,4.12-3.26,4.12v42.91l5.34,6.75-5.34,6.75v30.09c.91-.53,1.76-1.25,2.51-2.2l15.12-19.11,7.95,10.04-25.58,32.32v30.09c.91-.53,1.76-1.25,2.51-2.2l35.36-44.68.02-.02Zm20.24-133.12l10.03,12.67-7.95,10.04-10.03-12.67,7.95-10.04Zm2.08,53.77l7.95,10.04-10.03,12.67-7.95-10.04,10.03-12.67Zm-22.32-28.2l10.03,12.67-10.03,12.67-10.03-12.67,10.03-12.67Zm-20.24-25.57l7.95,10.04-10.03,12.67-7.95-10.04,10.03-12.67Zm0,76.49l-10.03-12.67,7.95-10.04,10.03,12.67-7.95,10.04Z"/>
    </g>
  </g>
  <path class="cls-6" d="m252.02,1.56l-7.43,13.73-7.43,13.73-7.43,13.73-7.43,13.73-7.43,13.73-7.43,13.73-7.43,13.73h0c-4.85,8.97-7.43,19.36-7.43,29.97v877.51h118.85V127.62c0-10.61-2.58-21.01-7.43-29.97h0l-7.43-13.73-7.43-13.73-7.43-13.73-7.43-13.73-7.43-13.73-7.43-13.73-7.43-13.73.03.02Z"/>
  <g>
    <rect class="cls-1" y="1009.18" width="211.2" height="30.11"/>
    <g>
      <path class="cls-2" d="m166.76,1015.96c.58-.69,1.24-1.31,1.95-1.85-.72-.55-1.38-1.16-1.95-1.85-.58.69-1.24,1.31-1.95,1.85.72.55,1.38,1.16,1.95,1.85Z"/>
      <path class="cls-2" d="m148.49,1015.96c.58-.69,1.24-1.31,1.95-1.85-.72-.55-1.38-1.16-1.95-1.85-.58.69-1.24,1.31-1.95,1.85.72.55,1.38,1.16,1.95,1.85Z"/>
      <path class="cls-2" d="m148.49,1031.18c-.83,1-1.83,1.84-2.94,2.53,1.11.68,2.11,1.53,2.94,2.53.83-1,1.83-1.84,2.94-2.53-1.11-.68-2.11-1.53-2.94-2.53Z"/>
      <path class="cls-2" d="m185.03,1015.96c.58-.69,1.24-1.31,1.95-1.85-.72-.55-1.38-1.16-1.95-1.85-.58.69-1.24,1.31-1.95,1.85.72.55,1.38,1.16,1.95,1.85Z"/>
      <path class="cls-2" d="m166.76,1031.18c-.83,1-1.83,1.84-2.94,2.53,1.11.68,2.11,1.53,2.94,2.53.83-1,1.83-1.84,2.94-2.53-1.11-.68-2.11-1.53-2.94-2.53Z"/>
      <path class="cls-2" d="m185.03,1036.23c.83-1,1.83-1.84,2.94-2.53-1.11-.68-2.11-1.53-2.94-2.53-.83,1-1.83,1.84-2.94,2.53,1.11.68,2.11,1.53,2.94,2.53Z"/>
      <path class="cls-2" d="m205.14,1009.18c.58-1.4.92-2.92.92-4.53,0-6.57-5.32-11.89-11.89-11.89-3.67,0-6.95,1.67-9.14,4.28-2.18-2.62-5.46-4.28-9.14-4.28s-6.95,1.67-9.14,4.28c-2.18-2.62-5.46-4.28-9.14-4.28s-6.95,1.67-9.14,4.28c-2.18-2.62-5.46-4.28-9.14-4.28-3.95,0-7.44,1.93-9.6,4.89h53.48c9.09,0,17.11,4.57,21.91,11.53h.02Z"/>
      <path class="cls-2" d="m183.23,1050.84h-53.47c2.16,2.96,5.65,4.89,9.59,4.89,3.67,0,6.95-1.67,9.14-4.28,2.18,2.62,5.46,4.28,9.14,4.28s6.95-1.67,9.14-4.28c2.18,2.62,5.46,4.28,9.14,4.28s6.95-1.67,9.14-4.28c2.18,2.62,5.46,4.28,9.14,4.28,6.57,0,11.89-5.32,11.89-11.89,0-1.61-.32-3.15-.9-4.55-4.79,6.97-12.82,11.55-21.92,11.55h-.03Z"/>
      <path class="cls-3" d="m205.15,1039.29c-.97-2.33-2.66-4.28-4.79-5.59,3.41-2.09,5.69-5.84,5.69-10.13,0-3.86-1.85-7.29-4.71-9.46,1.67-1.27,2.98-2.97,3.79-4.93-4.8-6.96-12.82-11.53-21.91-11.53h-53.48c-1.27,1.74-2.08,3.84-2.25,6.12-2.12-1.14-4.54-1.79-7.11-1.79H37.41c-8.32,0-15.14,6.81-15.14,15.14v13.71c0,8.32,6.81,15.14,15.14,15.14h82.98c2.56,0,4.97-.65,7.08-1.78.07,2.49.91,4.79,2.28,6.67h53.47c9.1,0,17.13-4.58,21.92-11.55v-.02Zm-20.12-27.03c.58.69,1.24,1.31,1.95,1.85-.72.55-1.38,1.16-1.95,1.85-.58-.69-1.24-1.31-1.95-1.85.72-.55,1.38-1.16,1.95-1.85Zm-18.27,0c.58.69,1.24,1.31,1.95,1.85-.72.55-1.38,1.16-1.95,1.85-.58-.69-1.24-1.31-1.95-1.85.72-.55,1.38-1.16,1.95-1.85Zm-18.27,0c.58.69,1.24,1.31,1.95,1.85-.72.55-1.38,1.16-1.95,1.85-.58-.69-1.24-1.31-1.95-1.85.72-.55,1.38-1.16,1.95-1.85Zm0,23.97c-.83-1-1.83-1.84-2.94-2.53,1.11-.68,2.11-1.53,2.94-2.53.83,1,1.83,1.84,2.94,2.53-1.11.68-2.11,1.53-2.94,2.53Zm18.27,0c-.83-1-1.83-1.84-2.94-2.53,1.11-.68,2.11-1.53,2.94-2.53.83,1,1.83,1.84,2.94,2.53-1.11.68-2.11,1.53-2.94,2.53Zm18.27-5.05c.83,1,1.83,1.84,2.94,2.53-1.11.68-2.11,1.53-2.94,2.53-.83-1-1.83-1.84-2.94-2.53,1.11-.68,2.11-1.53,2.94-2.53Z"/>
    </g>
  </g>
  <rect class="cls-1" x="290.87" y="1009.18" width="211.2" height="30.11"/>
  <g>
    <path class="cls-2" d="m335.31,1015.96c-.58-.69-1.24-1.31-1.95-1.85.72-.55,1.38-1.16,1.95-1.85.58.69,1.24,1.31,1.95,1.85-.72.55-1.38,1.16-1.95,1.85Z"/>
    <path class="cls-2" d="m353.58,1015.96c-.58-.69-1.24-1.31-1.95-1.85.72-.55,1.38-1.16,1.95-1.85.58.69,1.24,1.31,1.95,1.85-.72.55-1.38,1.16-1.95,1.85Z"/>
    <path class="cls-2" d="m353.58,1031.18c.83,1,1.83,1.84,2.94,2.53-1.11.68-2.11,1.53-2.94,2.53-.83-1-1.83-1.84-2.94-2.53,1.11-.68,2.11-1.53,2.94-2.53Z"/>
    <path class="cls-2" d="m317.04,1015.96c-.58-.69-1.24-1.31-1.95-1.85.72-.55,1.38-1.16,1.95-1.85.58.69,1.24,1.31,1.95,1.85-.72.55-1.38,1.16-1.95,1.85Z"/>
    <path class="cls-2" d="m335.31,1031.18c.83,1,1.83,1.84,2.94,2.53-1.11.68-2.11,1.53-2.94,2.53-.83-1-1.83-1.84-2.94-2.53,1.11-.68,2.11-1.53,2.94-2.53Z"/>
    <path class="cls-2" d="m317.04,1036.23c-.83-1-1.83-1.84-2.94-2.53,1.11-.68,2.11-1.53,2.94-2.53.83,1,1.83,1.84,2.94,2.53-1.11.68-2.11,1.53-2.94,2.53Z"/>
    <path class="cls-2" d="m296.93,1009.18c-.58-1.4-.92-2.92-.92-4.53,0-6.57,5.32-11.89,11.89-11.89,3.67,0,6.95,1.67,9.14,4.28,2.18-2.62,5.46-4.28,9.14-4.28s6.95,1.67,9.14,4.28c2.18-2.62,5.46-4.28,9.14-4.28s6.95,1.67,9.14,4.28c2.18-2.62,5.46-4.28,9.14-4.28,3.95,0,7.44,1.93,9.6,4.89h-53.48c-9.09,0-17.11,4.57-21.91,11.53h-.02Z"/>
    <path class="cls-2" d="m318.84,1050.84h53.47c-2.16,2.96-5.65,4.89-9.59,4.89-3.67,0-6.95-1.67-9.14-4.28-2.18,2.62-5.46,4.28-9.14,4.28s-6.95-1.67-9.14-4.28c-2.18,2.62-5.46,4.28-9.14,4.28s-6.95-1.67-9.14-4.28c-2.18,2.62-5.46,4.28-9.14,4.28-6.57,0-11.89-5.32-11.89-11.89,0-1.61.32-3.15.9-4.55,4.79,6.97,12.82,11.55,21.92,11.55h.03Z"/>
    <path class="cls-3" d="m318.84,1050.84h53.47c1.37-1.88,2.21-4.18,2.28-6.67,2.12,1.13,4.53,1.78,7.08,1.78h82.98c8.32,0,15.14-6.81,15.14-15.14v-13.71c0-8.32-6.81-15.14-15.14-15.14h-82.98c-2.57,0-4.99.65-7.11,1.79-.17-2.28-.98-4.38-2.25-6.12h-53.48c-9.09,0-17.11,4.57-21.91,11.53.81,1.96,2.12,3.66,3.79,4.93-2.86,2.17-4.71,5.6-4.71,9.46,0,4.29,2.28,8.04,5.69,10.13-2.13,1.31-3.82,3.26-4.79,5.59,4.79,6.97,12.82,11.55,21.92,11.55l.02.02Zm.16-36.73c-.72.55-1.38,1.16-1.95,1.85-.58-.69-1.24-1.31-1.95-1.85.72-.55,1.38-1.16,1.95-1.85.58.69,1.24,1.31,1.95,1.85Zm18.27,0c-.72.55-1.38,1.16-1.95,1.85-.58-.69-1.24-1.31-1.95-1.85.72-.55,1.38-1.16,1.95-1.85.58.69,1.24,1.31,1.95,1.85Zm18.27,0c-.72.55-1.38,1.16-1.95,1.85-.58-.69-1.24-1.31-1.95-1.85.72-.55,1.38-1.16,1.95-1.85.58.69,1.24,1.31,1.95,1.85Zm-4.89,19.59c1.11-.68,2.11-1.53,2.94-2.53.83,1,1.83,1.84,2.94,2.53-1.11.68-2.11,1.53-2.94,2.53-.83-1-1.83-1.84-2.94-2.53Zm-18.27,0c1.11-.68,2.11-1.53,2.94-2.53.83,1,1.83,1.84,2.94,2.53-1.11.68-2.11,1.53-2.94,2.53-.83-1-1.83-1.84-2.94-2.53Zm-12.4,0c-1.11.68-2.11,1.53-2.94,2.53-.83-1-1.83-1.84-2.94-2.53,1.11-.68,2.11-1.53,2.94-2.53.83,1,1.83,1.84,2.94,2.53Z"/>
  </g>
  <g>
    <path class="cls-4" d="m294.24,869.28h-.93c-6.08,3.34-12.02,3.09-16.91.37,4.96-6.54,7.97-15.14,7.97-24.57,0-8.71-2.57-16.71-6.87-23.04v1.09c5.64,14.05-.68,27.53-11.65,31.95-.73-2.67-1.13-5.57-1.13-8.61v-10.68c0-18.08,13.94-32.74,27.41-24.79h1.85c-5.37-4.88-12.1-7.8-19.43-7.8-8.88,0-16.9,4.28-22.65,11.16-5.75-6.88-13.77-11.16-22.65-11.16-7.45,0-14.29,3.01-19.69,8.04h.93c14.66-8.06,28.6,4.74,28.6,22.82v10.68c0,3.12-.42,6.14-1.18,8.96-9.62-5.37-15.3-17.42-10.23-29.17v-2.17c-4.17,6.28-6.67,14.16-6.67,22.73s2.72,17.2,7.26,23.61c-4.84,3.47-10.75,4.27-16.58.83h-1.85c4.69,4.27,10.43,7.03,16.69,7.66-3.48,5.95-5.51,13.14-5.51,20.89,0,8.71,2.57,16.72,6.87,23.04v-1.09c-6.89-17.15,4.05-33.46,19.51-33.46h9.13c15.46,0,27.99,16.3,21.19,32.07v2.17c4.17-6.28,6.67-14.16,6.67-22.73,0-7.83-2.08-15.1-5.63-21.08,5.81-.9,11.12-3.65,15.5-7.72h-.02Z"/>
    <path class="cls-4" d="m210.97,745.1h.93c6.08-3.34,12.02-3.09,16.91-.37-4.96,6.54-7.97,15.14-7.97,24.57,0,8.71,2.57,16.71,6.87,23.04v-1.09c-5.64-14.05.68-27.53,11.65-31.95.73,2.67,1.13,5.57,1.13,8.61v10.68c0,18.08-13.94,32.74-27.41,24.79h-1.85c5.37,4.88,12.1,7.8,19.43,7.8,8.88,0,16.9-4.28,22.65-11.16,5.75,6.88,13.77,11.16,22.65,11.16,7.45,0,14.29-3.01,19.69-8.04h-.93c-14.66,8.06-28.6-4.74-28.6-22.82v-10.68c0-3.12.42-6.14,1.18-8.96,9.62,5.37,15.3,17.42,10.23,29.17v2.17c4.17-6.28,6.67-14.16,6.67-22.73s-2.72-17.2-7.26-23.61c4.84-3.47,10.75-4.27,16.58-.83h1.85c-4.69-4.27-10.43-7.03-16.69-7.66,3.48-5.95,5.51-13.14,5.51-20.89,0-8.71-2.57-16.72-6.87-23.04v1.09c6.89,17.15-4.05,33.46-19.51,33.46h-9.13c-15.46,0-27.99-16.3-21.19-32.07v-2.17c-4.17,6.28-6.67,14.16-6.67,22.73,0,7.83,2.08,15.1,5.63,21.08-5.81.9-11.12,3.65-15.5,7.72h.02Z"/>
    <path class="cls-4" d="m294.32,565.91h-.93c-6.08,3.34-12.02,3.09-16.91.37,4.96-6.54,7.97-15.14,7.97-24.57,0-8.71-2.57-16.71-6.87-23.04v1.09c5.64,14.05-.68,27.53-11.65,31.95-.73-2.67-1.13-5.57-1.13-8.61v-10.68c0-18.08,13.94-32.74,27.41-24.79h1.85c-5.37-4.88-12.1-7.8-19.43-7.8-8.88,0-16.9,4.28-22.65,11.16-5.75-6.88-13.77-11.16-22.65-11.16-7.45,0-14.29,3.01-19.69,8.04h.93c14.66-8.06,28.6,4.74,28.6,22.82v10.68c0,3.12-.42,6.14-1.18,8.96-9.62-5.37-15.3-17.42-10.23-29.17v-2.17c-4.17,6.28-6.67,14.16-6.67,22.73s2.72,17.2,7.26,23.61c-4.84,3.47-10.75,4.27-16.58.83h-1.85c4.69,4.27,10.43,7.03,16.69,7.66-3.48,5.95-5.51,13.14-5.51,20.89,0,8.71,2.57,16.72,6.87,23.04v-1.09c-6.89-17.15,4.05-33.46,19.51-33.46h9.13c15.46,0,27.99,16.3,21.19,32.07v2.17c4.17-6.28,6.67-14.16,6.67-22.73,0-7.83-2.08-15.1-5.63-21.08,5.81-.9,11.12-3.65,15.5-7.72h-.02Z"/>
    <path class="cls-4" d="m211.04,441.72h.93c6.08-3.34,12.02-3.09,16.91-.37-4.96,6.54-7.97,15.14-7.97,24.57,0,8.71,2.57,16.71,6.87,23.04v-1.09c-5.64-14.05.68-27.53,11.65-31.95.73,2.67,1.13,5.57,1.13,8.61v10.68c0,18.08-13.94,32.74-27.41,24.79h-1.85c5.37,4.88,12.1,7.8,19.43,7.8,8.88,0,16.9-4.28,22.65-11.16,5.75,6.88,13.77,11.16,22.65,11.16,7.45,0,14.29-3.01,19.69-8.04h-.93c-14.66,8.06-28.6-4.74-28.6-22.82v-10.68c0-3.12.42-6.14,1.18-8.96,9.62,5.37,15.3,17.42,10.23,29.17v2.17c4.17-6.28,6.67-14.16,6.67-22.73s-2.72-17.2-7.26-23.61c4.84-3.47,10.75-4.27,16.58-.83h1.85c-4.69-4.27-10.43-7.03-16.69-7.66,3.48-5.95,5.51-13.14,5.51-20.89,0-8.71-2.57-16.72-6.87-23.04v1.09c6.89,17.15-4.05,33.46-19.51,33.46h-9.13c-15.46,0-27.99-16.3-21.19-32.07v-2.17c-4.17,6.28-6.67,14.16-6.67,22.73,0,7.83,2.08,15.1,5.63,21.08-5.81.9-11.12,3.65-15.5,7.72h.02Z"/>
  </g>
  <polygon class="cls-9" points="306.66 1055.98 251.68 1087.72 196.71 1055.98 196.71 992.5 251.68 960.76 306.66 992.5 306.66 1055.98"/>
  <g>
    <g>
      <polygon class="cls-10" points="273.19 984.75 227.59 984.75 204.8 1024.24 227.59 1063.73 273.19 1063.73 295.99 1024.24 273.19 984.75"/>
      <polygon class="cls-11" points="250.75 1020.51 249.38 1020.51 249.38 1001.86 241.47 1001.86 241.47 1020.51 234.31 1020.51 234.31 1001.86 226.41 1001.86 226.41 1020.51 224.81 1020.51 224.81 1025.38 226.41 1025.38 226.41 1044.03 234.31 1044.03 234.31 1025.38 241.47 1025.38 241.47 1044.03 249.38 1044.03 249.38 1025.38 250.75 1025.38 250.75 1020.51"/>
    </g>
    <polygon class="cls-11" points="260.55 1039.17 260.55 1001.86 252.64 1001.86 252.64 1039.17 252.64 1044.03 260.55 1044.03 278.58 1044.03 278.58 1039.17 260.55 1039.17"/>
  </g>
</svg>