<?xml version="1.0" encoding="UTF-8"?>
<svg xmlns="http://www.w3.org/2000/svg" xmlns:xlink="http://www.w3.org/1999/xlink" viewBox="0 0 956.72 1654.19">
  <defs>
    <style>
      .cls-1 {
        fill: url(#_Безымянный_градиент_801-6);
      }

      .cls-1, .cls-2, .cls-3, .cls-4, .cls-5, .cls-6, .cls-7, .cls-8, .cls-9, .cls-10, .cls-11, .cls-12, .cls-13, .cls-14, .cls-15, .cls-16, .cls-17, .cls-18, .cls-19, .cls-20, .cls-21, .cls-22, .cls-23, .cls-24, .cls-25, .cls-26, .cls-27, .cls-28, .cls-29, .cls-30, .cls-31, .cls-32, .cls-33, .cls-34, .cls-35, .cls-36, .cls-37, .cls-38, .cls-39, .cls-40, .cls-41, .cls-42, .cls-43, .cls-44, .cls-45, .cls-46, .cls-47, .cls-48, .cls-49, .cls-50, .cls-51, .cls-52, .cls-53, .cls-54, .cls-55, .cls-56, .cls-57, .cls-58, .cls-59, .cls-60, .cls-61, .cls-62, .cls-63, .cls-64, .cls-65, .cls-66, .cls-67, .cls-68, .cls-69, .cls-70, .cls-71, .cls-72, .cls-73, .cls-74, .cls-75, .cls-76, .cls-77, .cls-78, .cls-79, .cls-80, .cls-81, .cls-82, .cls-83, .cls-84, .cls-85, .cls-86, .cls-87, .cls-88, .cls-89, .cls-90, .cls-91, .cls-92, .cls-93, .cls-94, .cls-95, .cls-96, .cls-97, .cls-98, .cls-99 {
        stroke-width: 0px;
      }

      .cls-2 {
        fill: url(#_Безымянный_градиент_801-20);
      }

      .cls-3 {
        fill: url(#_Безымянный_градиент_801-32);
      }

      .cls-4 {
        fill: url(#_Безымянный_градиент_801-89);
      }

      .cls-5 {
        fill: url(#_Безымянный_градиент_801-13);
      }

      .cls-6 {
        fill: url(#_Безымянный_градиент_801-16);
      }

      .cls-7 {
        fill: url(#_Безымянный_градиент_801-28);
      }

      .cls-8 {
        fill: url(#_Безымянный_градиент_801-54);
      }

      .cls-9 {
        fill: url(#_Безымянный_градиент_801-91);
      }

      .cls-10 {
        fill: url(#_Безымянный_градиент_801-94);
      }

      .cls-11 {
        fill: url(#_Безымянный_градиент_801-14);
      }

      .cls-12 {
        fill: url(#_Безымянный_градиент_801-84);
      }

      .cls-13 {
        fill: url(#_Безымянный_градиент_801-31);
      }

      .cls-14 {
        fill: url(#_Безымянный_градиент_801-61);
      }

      .cls-15 {
        fill: url(#_Безымянный_градиент_801-10);
      }

      .cls-16 {
        fill: url(#_Безымянный_градиент_801-88);
      }

      .cls-17 {
        fill: url(#_Безымянный_градиент_801-34);
      }

      .cls-18 {
        fill: url(#_Безымянный_градиент_801-72);
      }

      .cls-19 {
        fill: url(#_Безымянный_градиент_801-57);
      }

      .cls-20 {
        fill: url(#_Безымянный_градиент_801-70);
      }

      .cls-21 {
        fill: url(#_Безымянный_градиент_801-3);
      }

      .cls-22 {
        fill: url(#_Безымянный_градиент_801-80);
      }

      .cls-23 {
        fill: url(#_Безымянный_градиент_801-90);
      }

      .cls-24 {
        fill: url(#_Безымянный_градиент_801-43);
      }

      .cls-100 {
        fill: url(#_Безымянный_градиент_215);
        mix-blend-mode: darken;
        opacity: .24;
        stroke: url(#_Безымянный_градиент_189);
        stroke-miterlimit: 10;
      }

      .cls-25 {
        fill: url(#_Безымянный_градиент_801-27);
      }

      .cls-26 {
        fill: url(#_Безымянный_градиент_801-11);
      }

      .cls-27 {
        fill: url(#_Безымянный_градиент_801-42);
      }

      .cls-28 {
        fill: url(#_Безымянный_градиент_801-48);
      }

      .cls-29 {
        fill: url(#_Безымянный_градиент_801-47);
      }

      .cls-101 {
        isolation: isolate;
      }

      .cls-30 {
        fill: url(#_Безымянный_градиент_801-37);
      }

      .cls-31 {
        fill: url(#_Безымянный_градиент_801-77);
      }

      .cls-32 {
        fill: url(#_Безымянный_градиент_801-92);
      }

      .cls-33 {
        fill: url(#_Безымянный_градиент_801-79);
      }

      .cls-34 {
        fill: url(#_Безымянный_градиент_801-5);
      }

      .cls-35 {
        fill: #939393;
      }

      .cls-36 {
        fill: url(#_Безымянный_градиент_801-44);
      }

      .cls-37 {
        fill: url(#_Безымянный_градиент_801-41);
      }

      .cls-38 {
        fill: url(#_Безымянный_градиент_801-21);
      }

      .cls-39 {
        fill: url(#_Безымянный_градиент_801-69);
      }

      .cls-40 {
        fill: url(#_Безымянный_градиент_801-53);
      }

      .cls-41 {
        fill: url(#_Безымянный_градиент_801-38);
      }

      .cls-42 {
        fill: url(#_Безымянный_градиент_801-63);
      }

      .cls-43 {
        fill: url(#_Безымянный_градиент_801-71);
      }

      .cls-44 {
        fill: url(#_Безымянный_градиент_801-12);
      }

      .cls-102 {
        opacity: .22;
      }

      .cls-45 {
        fill: url(#_Безымянный_градиент_801-23);
      }

      .cls-46 {
        fill: url(#_Безымянный_градиент_801-9);
      }

      .cls-47 {
        fill: url(#_Безымянный_градиент_801-78);
      }

      .cls-48 {
        fill: url(#_Безымянный_градиент_801-39);
      }

      .cls-49 {
        fill: url(#_Безымянный_градиент_801-68);
      }

      .cls-50 {
        fill: url(#_Безымянный_градиент_801-81);
      }

      .cls-51 {
        fill: url(#_Безымянный_градиент_801-59);
      }

      .cls-52 {
        fill: url(#_Безымянный_градиент_801-36);
      }

      .cls-53 {
        fill: url(#_Безымянный_градиент_801-76);
      }

      .cls-54 {
        fill: #d37f54;
      }

      .cls-55 {
        fill: url(#_Безымянный_градиент_801-25);
      }

      .cls-56 {
        fill: url(#_Безымянный_градиент_801-30);
      }

      .cls-57 {
        fill: url(#_Безымянный_градиент_801-40);
      }

      .cls-58 {
        fill: url(#_Безымянный_градиент_801-85);
      }

      .cls-59 {
        fill: url(#_Безымянный_градиент_801-52);
      }

      .cls-60 {
        fill: url(#_Безымянный_градиент_801-22);
      }

      .cls-103 {
        mix-blend-mode: color-burn;
        opacity: .21;
      }

      .cls-61 {
        fill: url(#_Безымянный_градиент_801-65);
      }

      .cls-62 {
        fill: url(#_Безымянный_градиент_801-86);
      }

      .cls-63 {
        fill: url(#_Безымянный_градиент_801-2);
      }

      .cls-64 {
        fill: url(#_Безымянный_градиент_801-29);
      }

      .cls-65 {
        fill: url(#_Безымянный_градиент_801-26);
      }

      .cls-66 {
        fill: #4d5eb2;
      }

      .cls-67 {
        fill: url(#_Безымянный_градиент_801-51);
      }

      .cls-68 {
        fill: #646fb2;
      }

      .cls-69 {
        fill: url(#_Безымянный_градиент_801-75);
      }

      .cls-70 {
        fill: url(#_Безымянный_градиент_801-50);
      }

      .cls-71 {
        fill: url(#_Безымянный_градиент_801-45);
      }

      .cls-72 {
        fill: url(#_Безымянный_градиент_801-4);
      }

      .cls-73 {
        fill: url(#_Безымянный_градиент_801-7);
      }

      .cls-74 {
        fill: url(#_Безымянный_градиент_801-73);
      }

      .cls-75 {
        fill: url(#_Безымянный_градиент_801-93);
      }

      .cls-76 {
        fill: #c6c6c6;
      }

      .cls-77 {
        fill: url(#_Безымянный_градиент_801-55);
      }

      .cls-78 {
        fill: url(#_Безымянный_градиент_801-18);
      }

      .cls-79 {
        fill: url(#_Безымянный_градиент_801-62);
      }

      .cls-80 {
        fill: url(#_Безымянный_градиент_801-66);
      }

      .cls-81 {
        fill: url(#_Безымянный_градиент_801-64);
      }

      .cls-82 {
        fill: url(#_Безымянный_градиент_801-46);
      }

      .cls-83 {
        fill: url(#_Безымянный_градиент_801-87);
      }

      .cls-84 {
        fill: url(#_Безымянный_градиент_801-82);
      }

      .cls-85 {
        fill: url(#_Безымянный_градиент_801-33);
      }

      .cls-86 {
        fill: url(#_Безымянный_градиент_801);
      }

      .cls-87 {
        fill: url(#_Безымянный_градиент_801-49);
      }

      .cls-88 {
        fill: url(#_Безымянный_градиент_801-56);
      }

      .cls-89 {
        fill: url(#_Безымянный_градиент_801-24);
      }

      .cls-90 {
        fill: url(#_Безымянный_градиент_801-8);
      }

      .cls-91 {
        fill: url(#_Безымянный_градиент_801-15);
      }

      .cls-92 {
        fill: url(#_Безымянный_градиент_801-74);
      }

      .cls-93 {
        fill: url(#_Безымянный_градиент_801-67);
      }

      .cls-94 {
        fill: url(#_Безымянный_градиент_801-19);
      }

      .cls-95 {
        fill: url(#_Безымянный_градиент_801-83);
      }

      .cls-96 {
        fill: url(#_Безымянный_градиент_801-60);
      }

      .cls-97 {
        fill: url(#_Безымянный_градиент_801-58);
      }

      .cls-98 {
        fill: url(#_Безымянный_градиент_801-17);
      }

      .cls-99 {
        fill: url(#_Безымянный_градиент_801-35);
      }
    </style>
    <linearGradient id="_Безымянный_градиент_215" data-name="Безымянный градиент 215" x1=".5" y1="870.83" x2="956.22" y2="870.83" gradientUnits="userSpaceOnUse">
      <stop offset="0" stop-color="#fff"/>
      <stop offset=".36" stop-color="#eaeaea"/>
      <stop offset=".9" stop-color="#000"/>
    </linearGradient>
    <radialGradient id="_Безымянный_градиент_189" data-name="Безымянный градиент 189" cx="478.36" cy="870.83" fx="478.36" fy="870.83" r="649.03" gradientUnits="userSpaceOnUse">
      <stop offset="0" stop-color="#fff"/>
      <stop offset=".05" stop-color="#000"/>
    </radialGradient>
    <linearGradient id="_Безымянный_градиент_801" data-name="Безымянный градиент 801" x1="397.3" y1="446.49" x2="591.56" y2="446.49" gradientTransform="translate(976.78 717.47) rotate(-180)" gradientUnits="userSpaceOnUse">
      <stop offset="0" stop-color="#000"/>
      <stop offset=".23" stop-color="#7d7d7d"/>
      <stop offset=".36" stop-color="#fff"/>
      <stop offset=".49" stop-color="#898989"/>
      <stop offset="1" stop-color="#000"/>
    </linearGradient>
    <linearGradient id="_Безымянный_градиент_801-2" data-name="Безымянный градиент 801" x1="397.48" y1="449.02" x2="591.38" y2="449.02" xlink:href="#_Безымянный_градиент_801"/>
    <linearGradient id="_Безымянный_градиент_801-3" data-name="Безымянный градиент 801" x1="397.66" y1="451.56" x2="591.2" y2="451.56" xlink:href="#_Безымянный_градиент_801"/>
    <linearGradient id="_Безымянный_градиент_801-4" data-name="Безымянный градиент 801" x1="397.84" y1="454.1" x2="591.01" y2="454.1" xlink:href="#_Безымянный_градиент_801"/>
    <linearGradient id="_Безымянный_градиент_801-5" data-name="Безымянный градиент 801" x1="398.02" y1="456.63" x2="590.83" y2="456.63" xlink:href="#_Безымянный_градиент_801"/>
    <linearGradient id="_Безымянный_градиент_801-6" data-name="Безымянный градиент 801" x1="398.2" y1="459.17" x2="590.65" y2="459.17" xlink:href="#_Безымянный_градиент_801"/>
    <linearGradient id="_Безымянный_градиент_801-7" data-name="Безымянный градиент 801" x1="398.39" y1="461.7" x2="590.47" y2="461.7" xlink:href="#_Безымянный_градиент_801"/>
    <linearGradient id="_Безымянный_градиент_801-8" data-name="Безымянный градиент 801" x1="398.57" y1="464.24" x2="590.29" y2="464.24" xlink:href="#_Безымянный_градиент_801"/>
    <linearGradient id="_Безымянный_градиент_801-9" data-name="Безымянный градиент 801" x1="398.75" y1="466.78" x2="590.11" y2="466.78" xlink:href="#_Безымянный_градиент_801"/>
    <linearGradient id="_Безымянный_градиент_801-10" data-name="Безымянный градиент 801" x1="398.93" y1="469.31" x2="589.93" y2="469.31" xlink:href="#_Безымянный_градиент_801"/>
    <linearGradient id="_Безымянный_градиент_801-11" data-name="Безымянный градиент 801" x1="399.11" y1="471.85" x2="589.75" y2="471.85" xlink:href="#_Безымянный_градиент_801"/>
    <linearGradient id="_Безымянный_градиент_801-12" data-name="Безымянный градиент 801" x1="399.29" y1="474.39" x2="589.56" y2="474.39" xlink:href="#_Безымянный_градиент_801"/>
    <linearGradient id="_Безымянный_градиент_801-13" data-name="Безымянный градиент 801" x1="399.47" y1="476.92" x2="589.38" y2="476.92" xlink:href="#_Безымянный_градиент_801"/>
    <linearGradient id="_Безымянный_градиент_801-14" data-name="Безымянный градиент 801" x1="399.65" y1="479.46" x2="589.2" y2="479.46" xlink:href="#_Безымянный_градиент_801"/>
    <linearGradient id="_Безымянный_градиент_801-15" data-name="Безымянный градиент 801" x1="399.84" y1="481.99" x2="589.02" y2="481.99" xlink:href="#_Безымянный_градиент_801"/>
    <linearGradient id="_Безымянный_градиент_801-16" data-name="Безымянный градиент 801" x1="400.02" y1="484.53" x2="588.84" y2="484.53" xlink:href="#_Безымянный_градиент_801"/>
    <linearGradient id="_Безымянный_градиент_801-17" data-name="Безымянный градиент 801" x1="400.2" y1="487.07" x2="588.66" y2="487.07" xlink:href="#_Безымянный_градиент_801"/>
    <linearGradient id="_Безымянный_градиент_801-18" data-name="Безымянный градиент 801" x1="400.38" y1="489.6" x2="588.48" y2="489.6" xlink:href="#_Безымянный_градиент_801"/>
    <linearGradient id="_Безымянный_градиент_801-19" data-name="Безымянный градиент 801" x1="400.56" y1="492.14" x2="588.29" y2="492.14" xlink:href="#_Безымянный_градиент_801"/>
    <linearGradient id="_Безымянный_градиент_801-20" data-name="Безымянный градиент 801" x1="400.74" y1="494.68" x2="588.11" y2="494.68" xlink:href="#_Безымянный_градиент_801"/>
    <linearGradient id="_Безымянный_градиент_801-21" data-name="Безымянный градиент 801" x1="400.92" y1="497.21" x2="587.93" y2="497.21" xlink:href="#_Безымянный_градиент_801"/>
    <linearGradient id="_Безымянный_градиент_801-22" data-name="Безымянный градиент 801" x1="401.11" y1="499.75" x2="587.75" y2="499.75" xlink:href="#_Безымянный_градиент_801"/>
    <linearGradient id="_Безымянный_градиент_801-23" data-name="Безымянный градиент 801" x1="401.29" y1="502.29" x2="587.57" y2="502.29" xlink:href="#_Безымянный_градиент_801"/>
    <linearGradient id="_Безымянный_градиент_801-24" data-name="Безымянный градиент 801" x1="401.47" y1="504.82" x2="587.39" y2="504.82" xlink:href="#_Безымянный_градиент_801"/>
    <linearGradient id="_Безымянный_градиент_801-25" data-name="Безымянный градиент 801" x1="401.65" y1="507.36" x2="587.21" y2="507.36" xlink:href="#_Безымянный_градиент_801"/>
    <linearGradient id="_Безымянный_градиент_801-26" data-name="Безымянный градиент 801" x1="401.83" y1="509.89" x2="587.02" y2="509.89" xlink:href="#_Безымянный_градиент_801"/>
    <linearGradient id="_Безымянный_градиент_801-27" data-name="Безымянный градиент 801" x1="402.01" y1="512.43" x2="586.84" y2="512.43" xlink:href="#_Безымянный_градиент_801"/>
    <linearGradient id="_Безымянный_градиент_801-28" data-name="Безымянный градиент 801" x1="402.19" y1="514.97" x2="586.66" y2="514.97" xlink:href="#_Безымянный_градиент_801"/>
    <linearGradient id="_Безымянный_градиент_801-29" data-name="Безымянный градиент 801" x1="402.37" y1="517.5" x2="586.48" y2="517.5" xlink:href="#_Безымянный_градиент_801"/>
    <linearGradient id="_Безымянный_градиент_801-30" data-name="Безымянный градиент 801" x1="402.56" y1="520.04" x2="586.3" y2="520.04" xlink:href="#_Безымянный_градиент_801"/>
    <linearGradient id="_Безымянный_градиент_801-31" data-name="Безымянный градиент 801" x1="402.74" y1="522.58" x2="586.12" y2="522.58" xlink:href="#_Безымянный_градиент_801"/>
    <linearGradient id="_Безымянный_градиент_801-32" data-name="Безымянный градиент 801" x1="402.92" y1="525.11" x2="585.94" y2="525.11" xlink:href="#_Безымянный_градиент_801"/>
    <linearGradient id="_Безымянный_градиент_801-33" data-name="Безымянный градиент 801" x1="403.1" y1="527.65" x2="585.76" y2="527.65" xlink:href="#_Безымянный_градиент_801"/>
    <linearGradient id="_Безымянный_градиент_801-34" data-name="Безымянный градиент 801" x1="403.28" y1="530.18" x2="585.57" y2="530.18" xlink:href="#_Безымянный_градиент_801"/>
    <linearGradient id="_Безымянный_градиент_801-35" data-name="Безымянный градиент 801" x1="403.46" y1="532.72" x2="585.39" y2="532.72" xlink:href="#_Безымянный_градиент_801"/>
    <linearGradient id="_Безымянный_градиент_801-36" data-name="Безымянный градиент 801" x1="403.64" y1="535.26" x2="585.21" y2="535.26" xlink:href="#_Безымянный_градиент_801"/>
    <linearGradient id="_Безымянный_градиент_801-37" data-name="Безымянный градиент 801" x1="403.83" y1="537.79" x2="585.03" y2="537.79" xlink:href="#_Безымянный_градиент_801"/>
    <linearGradient id="_Безымянный_градиент_801-38" data-name="Безымянный градиент 801" x1="404.01" y1="540.33" x2="584.85" y2="540.33" xlink:href="#_Безымянный_градиент_801"/>
    <linearGradient id="_Безымянный_градиент_801-39" data-name="Безымянный градиент 801" x1="404.19" y1="542.87" x2="584.67" y2="542.87" xlink:href="#_Безымянный_градиент_801"/>
    <linearGradient id="_Безымянный_градиент_801-40" data-name="Безымянный градиент 801" x1="404.37" y1="545.4" x2="584.49" y2="545.4" xlink:href="#_Безымянный_градиент_801"/>
    <linearGradient id="_Безымянный_градиент_801-41" data-name="Безымянный градиент 801" x1="404.55" y1="547.94" x2="584.3" y2="547.94" xlink:href="#_Безымянный_градиент_801"/>
    <linearGradient id="_Безымянный_градиент_801-42" data-name="Безымянный градиент 801" x1="404.73" y1="550.48" x2="584.12" y2="550.48" xlink:href="#_Безымянный_градиент_801"/>
    <linearGradient id="_Безымянный_градиент_801-43" data-name="Безымянный градиент 801" x1="404.91" y1="553.01" x2="583.94" y2="553.01" xlink:href="#_Безымянный_градиент_801"/>
    <linearGradient id="_Безымянный_градиент_801-44" data-name="Безымянный градиент 801" x1="405.09" y1="555.55" x2="583.76" y2="555.55" xlink:href="#_Безымянный_градиент_801"/>
    <linearGradient id="_Безымянный_градиент_801-45" data-name="Безымянный градиент 801" x1="405.28" y1="558.08" x2="583.58" y2="558.08" xlink:href="#_Безымянный_градиент_801"/>
    <linearGradient id="_Безымянный_градиент_801-46" data-name="Безымянный градиент 801" x1="405.46" y1="560.62" x2="583.4" y2="560.62" xlink:href="#_Безымянный_градиент_801"/>
    <linearGradient id="_Безымянный_градиент_801-47" data-name="Безымянный градиент 801" x1="405.64" y1="563.16" x2="583.22" y2="563.16" xlink:href="#_Безымянный_градиент_801"/>
    <linearGradient id="_Безымянный_градиент_801-48" data-name="Безымянный градиент 801" x1="385.22" y1="30.56" x2="579.48" y2="30.56" gradientTransform="matrix(1,0,0,1,0,0)" xlink:href="#_Безымянный_градиент_801"/>
    <linearGradient id="_Безымянный_градиент_801-49" data-name="Безымянный градиент 801" x1="385.4" y1="33.09" x2="579.3" y2="33.09" gradientTransform="matrix(1,0,0,1,0,0)" xlink:href="#_Безымянный_градиент_801"/>
    <linearGradient id="_Безымянный_градиент_801-50" data-name="Безымянный градиент 801" x1="385.58" y1="35.63" x2="579.12" y2="35.63" gradientTransform="matrix(1,0,0,1,0,0)" xlink:href="#_Безымянный_градиент_801"/>
    <linearGradient id="_Безымянный_градиент_801-51" data-name="Безымянный градиент 801" x1="385.76" y1="38.17" x2="578.93" y2="38.17" gradientTransform="matrix(1,0,0,1,0,0)" xlink:href="#_Безымянный_градиент_801"/>
    <linearGradient id="_Безымянный_градиент_801-52" data-name="Безымянный градиент 801" x1="385.94" y1="40.7" x2="578.75" y2="40.7" gradientTransform="matrix(1,0,0,1,0,0)" xlink:href="#_Безымянный_градиент_801"/>
    <linearGradient id="_Безымянный_градиент_801-53" data-name="Безымянный градиент 801" x1="386.12" y1="43.24" x2="578.57" y2="43.24" gradientTransform="matrix(1,0,0,1,0,0)" xlink:href="#_Безымянный_градиент_801"/>
    <linearGradient id="_Безымянный_градиент_801-54" data-name="Безымянный градиент 801" x1="386.31" y1="45.77" x2="578.39" y2="45.77" gradientTransform="matrix(1,0,0,1,0,0)" xlink:href="#_Безымянный_градиент_801"/>
    <linearGradient id="_Безымянный_градиент_801-55" data-name="Безымянный градиент 801" x1="386.49" y1="48.31" x2="578.21" y2="48.31" gradientTransform="matrix(1,0,0,1,0,0)" xlink:href="#_Безымянный_градиент_801"/>
    <linearGradient id="_Безымянный_градиент_801-56" data-name="Безымянный градиент 801" x1="386.67" y1="50.85" x2="578.03" y2="50.85" gradientTransform="matrix(1,0,0,1,0,0)" xlink:href="#_Безымянный_градиент_801"/>
    <linearGradient id="_Безымянный_градиент_801-57" data-name="Безымянный градиент 801" x1="386.85" y1="53.38" x2="577.85" y2="53.38" gradientTransform="matrix(1,0,0,1,0,0)" xlink:href="#_Безымянный_градиент_801"/>
    <linearGradient id="_Безымянный_градиент_801-58" data-name="Безымянный градиент 801" x1="387.03" y1="55.92" x2="577.67" y2="55.92" gradientTransform="matrix(1,0,0,1,0,0)" xlink:href="#_Безымянный_градиент_801"/>
    <linearGradient id="_Безымянный_градиент_801-59" data-name="Безымянный градиент 801" x1="387.21" y1="58.46" x2="577.48" y2="58.46" gradientTransform="matrix(1,0,0,1,0,0)" xlink:href="#_Безымянный_градиент_801"/>
    <linearGradient id="_Безымянный_градиент_801-60" data-name="Безымянный градиент 801" x1="387.39" y1="60.99" x2="577.3" y2="60.99" gradientTransform="matrix(1,0,0,1,0,0)" xlink:href="#_Безымянный_градиент_801"/>
    <linearGradient id="_Безымянный_градиент_801-61" data-name="Безымянный градиент 801" x1="387.57" y1="63.53" x2="577.12" y2="63.53" gradientTransform="matrix(1,0,0,1,0,0)" xlink:href="#_Безымянный_градиент_801"/>
    <linearGradient id="_Безымянный_градиент_801-62" data-name="Безымянный градиент 801" x1="387.76" y1="66.07" x2="576.94" y2="66.07" gradientTransform="matrix(1,0,0,1,0,0)" xlink:href="#_Безымянный_градиент_801"/>
    <linearGradient id="_Безымянный_градиент_801-63" data-name="Безымянный градиент 801" x1="387.94" y1="68.6" x2="576.76" y2="68.6" gradientTransform="matrix(1,0,0,1,0,0)" xlink:href="#_Безымянный_градиент_801"/>
    <linearGradient id="_Безымянный_градиент_801-64" data-name="Безымянный градиент 801" x1="388.12" y1="71.14" x2="576.58" y2="71.14" gradientTransform="matrix(1,0,0,1,0,0)" xlink:href="#_Безымянный_градиент_801"/>
    <linearGradient id="_Безымянный_градиент_801-65" data-name="Безымянный градиент 801" x1="388.3" y1="73.67" x2="576.4" y2="73.67" gradientTransform="matrix(1,0,0,1,0,0)" xlink:href="#_Безымянный_градиент_801"/>
    <linearGradient id="_Безымянный_градиент_801-66" data-name="Безымянный градиент 801" x1="388.48" y1="76.21" x2="576.21" y2="76.21" gradientTransform="matrix(1,0,0,1,0,0)" xlink:href="#_Безымянный_градиент_801"/>
    <linearGradient id="_Безымянный_градиент_801-67" data-name="Безымянный градиент 801" x1="388.66" y1="78.75" x2="576.03" y2="78.75" gradientTransform="matrix(1,0,0,1,0,0)" xlink:href="#_Безымянный_градиент_801"/>
    <linearGradient id="_Безымянный_градиент_801-68" data-name="Безымянный градиент 801" x1="388.84" y1="81.28" x2="575.85" y2="81.28" gradientTransform="matrix(1,0,0,1,0,0)" xlink:href="#_Безымянный_градиент_801"/>
    <linearGradient id="_Безымянный_градиент_801-69" data-name="Безымянный градиент 801" x1="389.03" y1="83.82" x2="575.67" y2="83.82" gradientTransform="matrix(1,0,0,1,0,0)" xlink:href="#_Безымянный_градиент_801"/>
    <linearGradient id="_Безымянный_градиент_801-70" data-name="Безымянный градиент 801" x1="389.21" y1="86.36" x2="575.49" y2="86.36" gradientTransform="matrix(1,0,0,1,0,0)" xlink:href="#_Безымянный_градиент_801"/>
    <linearGradient id="_Безымянный_градиент_801-71" data-name="Безымянный градиент 801" x1="389.39" y1="88.89" x2="575.31" y2="88.89" gradientTransform="matrix(1,0,0,1,0,0)" xlink:href="#_Безымянный_градиент_801"/>
    <linearGradient id="_Безымянный_градиент_801-72" data-name="Безымянный градиент 801" x1="389.57" y1="91.43" x2="575.13" y2="91.43" gradientTransform="matrix(1,0,0,1,0,0)" xlink:href="#_Безымянный_градиент_801"/>
    <linearGradient id="_Безымянный_градиент_801-73" data-name="Безымянный градиент 801" x1="389.75" y1="93.96" x2="574.95" y2="93.96" gradientTransform="matrix(1,0,0,1,0,0)" xlink:href="#_Безымянный_градиент_801"/>
    <linearGradient id="_Безымянный_градиент_801-74" data-name="Безымянный градиент 801" x1="389.93" y1="96.5" x2="574.76" y2="96.5" gradientTransform="matrix(1,0,0,1,0,0)" xlink:href="#_Безымянный_градиент_801"/>
    <linearGradient id="_Безымянный_градиент_801-75" data-name="Безымянный градиент 801" x1="390.11" y1="99.04" x2="574.58" y2="99.04" gradientTransform="matrix(1,0,0,1,0,0)" xlink:href="#_Безымянный_градиент_801"/>
    <linearGradient id="_Безымянный_градиент_801-76" data-name="Безымянный градиент 801" x1="390.3" y1="101.57" x2="574.4" y2="101.57" gradientTransform="matrix(1,0,0,1,0,0)" xlink:href="#_Безымянный_градиент_801"/>
    <linearGradient id="_Безымянный_градиент_801-77" data-name="Безымянный градиент 801" x1="390.48" y1="104.11" x2="574.22" y2="104.11" gradientTransform="matrix(1,0,0,1,0,0)" xlink:href="#_Безымянный_градиент_801"/>
    <linearGradient id="_Безымянный_градиент_801-78" data-name="Безымянный градиент 801" x1="390.66" y1="106.65" x2="574.04" y2="106.65" gradientTransform="matrix(1,0,0,1,0,0)" xlink:href="#_Безымянный_градиент_801"/>
    <linearGradient id="_Безымянный_градиент_801-79" data-name="Безымянный градиент 801" x1="390.84" y1="109.18" x2="573.86" y2="109.18" gradientTransform="matrix(1,0,0,1,0,0)" xlink:href="#_Безымянный_градиент_801"/>
    <linearGradient id="_Безымянный_градиент_801-80" data-name="Безымянный градиент 801" x1="391.02" y1="111.72" x2="573.68" y2="111.72" gradientTransform="matrix(1,0,0,1,0,0)" xlink:href="#_Безымянный_градиент_801"/>
    <linearGradient id="_Безымянный_градиент_801-81" data-name="Безымянный градиент 801" x1="391.2" y1="114.26" x2="573.49" y2="114.26" gradientTransform="matrix(1,0,0,1,0,0)" xlink:href="#_Безымянный_градиент_801"/>
    <linearGradient id="_Безымянный_градиент_801-82" data-name="Безымянный градиент 801" x1="391.38" y1="116.79" x2="573.31" y2="116.79" gradientTransform="matrix(1,0,0,1,0,0)" xlink:href="#_Безымянный_градиент_801"/>
    <linearGradient id="_Безымянный_градиент_801-83" data-name="Безымянный градиент 801" x1="391.56" y1="119.33" x2="573.13" y2="119.33" gradientTransform="matrix(1,0,0,1,0,0)" xlink:href="#_Безымянный_градиент_801"/>
    <linearGradient id="_Безымянный_градиент_801-84" data-name="Безымянный градиент 801" x1="391.75" y1="121.86" x2="572.95" y2="121.86" gradientTransform="matrix(1,0,0,1,0,0)" xlink:href="#_Безымянный_градиент_801"/>
    <linearGradient id="_Безымянный_градиент_801-85" data-name="Безымянный градиент 801" x1="391.93" y1="124.4" x2="572.77" y2="124.4" gradientTransform="matrix(1,0,0,1,0,0)" xlink:href="#_Безымянный_градиент_801"/>
    <linearGradient id="_Безымянный_градиент_801-86" data-name="Безымянный градиент 801" x1="392.11" y1="126.94" x2="572.59" y2="126.94" gradientTransform="matrix(1,0,0,1,0,0)" xlink:href="#_Безымянный_градиент_801"/>
    <linearGradient id="_Безымянный_градиент_801-87" data-name="Безымянный градиент 801" x1="392.29" y1="129.47" x2="572.41" y2="129.47" gradientTransform="matrix(1,0,0,1,0,0)" xlink:href="#_Безымянный_градиент_801"/>
    <linearGradient id="_Безымянный_градиент_801-88" data-name="Безымянный градиент 801" x1="392.47" y1="132.01" x2="572.23" y2="132.01" gradientTransform="matrix(1,0,0,1,0,0)" xlink:href="#_Безымянный_градиент_801"/>
    <linearGradient id="_Безымянный_градиент_801-89" data-name="Безымянный градиент 801" x1="392.65" y1="134.55" x2="572.04" y2="134.55" gradientTransform="matrix(1,0,0,1,0,0)" xlink:href="#_Безымянный_градиент_801"/>
    <linearGradient id="_Безымянный_градиент_801-90" data-name="Безымянный градиент 801" x1="392.83" y1="137.08" x2="571.86" y2="137.08" gradientTransform="matrix(1,0,0,1,0,0)" xlink:href="#_Безымянный_градиент_801"/>
    <linearGradient id="_Безымянный_градиент_801-91" data-name="Безымянный градиент 801" x1="393.02" y1="139.62" x2="571.68" y2="139.62" gradientTransform="matrix(1,0,0,1,0,0)" xlink:href="#_Безымянный_градиент_801"/>
    <linearGradient id="_Безымянный_градиент_801-92" data-name="Безымянный градиент 801" x1="393.2" y1="142.15" x2="571.5" y2="142.15" gradientTransform="matrix(1,0,0,1,0,0)" xlink:href="#_Безымянный_градиент_801"/>
    <linearGradient id="_Безымянный_градиент_801-93" data-name="Безымянный градиент 801" x1="393.38" y1="144.69" x2="571.32" y2="144.69" gradientTransform="matrix(1,0,0,1,0,0)" xlink:href="#_Безымянный_градиент_801"/>
    <linearGradient id="_Безымянный_градиент_801-94" data-name="Безымянный градиент 801" x1="393.56" y1="147.23" x2="571.14" y2="147.23" gradientTransform="matrix(1,0,0,1,0,0)" xlink:href="#_Безымянный_градиент_801"/>
  </defs>
  <g class="cls-101">
    <g id="_Слой_1" data-name="Слой 1">
      <g>
        <g>
          <path class="cls-76" d="m478.36,1000.51c261.11,0,472.9,9.46,474.06,21.15-7.99-48.25-28.55-95.78-61.73-140.29l-79.8-107.05c-34.9-46.82-105.97-76.37-183.67-76.37h-297.73c-77.71,0-148.77,29.55-183.67,76.37l-79.8,107.05c-33.17,44.5-53.74,92.02-61.73,140.28,1.3-11.68,213.03-21.14,474.06-21.14Z"/>
          <path class="cls-68" d="m478.36,1053.3c261.64,0,473.77-14.08,474.08-31.46,0-.06-.01-.12-.02-.18-1.16-17.33-212.95-31.36-474.06-31.36S5.6,1004.31,4.3,1021.64c0,.07-.01.14-.02.2.36,17.38,212.47,31.46,474.08,31.46Z"/>
          <path class="cls-66" d="m952.44,1021.84c-.32,17.38-212.45,31.46-474.08,31.46s-473.73-14.08-474.08-31.46c-13.01,116.87,7.57,236.6,61.75,344.38l96.8,192.56c20.25,40.27,57.85,68.24,101.08,76.71,46.12,10.96,124.95,18.19,214.46,18.19s168.35-7.23,214.47-18.19c43.23-8.48,80.83-36.44,101.07-76.71l96.8-192.56c54.18-107.78,74.75-227.52,61.75-344.39Z"/>
          <g>
            <path class="cls-76" d="m478.36,209.26c-67.96,0-125.96-31.49-148.89-75.83v548.14c0,36.51,7.06,72.34,20.43,103.69l4,9.39c56.19,131.79,192.73,131.79,248.92,0l4-9.39c13.37-31.36,20.43-67.19,20.43-103.69V133.43c-22.93,44.34-80.93,75.83-148.89,75.83Z"/>
            <path class="cls-35" d="m630.68,148.35c-.11-9.4-5.58-18.29-15.26-26.21-24.7-20.22-76.79-34.15-137.05-34.15s-112.35,13.93-137.05,34.15c-9.67,7.92-15.15,16.8-15.26,26.18,0,.13,0,.26,0,.39.03,7.61,3.6,14.88,10.05,21.59,21.91,22.78,77.33,38.97,142.27,38.97s120.36-16.18,142.27-38.97c6.45-6.71,10.03-13.99,10.05-21.6,0-.12,0-.23,0-.35Z"/>
          </g>
        </g>
        <g>
          <path class="cls-100" d="m952.44,1021.84c0-.06-.01-.12-.02-.18-7.99-48.25-28.55-95.78-61.73-140.29l-79.8-107.05c-34.9-46.82-105.97-76.37-183.67-76.37h-.46c.32-5.44.49-10.9.49-16.38V161.36c2.21-4.09,3.42-8.32,3.43-12.67,0-.12,0-.23,0-.35-.05-4.3-1.23-8.5-3.42-12.54v-2.37c-.21.4-.44.8-.65,1.2-2.59-4.37-6.37-8.55-11.19-12.5-24.7-20.22-76.79-34.15-137.05-34.15s-112.35,13.93-137.05,34.15c-4.82,3.95-8.6,8.13-11.19,12.5-.21-.4-.44-.79-.65-1.19v2.36c-2.18,4.04-3.37,8.22-3.42,12.52,0,.13,0,.26,0,.39.01,4.35,1.22,8.58,3.43,12.66v520.2c0,5.48.18,10.94.49,16.38h-.47c-77.71,0-148.77,29.55-183.67,76.37l-79.8,107.05c-33.17,44.5-53.73,92.01-61.72,140.26,0,0,0,0,0,.01,0,.07-.01.14-.02.2-13.01,116.87,7.57,236.6,61.75,344.38l96.8,192.56c20.25,40.27,57.85,68.24,101.08,76.71,46.12,10.96,124.95,18.19,214.46,18.19s168.35-7.23,214.47-18.19c43.23-8.48,80.83-36.44,101.07-76.71l96.8-192.56c54.18-107.78,74.75-227.52,61.75-344.39ZM478.36,209.26h0,0Z"/>
          <g class="cls-102">
            <g>
              <ellipse class="cls-54" cx="482.35" cy="272.25" rx="97.13" ry="29.3"/>
              <ellipse class="cls-54" cx="482.35" cy="269.71" rx="96.95" ry="29.24"/>
              <ellipse class="cls-54" cx="482.35" cy="267.17" rx="96.77" ry="29.19"/>
              <ellipse class="cls-54" cx="482.35" cy="264.64" rx="96.59" ry="29.13"/>
              <ellipse class="cls-54" cx="482.35" cy="262.1" rx="96.41" ry="29.08"/>
              <ellipse class="cls-54" cx="482.35" cy="259.56" rx="96.22" ry="29.03"/>
              <ellipse class="cls-54" cx="482.35" cy="257.03" rx="96.04" ry="28.97"/>
              <ellipse class="cls-54" cx="482.35" cy="254.49" rx="95.86" ry="28.92"/>
              <ellipse class="cls-54" cx="482.35" cy="251.95" rx="95.68" ry="28.86"/>
              <ellipse class="cls-54" cx="482.35" cy="249.42" rx="95.5" ry="28.81"/>
              <ellipse class="cls-54" cx="482.35" cy="246.88" rx="95.32" ry="28.75"/>
              <ellipse class="cls-54" cx="482.35" cy="244.35" rx="95.14" ry="28.7"/>
              <ellipse class="cls-54" cx="482.35" cy="241.81" rx="94.95" ry="28.64"/>
              <ellipse class="cls-54" cx="482.35" cy="239.27" rx="94.77" ry="28.59"/>
              <ellipse class="cls-54" cx="482.35" cy="236.74" rx="94.59" ry="28.53"/>
              <ellipse class="cls-54" cx="482.35" cy="234.2" rx="94.41" ry="28.48"/>
              <ellipse class="cls-54" cx="482.35" cy="231.66" rx="94.23" ry="28.42"/>
              <ellipse class="cls-54" cx="482.35" cy="229.13" rx="94.05" ry="28.37"/>
              <ellipse class="cls-54" cx="482.35" cy="226.59" rx="93.87" ry="28.31"/>
              <ellipse class="cls-54" cx="482.35" cy="224.06" rx="93.69" ry="28.26"/>
              <ellipse class="cls-54" cx="482.35" cy="221.52" rx="93.5" ry="28.2"/>
              <ellipse class="cls-54" cx="482.35" cy="218.98" rx="93.32" ry="28.15"/>
              <ellipse class="cls-54" cx="482.35" cy="216.45" rx="93.14" ry="28.1"/>
              <ellipse class="cls-54" cx="482.35" cy="213.91" rx="92.96" ry="28.04"/>
              <ellipse class="cls-54" cx="482.35" cy="211.37" rx="92.78" ry="27.99"/>
              <ellipse class="cls-54" cx="482.35" cy="208.84" rx="92.6" ry="27.93"/>
              <ellipse class="cls-54" cx="482.35" cy="206.3" rx="92.42" ry="27.88"/>
              <ellipse class="cls-54" cx="482.35" cy="203.76" rx="92.23" ry="27.82"/>
              <ellipse class="cls-54" cx="482.35" cy="201.23" rx="92.05" ry="27.77"/>
              <ellipse class="cls-54" cx="482.35" cy="198.69" rx="91.87" ry="27.71"/>
              <ellipse class="cls-54" cx="482.35" cy="196.16" rx="91.69" ry="27.66"/>
              <ellipse class="cls-54" cx="482.35" cy="193.62" rx="91.51" ry="27.6"/>
              <ellipse class="cls-54" cx="482.35" cy="191.08" rx="91.33" ry="27.55"/>
              <ellipse class="cls-54" cx="482.35" cy="188.55" rx="91.15" ry="27.49"/>
              <ellipse class="cls-54" cx="482.35" cy="186.01" rx="90.96" ry="27.44"/>
              <ellipse class="cls-54" cx="482.35" cy="183.47" rx="90.78" ry="27.38"/>
              <ellipse class="cls-54" cx="482.35" cy="180.94" rx="90.6" ry="27.33"/>
              <ellipse class="cls-54" cx="482.35" cy="178.4" rx="90.42" ry="27.27"/>
              <ellipse class="cls-54" cx="482.35" cy="175.87" rx="90.24" ry="27.22"/>
              <ellipse class="cls-54" cx="482.35" cy="173.33" rx="90.06" ry="27.17"/>
              <ellipse class="cls-54" cx="482.35" cy="170.79" rx="89.88" ry="27.11"/>
              <ellipse class="cls-54" cx="482.35" cy="168.26" rx="89.7" ry="27.06"/>
              <ellipse class="cls-54" cx="482.35" cy="165.72" rx="89.51" ry="27"/>
              <ellipse class="cls-54" cx="482.35" cy="163.18" rx="89.33" ry="26.95"/>
              <ellipse class="cls-54" cx="482.35" cy="160.65" rx="89.15" ry="26.89"/>
              <ellipse class="cls-54" cx="482.35" cy="158.11" rx="88.97" ry="26.84"/>
              <ellipse class="cls-54" cx="482.35" cy="155.57" rx="88.79" ry="26.78"/>
            </g>
            <g class="cls-103">
              <ellipse class="cls-86" cx="482.35" cy="270.99" rx="97.13" ry="29.3"/>
              <ellipse class="cls-63" cx="482.35" cy="268.45" rx="96.95" ry="29.24"/>
              <ellipse class="cls-21" cx="482.35" cy="265.91" rx="96.77" ry="29.19"/>
              <ellipse class="cls-72" cx="482.35" cy="263.38" rx="96.59" ry="29.13"/>
              <ellipse class="cls-34" cx="482.35" cy="260.84" rx="96.41" ry="29.08"/>
              <ellipse class="cls-1" cx="482.35" cy="258.31" rx="96.22" ry="29.03"/>
              <ellipse class="cls-73" cx="482.35" cy="255.77" rx="96.04" ry="28.97"/>
              <ellipse class="cls-90" cx="482.35" cy="253.23" rx="95.86" ry="28.92"/>
              <ellipse class="cls-46" cx="482.35" cy="250.7" rx="95.68" ry="28.86"/>
              <ellipse class="cls-15" cx="482.35" cy="248.16" rx="95.5" ry="28.81"/>
              <ellipse class="cls-26" cx="482.35" cy="245.62" rx="95.32" ry="28.75"/>
              <ellipse class="cls-44" cx="482.35" cy="243.09" rx="95.14" ry="28.7"/>
              <ellipse class="cls-5" cx="482.35" cy="240.55" rx="94.95" ry="28.64"/>
              <ellipse class="cls-11" cx="482.35" cy="238.02" rx="94.77" ry="28.59"/>
              <ellipse class="cls-91" cx="482.35" cy="235.48" rx="94.59" ry="28.53"/>
              <ellipse class="cls-6" cx="482.35" cy="232.94" rx="94.41" ry="28.48"/>
              <ellipse class="cls-98" cx="482.35" cy="230.41" rx="94.23" ry="28.42"/>
              <ellipse class="cls-78" cx="482.35" cy="227.87" rx="94.05" ry="28.37"/>
              <ellipse class="cls-94" cx="482.35" cy="225.33" rx="93.87" ry="28.31"/>
              <ellipse class="cls-2" cx="482.35" cy="222.8" rx="93.69" ry="28.26"/>
              <ellipse class="cls-38" cx="482.35" cy="220.26" rx="93.5" ry="28.2"/>
              <ellipse class="cls-60" cx="482.35" cy="217.72" rx="93.32" ry="28.15"/>
              <ellipse class="cls-45" cx="482.35" cy="215.19" rx="93.14" ry="28.1"/>
              <ellipse class="cls-89" cx="482.35" cy="212.65" rx="92.96" ry="28.04"/>
              <ellipse class="cls-55" cx="482.35" cy="210.12" rx="92.78" ry="27.99"/>
              <ellipse class="cls-65" cx="482.35" cy="207.58" rx="92.6" ry="27.93"/>
              <ellipse class="cls-25" cx="482.35" cy="205.04" rx="92.42" ry="27.88"/>
              <ellipse class="cls-7" cx="482.35" cy="202.51" rx="92.23" ry="27.82"/>
              <ellipse class="cls-64" cx="482.35" cy="199.97" rx="92.05" ry="27.77"/>
              <ellipse class="cls-56" cx="482.35" cy="197.43" rx="91.87" ry="27.71"/>
              <ellipse class="cls-13" cx="482.35" cy="194.9" rx="91.69" ry="27.66"/>
              <ellipse class="cls-3" cx="482.35" cy="192.36" rx="91.51" ry="27.6"/>
              <ellipse class="cls-85" cx="482.35" cy="189.83" rx="91.33" ry="27.55"/>
              <ellipse class="cls-17" cx="482.35" cy="187.29" rx="91.15" ry="27.49"/>
              <ellipse class="cls-99" cx="482.35" cy="184.75" rx="90.96" ry="27.44"/>
              <ellipse class="cls-52" cx="482.35" cy="182.22" rx="90.78" ry="27.38"/>
              <ellipse class="cls-30" cx="482.35" cy="179.68" rx="90.6" ry="27.33"/>
              <ellipse class="cls-41" cx="482.35" cy="177.14" rx="90.42" ry="27.27"/>
              <ellipse class="cls-48" cx="482.35" cy="174.61" rx="90.24" ry="27.22"/>
              <ellipse class="cls-57" cx="482.35" cy="172.07" rx="90.06" ry="27.17"/>
              <ellipse class="cls-37" cx="482.35" cy="169.53" rx="89.88" ry="27.11"/>
              <ellipse class="cls-27" cx="482.35" cy="167" rx="89.7" ry="27.06"/>
              <ellipse class="cls-24" cx="482.35" cy="164.46" rx="89.51" ry="27"/>
              <ellipse class="cls-36" cx="482.35" cy="161.93" rx="89.33" ry="26.95"/>
              <ellipse class="cls-71" cx="482.35" cy="159.39" rx="89.15" ry="26.89"/>
              <ellipse class="cls-82" cx="482.35" cy="156.85" rx="88.97" ry="26.84"/>
              <ellipse class="cls-29" cx="482.35" cy="154.32" rx="88.79" ry="26.78"/>
            </g>
          </g>
          <g>
            <g>
              <ellipse class="cls-54" cx="482.35" cy="29.3" rx="97.13" ry="29.3"/>
              <ellipse class="cls-54" cx="482.35" cy="31.84" rx="96.95" ry="29.24"/>
              <ellipse class="cls-54" cx="482.35" cy="34.37" rx="96.77" ry="29.19"/>
              <ellipse class="cls-54" cx="482.35" cy="36.91" rx="96.59" ry="29.13"/>
              <ellipse class="cls-54" cx="482.35" cy="39.44" rx="96.41" ry="29.08"/>
              <ellipse class="cls-54" cx="482.35" cy="41.98" rx="96.22" ry="29.03"/>
              <ellipse class="cls-54" cx="482.35" cy="44.52" rx="96.04" ry="28.97"/>
              <ellipse class="cls-54" cx="482.35" cy="47.05" rx="95.86" ry="28.92"/>
              <ellipse class="cls-54" cx="482.35" cy="49.59" rx="95.68" ry="28.86"/>
              <ellipse class="cls-54" cx="482.35" cy="52.13" rx="95.5" ry="28.81"/>
              <ellipse class="cls-54" cx="482.35" cy="54.66" rx="95.32" ry="28.75"/>
              <ellipse class="cls-54" cx="482.35" cy="57.2" rx="95.14" ry="28.7"/>
              <ellipse class="cls-54" cx="482.35" cy="59.73" rx="94.95" ry="28.64"/>
              <ellipse class="cls-54" cx="482.35" cy="62.27" rx="94.77" ry="28.59"/>
              <ellipse class="cls-54" cx="482.35" cy="64.81" rx="94.59" ry="28.53"/>
              <ellipse class="cls-54" cx="482.35" cy="67.34" rx="94.41" ry="28.48"/>
              <ellipse class="cls-54" cx="482.35" cy="69.88" rx="94.23" ry="28.42"/>
              <ellipse class="cls-54" cx="482.35" cy="72.42" rx="94.05" ry="28.37"/>
              <ellipse class="cls-54" cx="482.35" cy="74.95" rx="93.87" ry="28.31"/>
              <ellipse class="cls-54" cx="482.35" cy="77.49" rx="93.69" ry="28.26"/>
              <ellipse class="cls-54" cx="482.35" cy="80.03" rx="93.5" ry="28.2"/>
              <ellipse class="cls-54" cx="482.35" cy="82.56" rx="93.32" ry="28.15"/>
              <ellipse class="cls-54" cx="482.35" cy="85.1" rx="93.14" ry="28.1"/>
              <ellipse class="cls-54" cx="482.35" cy="87.63" rx="92.96" ry="28.04"/>
              <ellipse class="cls-54" cx="482.35" cy="90.17" rx="92.78" ry="27.99"/>
              <ellipse class="cls-54" cx="482.35" cy="92.71" rx="92.6" ry="27.93"/>
              <ellipse class="cls-54" cx="482.35" cy="95.24" rx="92.42" ry="27.88"/>
              <ellipse class="cls-54" cx="482.35" cy="97.78" rx="92.23" ry="27.82"/>
              <ellipse class="cls-54" cx="482.35" cy="100.32" rx="92.05" ry="27.77"/>
              <ellipse class="cls-54" cx="482.35" cy="102.85" rx="91.87" ry="27.71"/>
              <ellipse class="cls-54" cx="482.35" cy="105.39" rx="91.69" ry="27.66"/>
              <ellipse class="cls-54" cx="482.35" cy="107.92" rx="91.51" ry="27.6"/>
              <ellipse class="cls-54" cx="482.35" cy="110.46" rx="91.33" ry="27.55"/>
              <ellipse class="cls-54" cx="482.35" cy="113" rx="91.15" ry="27.49"/>
              <ellipse class="cls-54" cx="482.35" cy="115.53" rx="90.96" ry="27.44"/>
              <ellipse class="cls-54" cx="482.35" cy="118.07" rx="90.78" ry="27.38"/>
              <ellipse class="cls-54" cx="482.35" cy="120.61" rx="90.6" ry="27.33"/>
              <ellipse class="cls-54" cx="482.35" cy="123.14" rx="90.42" ry="27.27"/>
              <ellipse class="cls-54" cx="482.35" cy="125.68" rx="90.24" ry="27.22"/>
              <ellipse class="cls-54" cx="482.35" cy="128.22" rx="90.06" ry="27.17"/>
              <ellipse class="cls-54" cx="482.35" cy="130.75" rx="89.88" ry="27.11"/>
              <ellipse class="cls-54" cx="482.35" cy="133.29" rx="89.7" ry="27.06"/>
              <ellipse class="cls-54" cx="482.35" cy="135.82" rx="89.51" ry="27"/>
              <ellipse class="cls-54" cx="482.35" cy="138.36" rx="89.33" ry="26.95"/>
              <ellipse class="cls-54" cx="482.35" cy="140.9" rx="89.15" ry="26.89"/>
              <ellipse class="cls-54" cx="482.35" cy="143.43" rx="88.97" ry="26.84"/>
              <ellipse class="cls-54" cx="482.35" cy="145.97" rx="88.79" ry="26.78"/>
            </g>
            <g class="cls-103">
              <ellipse class="cls-28" cx="482.35" cy="30.56" rx="97.13" ry="29.3"/>
              <ellipse class="cls-87" cx="482.35" cy="33.09" rx="96.95" ry="29.24"/>
              <ellipse class="cls-70" cx="482.35" cy="35.63" rx="96.77" ry="29.19"/>
              <ellipse class="cls-67" cx="482.35" cy="38.17" rx="96.59" ry="29.13"/>
              <ellipse class="cls-59" cx="482.35" cy="40.7" rx="96.41" ry="29.08"/>
              <ellipse class="cls-40" cx="482.35" cy="43.24" rx="96.22" ry="29.03"/>
              <ellipse class="cls-8" cx="482.35" cy="45.77" rx="96.04" ry="28.97"/>
              <ellipse class="cls-77" cx="482.35" cy="48.31" rx="95.86" ry="28.92"/>
              <ellipse class="cls-88" cx="482.35" cy="50.85" rx="95.68" ry="28.86"/>
              <ellipse class="cls-19" cx="482.35" cy="53.38" rx="95.5" ry="28.81"/>
              <ellipse class="cls-97" cx="482.35" cy="55.92" rx="95.32" ry="28.75"/>
              <ellipse class="cls-51" cx="482.35" cy="58.46" rx="95.14" ry="28.7"/>
              <ellipse class="cls-96" cx="482.35" cy="60.99" rx="94.95" ry="28.64"/>
              <ellipse class="cls-14" cx="482.35" cy="63.53" rx="94.77" ry="28.59"/>
              <ellipse class="cls-79" cx="482.35" cy="66.07" rx="94.59" ry="28.53"/>
              <ellipse class="cls-42" cx="482.35" cy="68.6" rx="94.41" ry="28.48"/>
              <ellipse class="cls-81" cx="482.35" cy="71.14" rx="94.23" ry="28.42"/>
              <ellipse class="cls-61" cx="482.35" cy="73.67" rx="94.05" ry="28.37"/>
              <ellipse class="cls-80" cx="482.35" cy="76.21" rx="93.87" ry="28.31"/>
              <ellipse class="cls-93" cx="482.35" cy="78.75" rx="93.69" ry="28.26"/>
              <ellipse class="cls-49" cx="482.35" cy="81.28" rx="93.5" ry="28.2"/>
              <ellipse class="cls-39" cx="482.35" cy="83.82" rx="93.32" ry="28.15"/>
              <ellipse class="cls-20" cx="482.35" cy="86.36" rx="93.14" ry="28.1"/>
              <ellipse class="cls-43" cx="482.35" cy="88.89" rx="92.96" ry="28.04"/>
              <ellipse class="cls-18" cx="482.35" cy="91.43" rx="92.78" ry="27.99"/>
              <ellipse class="cls-74" cx="482.35" cy="93.96" rx="92.6" ry="27.93"/>
              <ellipse class="cls-92" cx="482.35" cy="96.5" rx="92.42" ry="27.88"/>
              <ellipse class="cls-69" cx="482.35" cy="99.04" rx="92.23" ry="27.82"/>
              <ellipse class="cls-53" cx="482.35" cy="101.57" rx="92.05" ry="27.77"/>
              <ellipse class="cls-31" cx="482.35" cy="104.11" rx="91.87" ry="27.71"/>
              <ellipse class="cls-47" cx="482.35" cy="106.65" rx="91.69" ry="27.66"/>
              <ellipse class="cls-33" cx="482.35" cy="109.18" rx="91.51" ry="27.6"/>
              <ellipse class="cls-22" cx="482.35" cy="111.72" rx="91.33" ry="27.55"/>
              <ellipse class="cls-50" cx="482.35" cy="114.26" rx="91.15" ry="27.49"/>
              <ellipse class="cls-84" cx="482.35" cy="116.79" rx="90.96" ry="27.44"/>
              <ellipse class="cls-95" cx="482.35" cy="119.33" rx="90.78" ry="27.38"/>
              <ellipse class="cls-12" cx="482.35" cy="121.86" rx="90.6" ry="27.33"/>
              <ellipse class="cls-58" cx="482.35" cy="124.4" rx="90.42" ry="27.27"/>
              <ellipse class="cls-62" cx="482.35" cy="126.94" rx="90.24" ry="27.22"/>
              <ellipse class="cls-83" cx="482.35" cy="129.47" rx="90.06" ry="27.17"/>
              <ellipse class="cls-16" cx="482.35" cy="132.01" rx="89.88" ry="27.11"/>
              <ellipse class="cls-4" cx="482.35" cy="134.55" rx="89.7" ry="27.06"/>
              <ellipse class="cls-23" cx="482.35" cy="137.08" rx="89.51" ry="27"/>
              <ellipse class="cls-9" cx="482.35" cy="139.62" rx="89.33" ry="26.95"/>
              <ellipse class="cls-32" cx="482.35" cy="142.15" rx="89.15" ry="26.89"/>
              <ellipse class="cls-75" cx="482.35" cy="144.69" rx="88.97" ry="26.84"/>
              <ellipse class="cls-10" cx="482.35" cy="147.23" rx="88.79" ry="26.78"/>
            </g>
          </g>
        </g>
      </g>
    </g>
  </g>
</svg>