<?xml version="1.0" encoding="UTF-8"?>
<svg xmlns="http://www.w3.org/2000/svg" xmlns:xlink="http://www.w3.org/1999/xlink" viewBox="0 0 952.63 1605.59">
  <defs>
    <style>
      .cls-1 {
        fill: url(#_Безымянный_градиент_801-6);
      }

      .cls-1, .cls-2, .cls-3, .cls-4, .cls-5, .cls-6, .cls-7, .cls-8, .cls-9, .cls-10, .cls-11, .cls-12, .cls-13, .cls-14, .cls-15, .cls-16, .cls-17, .cls-18, .cls-19, .cls-20, .cls-21, .cls-22, .cls-23, .cls-24, .cls-25, .cls-26, .cls-27, .cls-28, .cls-29, .cls-30, .cls-31, .cls-32, .cls-33, .cls-34, .cls-35, .cls-36, .cls-37, .cls-38, .cls-39, .cls-40, .cls-41, .cls-42, .cls-43, .cls-44, .cls-45, .cls-46, .cls-47, .cls-48, .cls-49, .cls-50, .cls-51, .cls-52, .cls-53, .cls-54, .cls-55, .cls-56, .cls-57, .cls-58, .cls-59, .cls-60, .cls-61, .cls-62, .cls-63, .cls-64, .cls-65, .cls-66, .cls-67, .cls-68, .cls-69, .cls-70, .cls-71, .cls-72, .cls-73, .cls-74, .cls-75, .cls-76, .cls-77, .cls-78, .cls-79, .cls-80, .cls-81, .cls-82, .cls-83, .cls-84, .cls-85, .cls-86, .cls-87, .cls-88, .cls-89, .cls-90, .cls-91, .cls-92, .cls-93, .cls-94, .cls-95, .cls-96, .cls-97, .cls-98, .cls-99, .cls-100 {
        stroke-width: 0px;
      }

      .cls-2 {
        fill: url(#_Безымянный_градиент_801-20);
      }

      .cls-3 {
        fill: url(#_Безымянный_градиент_801-32);
      }

      .cls-4 {
        fill: url(#_Безымянный_градиент_801-89);
      }

      .cls-5 {
        fill: url(#_Безымянный_градиент_801-13);
      }

      .cls-6 {
        fill: url(#_Безымянный_градиент_801-16);
      }

      .cls-7 {
        fill: url(#_Безымянный_градиент_801-28);
      }

      .cls-8 {
        fill: url(#_Безымянный_градиент_801-54);
      }

      .cls-9 {
        fill: url(#_Безымянный_градиент_801-91);
      }

      .cls-10 {
        fill: url(#_Безымянный_градиент_801-94);
      }

      .cls-11 {
        fill: url(#_Безымянный_градиент_801-14);
      }

      .cls-12 {
        fill: url(#_Безымянный_градиент_801-84);
      }

      .cls-13 {
        fill: url(#_Безымянный_градиент_801-31);
      }

      .cls-14 {
        fill: url(#_Безымянный_градиент_801-61);
      }

      .cls-15 {
        fill: url(#_Безымянный_градиент_801-10);
      }

      .cls-16 {
        fill: url(#_Безымянный_градиент_801-88);
      }

      .cls-17 {
        fill: #68baae;
      }

      .cls-18 {
        fill: url(#_Безымянный_градиент_801-34);
      }

      .cls-19 {
        fill: url(#_Безымянный_градиент_801-72);
      }

      .cls-20 {
        fill: url(#_Безымянный_градиент_801-57);
      }

      .cls-21 {
        fill: url(#_Безымянный_градиент_801-70);
      }

      .cls-22 {
        fill: url(#_Безымянный_градиент_801-3);
      }

      .cls-23 {
        fill: url(#_Безымянный_градиент_801-80);
      }

      .cls-24 {
        fill: url(#_Безымянный_градиент_801-90);
      }

      .cls-25 {
        fill: url(#_Безымянный_градиент_801-43);
      }

      .cls-26 {
        fill: url(#_Безымянный_градиент_801-27);
      }

      .cls-27 {
        fill: url(#_Безымянный_градиент_801-11);
      }

      .cls-28 {
        fill: url(#_Безымянный_градиент_801-42);
      }

      .cls-29 {
        fill: url(#_Безымянный_градиент_801-48);
      }

      .cls-30 {
        fill: url(#_Безымянный_градиент_801-47);
      }

      .cls-101 {
        isolation: isolate;
      }

      .cls-31 {
        fill: url(#_Безымянный_градиент_801-37);
      }

      .cls-32 {
        fill: url(#_Безымянный_градиент_801-77);
      }

      .cls-33 {
        fill: url(#_Безымянный_градиент_801-92);
      }

      .cls-34 {
        fill: url(#_Безымянный_градиент_801-79);
      }

      .cls-35 {
        fill: url(#_Безымянный_градиент_801-5);
      }

      .cls-36 {
        fill: url(#_Безымянный_градиент_801-44);
      }

      .cls-37 {
        fill: url(#_Безымянный_градиент_801-41);
      }

      .cls-38 {
        fill: url(#_Безымянный_градиент_801-21);
      }

      .cls-39 {
        fill: url(#_Безымянный_градиент_801-69);
      }

      .cls-40 {
        fill: url(#_Безымянный_градиент_801-53);
      }

      .cls-41 {
        fill: #b7b7b7;
      }

      .cls-42 {
        fill: url(#_Безымянный_градиент_801-38);
      }

      .cls-43 {
        fill: url(#_Безымянный_градиент_801-63);
      }

      .cls-44 {
        fill: url(#_Безымянный_градиент_801-71);
      }

      .cls-45 {
        fill: url(#_Безымянный_градиент_801-12);
      }

      .cls-102 {
        opacity: .22;
      }

      .cls-46 {
        fill: url(#_Безымянный_градиент_801-23);
      }

      .cls-47 {
        fill: url(#_Безымянный_градиент_801-9);
      }

      .cls-48 {
        fill: url(#_Безымянный_градиент_801-78);
      }

      .cls-49 {
        fill: url(#_Безымянный_градиент_801-39);
      }

      .cls-50 {
        fill: url(#_Безымянный_градиент_801-68);
      }

      .cls-51 {
        fill: url(#_Безымянный_градиент_801-81);
      }

      .cls-52 {
        fill: url(#_Безымянный_градиент_801-59);
      }

      .cls-53 {
        fill: url(#_Безымянный_градиент_801-36);
      }

      .cls-54 {
        fill: url(#_Безымянный_градиент_801-76);
      }

      .cls-55 {
        fill: #d37f54;
      }

      .cls-56 {
        fill: url(#_Безымянный_градиент_801-25);
      }

      .cls-57 {
        fill: url(#_Безымянный_градиент_801-30);
      }

      .cls-58 {
        fill: url(#_Безымянный_градиент_801-40);
      }

      .cls-59 {
        fill: url(#_Безымянный_градиент_801-85);
      }

      .cls-60 {
        fill: url(#_Безымянный_градиент_801-52);
      }

      .cls-61 {
        fill: url(#_Безымянный_градиент_801-22);
      }

      .cls-103 {
        mix-blend-mode: color-burn;
        opacity: .21;
      }

      .cls-62 {
        fill: url(#_Безымянный_градиент_801-65);
      }

      .cls-63 {
        fill: url(#_Безымянный_градиент_801-86);
      }

      .cls-64 {
        fill: url(#_Безымянный_градиент_801-2);
      }

      .cls-65 {
        fill: url(#_Безымянный_градиент_801-29);
      }

      .cls-66 {
        fill: #4bc4b2;
      }

      .cls-67 {
        fill: url(#_Безымянный_градиент_801-26);
      }

      .cls-68 {
        fill: url(#_Безымянный_градиент_801-51);
      }

      .cls-69 {
        fill: url(#_Безымянный_градиент_801-75);
      }

      .cls-70 {
        fill: url(#_Безымянный_градиент_801-50);
      }

      .cls-71 {
        fill: url(#_Безымянный_градиент_801-45);
      }

      .cls-72 {
        fill: url(#_Безымянный_градиент_801-4);
      }

      .cls-73 {
        fill: url(#_Безымянный_градиент_801-7);
      }

      .cls-74 {
        fill: url(#_Безымянный_градиент_801-73);
      }

      .cls-75 {
        fill: url(#_Безымянный_градиент_801-93);
      }

      .cls-76 {
        fill: url(#_Безымянный_градиент_801-55);
      }

      .cls-77 {
        fill: url(#_Безымянный_градиент_801-18);
      }

      .cls-78 {
        fill: url(#_Безымянный_градиент_23);
        mix-blend-mode: multiply;
        opacity: .31;
      }

      .cls-79 {
        fill: url(#_Безымянный_градиент_801-62);
      }

      .cls-80 {
        fill: url(#_Безымянный_градиент_801-66);
      }

      .cls-81 {
        fill: url(#_Безымянный_градиент_801-64);
      }

      .cls-82 {
        fill: url(#_Безымянный_градиент_801-46);
      }

      .cls-83 {
        fill: #c9c9c9;
      }

      .cls-84 {
        fill: url(#_Безымянный_градиент_801-87);
      }

      .cls-85 {
        fill: url(#_Безымянный_градиент_801-82);
      }

      .cls-86 {
        fill: url(#_Безымянный_градиент_801-33);
      }

      .cls-87 {
        fill: url(#_Безымянный_градиент_801);
      }

      .cls-88 {
        fill: url(#_Безымянный_градиент_801-49);
      }

      .cls-89 {
        fill: url(#_Безымянный_градиент_801-56);
      }

      .cls-90 {
        fill: url(#_Безымянный_градиент_801-24);
      }

      .cls-91 {
        fill: url(#_Безымянный_градиент_801-8);
      }

      .cls-92 {
        fill: url(#_Безымянный_градиент_801-15);
      }

      .cls-93 {
        fill: url(#_Безымянный_градиент_801-74);
      }

      .cls-94 {
        fill: url(#_Безымянный_градиент_801-67);
      }

      .cls-95 {
        fill: url(#_Безымянный_градиент_801-19);
      }

      .cls-96 {
        fill: url(#_Безымянный_градиент_801-83);
      }

      .cls-97 {
        fill: url(#_Безымянный_градиент_801-60);
      }

      .cls-98 {
        fill: url(#_Безымянный_градиент_801-58);
      }

      .cls-99 {
        fill: url(#_Безымянный_градиент_801-17);
      }

      .cls-100 {
        fill: url(#_Безымянный_градиент_801-35);
      }
    </style>
    <linearGradient id="_Безымянный_градиент_801" data-name="Безымянный градиент 801" x1="410.99" y1="433.47" x2="580.06" y2="433.47" gradientTransform="translate(972.77 669.35) rotate(-180)" gradientUnits="userSpaceOnUse">
      <stop offset="0" stop-color="#000"/>
      <stop offset=".23" stop-color="#7d7d7d"/>
      <stop offset=".36" stop-color="#fff"/>
      <stop offset=".49" stop-color="#898989"/>
      <stop offset="1" stop-color="#000"/>
    </linearGradient>
    <linearGradient id="_Безымянный_градиент_801-2" data-name="Безымянный градиент 801" x1="411.14" y1="435.67" x2="579.9" y2="435.67" xlink:href="#_Безымянный_градиент_801"/>
    <linearGradient id="_Безымянный_градиент_801-3" data-name="Безымянный градиент 801" x1="411.3" y1="437.88" x2="579.74" y2="437.88" xlink:href="#_Безымянный_градиент_801"/>
    <linearGradient id="_Безымянный_градиент_801-4" data-name="Безымянный градиент 801" x1="411.46" y1="440.09" x2="579.59" y2="440.09" xlink:href="#_Безымянный_градиент_801"/>
    <linearGradient id="_Безымянный_градиент_801-5" data-name="Безымянный градиент 801" x1="411.62" y1="442.3" x2="579.43" y2="442.3" xlink:href="#_Безымянный_градиент_801"/>
    <linearGradient id="_Безымянный_градиент_801-6" data-name="Безымянный градиент 801" x1="411.78" y1="444.5" x2="579.27" y2="444.5" xlink:href="#_Безымянный_градиент_801"/>
    <linearGradient id="_Безымянный_градиент_801-7" data-name="Безымянный градиент 801" x1="411.93" y1="446.71" x2="579.11" y2="446.71" xlink:href="#_Безымянный_градиент_801"/>
    <linearGradient id="_Безымянный_градиент_801-8" data-name="Безымянный градиент 801" x1="412.09" y1="448.92" x2="578.96" y2="448.92" xlink:href="#_Безымянный_градиент_801"/>
    <linearGradient id="_Безымянный_градиент_801-9" data-name="Безымянный градиент 801" x1="412.25" y1="451.13" x2="578.8" y2="451.13" xlink:href="#_Безымянный_градиент_801"/>
    <linearGradient id="_Безымянный_градиент_801-10" data-name="Безымянный градиент 801" x1="412.41" y1="453.33" x2="578.64" y2="453.33" xlink:href="#_Безымянный_градиент_801"/>
    <linearGradient id="_Безымянный_градиент_801-11" data-name="Безымянный градиент 801" x1="412.56" y1="455.54" x2="578.48" y2="455.54" xlink:href="#_Безымянный_градиент_801"/>
    <linearGradient id="_Безымянный_градиент_801-12" data-name="Безымянный градиент 801" x1="412.72" y1="457.75" x2="578.32" y2="457.75" xlink:href="#_Безымянный_градиент_801"/>
    <linearGradient id="_Безымянный_градиент_801-13" data-name="Безымянный градиент 801" x1="412.88" y1="459.96" x2="578.17" y2="459.96" xlink:href="#_Безымянный_градиент_801"/>
    <linearGradient id="_Безымянный_градиент_801-14" data-name="Безымянный градиент 801" x1="413.04" y1="462.16" x2="578.01" y2="462.16" xlink:href="#_Безымянный_градиент_801"/>
    <linearGradient id="_Безымянный_градиент_801-15" data-name="Безымянный градиент 801" x1="413.2" y1="464.37" x2="577.85" y2="464.37" xlink:href="#_Безымянный_градиент_801"/>
    <linearGradient id="_Безымянный_градиент_801-16" data-name="Безымянный градиент 801" x1="413.35" y1="466.58" x2="577.69" y2="466.58" xlink:href="#_Безымянный_градиент_801"/>
    <linearGradient id="_Безымянный_градиент_801-17" data-name="Безымянный градиент 801" x1="413.51" y1="468.79" x2="577.54" y2="468.79" xlink:href="#_Безымянный_градиент_801"/>
    <linearGradient id="_Безымянный_градиент_801-18" data-name="Безымянный градиент 801" x1="413.67" y1="470.99" x2="577.38" y2="470.99" xlink:href="#_Безымянный_градиент_801"/>
    <linearGradient id="_Безымянный_градиент_801-19" data-name="Безымянный градиент 801" x1="413.83" y1="473.2" x2="577.22" y2="473.2" xlink:href="#_Безымянный_градиент_801"/>
    <linearGradient id="_Безымянный_градиент_801-20" data-name="Безымянный градиент 801" x1="413.99" y1="475.41" x2="577.06" y2="475.41" xlink:href="#_Безымянный_градиент_801"/>
    <linearGradient id="_Безымянный_градиент_801-21" data-name="Безымянный градиент 801" x1="414.14" y1="477.62" x2="576.9" y2="477.62" xlink:href="#_Безымянный_градиент_801"/>
    <linearGradient id="_Безымянный_градиент_801-22" data-name="Безымянный градиент 801" x1="414.3" y1="479.82" x2="576.75" y2="479.82" xlink:href="#_Безымянный_градиент_801"/>
    <linearGradient id="_Безымянный_градиент_801-23" data-name="Безымянный градиент 801" x1="414.46" y1="482.03" x2="576.59" y2="482.03" xlink:href="#_Безымянный_градиент_801"/>
    <linearGradient id="_Безымянный_градиент_801-24" data-name="Безымянный градиент 801" x1="414.62" y1="484.24" x2="576.43" y2="484.24" xlink:href="#_Безымянный_градиент_801"/>
    <linearGradient id="_Безымянный_градиент_801-25" data-name="Безымянный градиент 801" x1="414.77" y1="486.45" x2="576.27" y2="486.45" xlink:href="#_Безымянный_градиент_801"/>
    <linearGradient id="_Безымянный_градиент_801-26" data-name="Безымянный градиент 801" x1="414.93" y1="488.65" x2="576.11" y2="488.65" xlink:href="#_Безымянный_градиент_801"/>
    <linearGradient id="_Безымянный_градиент_801-27" data-name="Безымянный градиент 801" x1="415.09" y1="490.86" x2="575.96" y2="490.86" xlink:href="#_Безымянный_градиент_801"/>
    <linearGradient id="_Безымянный_градиент_801-28" data-name="Безымянный градиент 801" x1="415.25" y1="493.07" x2="575.8" y2="493.07" xlink:href="#_Безымянный_градиент_801"/>
    <linearGradient id="_Безымянный_градиент_801-29" data-name="Безымянный градиент 801" x1="415.41" y1="495.28" x2="575.64" y2="495.28" xlink:href="#_Безымянный_градиент_801"/>
    <linearGradient id="_Безымянный_градиент_801-30" data-name="Безымянный градиент 801" x1="415.56" y1="497.48" x2="575.48" y2="497.48" xlink:href="#_Безымянный_градиент_801"/>
    <linearGradient id="_Безымянный_градиент_801-31" data-name="Безымянный градиент 801" x1="415.72" y1="499.69" x2="575.33" y2="499.69" xlink:href="#_Безымянный_градиент_801"/>
    <linearGradient id="_Безымянный_градиент_801-32" data-name="Безымянный градиент 801" x1="415.88" y1="501.9" x2="575.17" y2="501.9" xlink:href="#_Безымянный_градиент_801"/>
    <linearGradient id="_Безымянный_градиент_801-33" data-name="Безымянный градиент 801" x1="416.04" y1="504.11" x2="575.01" y2="504.11" xlink:href="#_Безымянный_градиент_801"/>
    <linearGradient id="_Безымянный_градиент_801-34" data-name="Безымянный градиент 801" x1="416.2" y1="506.31" x2="574.85" y2="506.31" xlink:href="#_Безымянный_градиент_801"/>
    <linearGradient id="_Безымянный_градиент_801-35" data-name="Безымянный градиент 801" x1="416.35" y1="508.52" x2="574.69" y2="508.52" xlink:href="#_Безымянный_градиент_801"/>
    <linearGradient id="_Безымянный_градиент_801-36" data-name="Безымянный градиент 801" x1="416.51" y1="510.73" x2="574.54" y2="510.73" xlink:href="#_Безымянный_градиент_801"/>
    <linearGradient id="_Безымянный_градиент_801-37" data-name="Безымянный градиент 801" x1="416.67" y1="512.94" x2="574.38" y2="512.94" xlink:href="#_Безымянный_градиент_801"/>
    <linearGradient id="_Безымянный_градиент_801-38" data-name="Безымянный градиент 801" x1="416.83" y1="515.14" x2="574.22" y2="515.14" xlink:href="#_Безымянный_градиент_801"/>
    <linearGradient id="_Безымянный_градиент_801-39" data-name="Безымянный градиент 801" x1="416.98" y1="517.35" x2="574.06" y2="517.35" xlink:href="#_Безымянный_градиент_801"/>
    <linearGradient id="_Безымянный_градиент_801-40" data-name="Безымянный градиент 801" x1="417.14" y1="519.56" x2="573.91" y2="519.56" xlink:href="#_Безымянный_градиент_801"/>
    <linearGradient id="_Безымянный_градиент_801-41" data-name="Безымянный градиент 801" x1="417.3" y1="521.77" x2="573.75" y2="521.77" xlink:href="#_Безымянный_градиент_801"/>
    <linearGradient id="_Безымянный_градиент_801-42" data-name="Безымянный градиент 801" x1="417.46" y1="523.97" x2="573.59" y2="523.97" xlink:href="#_Безымянный_градиент_801"/>
    <linearGradient id="_Безымянный_градиент_801-43" data-name="Безымянный градиент 801" x1="417.62" y1="526.18" x2="573.43" y2="526.18" xlink:href="#_Безымянный_градиент_801"/>
    <linearGradient id="_Безымянный_градиент_801-44" data-name="Безымянный градиент 801" x1="417.77" y1="528.39" x2="573.27" y2="528.39" xlink:href="#_Безымянный_градиент_801"/>
    <linearGradient id="_Безымянный_градиент_801-45" data-name="Безымянный градиент 801" x1="417.93" y1="530.6" x2="573.12" y2="530.6" xlink:href="#_Безымянный_градиент_801"/>
    <linearGradient id="_Безымянный_градиент_801-46" data-name="Безымянный градиент 801" x1="418.09" y1="532.8" x2="572.96" y2="532.8" xlink:href="#_Безымянный_градиент_801"/>
    <linearGradient id="_Безымянный_градиент_801-47" data-name="Безымянный градиент 801" x1="418.25" y1="535.01" x2="572.8" y2="535.01" xlink:href="#_Безымянный_градиент_801"/>
    <linearGradient id="_Безымянный_градиент_801-48" data-name="Безымянный градиент 801" x1="392.7" y1="26.59" x2="561.78" y2="26.59" gradientTransform="matrix(1,0,0,1,0,0)" xlink:href="#_Безымянный_градиент_801"/>
    <linearGradient id="_Безымянный_градиент_801-49" data-name="Безымянный градиент 801" x1="392.86" y1="28.8" x2="561.62" y2="28.8" gradientTransform="matrix(1,0,0,1,0,0)" xlink:href="#_Безымянный_градиент_801"/>
    <linearGradient id="_Безымянный_градиент_801-50" data-name="Безымянный градиент 801" x1="393.02" y1="31.01" x2="561.46" y2="31.01" gradientTransform="matrix(1,0,0,1,0,0)" xlink:href="#_Безымянный_градиент_801"/>
    <linearGradient id="_Безымянный_градиент_801-51" data-name="Безымянный градиент 801" x1="393.18" y1="33.22" x2="561.31" y2="33.22" gradientTransform="matrix(1,0,0,1,0,0)" xlink:href="#_Безымянный_градиент_801"/>
    <linearGradient id="_Безымянный_градиент_801-52" data-name="Безымянный градиент 801" x1="393.34" y1="35.42" x2="561.15" y2="35.42" gradientTransform="matrix(1,0,0,1,0,0)" xlink:href="#_Безымянный_градиент_801"/>
    <linearGradient id="_Безымянный_градиент_801-53" data-name="Безымянный градиент 801" x1="393.49" y1="37.63" x2="560.99" y2="37.63" gradientTransform="matrix(1,0,0,1,0,0)" xlink:href="#_Безымянный_градиент_801"/>
    <linearGradient id="_Безымянный_градиент_801-54" data-name="Безымянный градиент 801" x1="393.65" y1="39.84" x2="560.83" y2="39.84" gradientTransform="matrix(1,0,0,1,0,0)" xlink:href="#_Безымянный_градиент_801"/>
    <linearGradient id="_Безымянный_градиент_801-55" data-name="Безымянный градиент 801" x1="393.81" y1="42.05" x2="560.67" y2="42.05" gradientTransform="matrix(1,0,0,1,0,0)" xlink:href="#_Безымянный_градиент_801"/>
    <linearGradient id="_Безымянный_градиент_801-56" data-name="Безымянный градиент 801" x1="393.97" y1="44.25" x2="560.52" y2="44.25" gradientTransform="matrix(1,0,0,1,0,0)" xlink:href="#_Безымянный_градиент_801"/>
    <linearGradient id="_Безымянный_градиент_801-57" data-name="Безымянный градиент 801" x1="394.13" y1="46.46" x2="560.36" y2="46.46" gradientTransform="matrix(1,0,0,1,0,0)" xlink:href="#_Безымянный_градиент_801"/>
    <linearGradient id="_Безымянный_градиент_801-58" data-name="Безымянный градиент 801" x1="394.28" y1="48.67" x2="560.2" y2="48.67" gradientTransform="matrix(1,0,0,1,0,0)" xlink:href="#_Безымянный_градиент_801"/>
    <linearGradient id="_Безымянный_градиент_801-59" data-name="Безымянный градиент 801" x1="394.44" y1="50.88" x2="560.04" y2="50.88" gradientTransform="matrix(1,0,0,1,0,0)" xlink:href="#_Безымянный_градиент_801"/>
    <linearGradient id="_Безымянный_градиент_801-60" data-name="Безымянный градиент 801" x1="394.6" y1="53.08" x2="559.88" y2="53.08" gradientTransform="matrix(1,0,0,1,0,0)" xlink:href="#_Безымянный_градиент_801"/>
    <linearGradient id="_Безымянный_градиент_801-61" data-name="Безымянный градиент 801" x1="394.76" y1="55.29" x2="559.73" y2="55.29" gradientTransform="matrix(1,0,0,1,0,0)" xlink:href="#_Безымянный_градиент_801"/>
    <linearGradient id="_Безымянный_градиент_801-62" data-name="Безымянный градиент 801" x1="394.91" y1="57.5" x2="559.57" y2="57.5" gradientTransform="matrix(1,0,0,1,0,0)" xlink:href="#_Безымянный_градиент_801"/>
    <linearGradient id="_Безымянный_градиент_801-63" data-name="Безымянный градиент 801" x1="395.07" y1="59.71" x2="559.41" y2="59.71" gradientTransform="matrix(1,0,0,1,0,0)" xlink:href="#_Безымянный_градиент_801"/>
    <linearGradient id="_Безымянный_градиент_801-64" data-name="Безымянный градиент 801" x1="395.23" y1="61.91" x2="559.25" y2="61.91" gradientTransform="matrix(1,0,0,1,0,0)" xlink:href="#_Безымянный_градиент_801"/>
    <linearGradient id="_Безымянный_градиент_801-65" data-name="Безымянный градиент 801" x1="395.39" y1="64.12" x2="559.1" y2="64.12" gradientTransform="matrix(1,0,0,1,0,0)" xlink:href="#_Безымянный_градиент_801"/>
    <linearGradient id="_Безымянный_градиент_801-66" data-name="Безымянный градиент 801" x1="395.55" y1="66.33" x2="558.94" y2="66.33" gradientTransform="matrix(1,0,0,1,0,0)" xlink:href="#_Безымянный_градиент_801"/>
    <linearGradient id="_Безымянный_градиент_801-67" data-name="Безымянный градиент 801" x1="395.7" y1="68.54" x2="558.78" y2="68.54" gradientTransform="matrix(1,0,0,1,0,0)" xlink:href="#_Безымянный_градиент_801"/>
    <linearGradient id="_Безымянный_градиент_801-68" data-name="Безымянный градиент 801" x1="395.86" y1="70.74" x2="558.62" y2="70.74" gradientTransform="matrix(1,0,0,1,0,0)" xlink:href="#_Безымянный_градиент_801"/>
    <linearGradient id="_Безымянный_градиент_801-69" data-name="Безымянный градиент 801" x1="396.02" y1="72.95" x2="558.46" y2="72.95" gradientTransform="matrix(1,0,0,1,0,0)" xlink:href="#_Безымянный_градиент_801"/>
    <linearGradient id="_Безымянный_градиент_801-70" data-name="Безымянный градиент 801" x1="396.18" y1="75.16" x2="558.31" y2="75.16" gradientTransform="matrix(1,0,0,1,0,0)" xlink:href="#_Безымянный_градиент_801"/>
    <linearGradient id="_Безымянный_градиент_801-71" data-name="Безымянный градиент 801" x1="396.34" y1="77.37" x2="558.15" y2="77.37" gradientTransform="matrix(1,0,0,1,0,0)" xlink:href="#_Безымянный_градиент_801"/>
    <linearGradient id="_Безымянный_градиент_801-72" data-name="Безымянный градиент 801" x1="396.49" y1="79.57" x2="557.99" y2="79.57" gradientTransform="matrix(1,0,0,1,0,0)" xlink:href="#_Безымянный_градиент_801"/>
    <linearGradient id="_Безымянный_градиент_801-73" data-name="Безымянный градиент 801" x1="396.65" y1="81.78" x2="557.83" y2="81.78" gradientTransform="matrix(1,0,0,1,0,0)" xlink:href="#_Безымянный_градиент_801"/>
    <linearGradient id="_Безымянный_градиент_801-74" data-name="Безымянный градиент 801" x1="396.81" y1="83.99" x2="557.68" y2="83.99" gradientTransform="matrix(1,0,0,1,0,0)" xlink:href="#_Безымянный_градиент_801"/>
    <linearGradient id="_Безымянный_градиент_801-75" data-name="Безымянный градиент 801" x1="396.97" y1="86.2" x2="557.52" y2="86.2" gradientTransform="matrix(1,0,0,1,0,0)" xlink:href="#_Безымянный_градиент_801"/>
    <linearGradient id="_Безымянный_градиент_801-76" data-name="Безымянный градиент 801" x1="397.12" y1="88.4" x2="557.36" y2="88.4" gradientTransform="matrix(1,0,0,1,0,0)" xlink:href="#_Безымянный_градиент_801"/>
    <linearGradient id="_Безымянный_градиент_801-77" data-name="Безымянный градиент 801" x1="397.28" y1="90.61" x2="557.2" y2="90.61" gradientTransform="matrix(1,0,0,1,0,0)" xlink:href="#_Безымянный_градиент_801"/>
    <linearGradient id="_Безымянный_градиент_801-78" data-name="Безымянный градиент 801" x1="397.44" y1="92.82" x2="557.04" y2="92.82" gradientTransform="matrix(1,0,0,1,0,0)" xlink:href="#_Безымянный_градиент_801"/>
    <linearGradient id="_Безымянный_градиент_801-79" data-name="Безымянный градиент 801" x1="397.6" y1="95.03" x2="556.89" y2="95.03" gradientTransform="matrix(1,0,0,1,0,0)" xlink:href="#_Безымянный_градиент_801"/>
    <linearGradient id="_Безымянный_градиент_801-80" data-name="Безымянный градиент 801" x1="397.76" y1="97.23" x2="556.73" y2="97.23" gradientTransform="matrix(1,0,0,1,0,0)" xlink:href="#_Безымянный_градиент_801"/>
    <linearGradient id="_Безымянный_градиент_801-81" data-name="Безымянный градиент 801" x1="397.91" y1="99.44" x2="556.57" y2="99.44" gradientTransform="matrix(1,0,0,1,0,0)" xlink:href="#_Безымянный_градиент_801"/>
    <linearGradient id="_Безымянный_градиент_801-82" data-name="Безымянный градиент 801" x1="398.07" y1="101.65" x2="556.41" y2="101.65" gradientTransform="matrix(1,0,0,1,0,0)" xlink:href="#_Безымянный_градиент_801"/>
    <linearGradient id="_Безымянный_градиент_801-83" data-name="Безымянный градиент 801" x1="398.23" y1="103.86" x2="556.25" y2="103.86" gradientTransform="matrix(1,0,0,1,0,0)" xlink:href="#_Безымянный_градиент_801"/>
    <linearGradient id="_Безымянный_градиент_801-84" data-name="Безымянный градиент 801" x1="398.39" y1="106.06" x2="556.1" y2="106.06" gradientTransform="matrix(1,0,0,1,0,0)" xlink:href="#_Безымянный_градиент_801"/>
    <linearGradient id="_Безымянный_градиент_801-85" data-name="Безымянный градиент 801" x1="398.54" y1="108.27" x2="555.94" y2="108.27" gradientTransform="matrix(1,0,0,1,0,0)" xlink:href="#_Безымянный_градиент_801"/>
    <linearGradient id="_Безымянный_градиент_801-86" data-name="Безымянный градиент 801" x1="398.7" y1="110.48" x2="555.78" y2="110.48" gradientTransform="matrix(1,0,0,1,0,0)" xlink:href="#_Безымянный_градиент_801"/>
    <linearGradient id="_Безымянный_градиент_801-87" data-name="Безымянный градиент 801" x1="398.86" y1="112.69" x2="555.62" y2="112.69" gradientTransform="matrix(1,0,0,1,0,0)" xlink:href="#_Безымянный_градиент_801"/>
    <linearGradient id="_Безымянный_градиент_801-88" data-name="Безымянный градиент 801" x1="399.02" y1="114.89" x2="555.47" y2="114.89" gradientTransform="matrix(1,0,0,1,0,0)" xlink:href="#_Безымянный_градиент_801"/>
    <linearGradient id="_Безымянный_градиент_801-89" data-name="Безымянный градиент 801" x1="399.18" y1="117.1" x2="555.31" y2="117.1" gradientTransform="matrix(1,0,0,1,0,0)" xlink:href="#_Безымянный_градиент_801"/>
    <linearGradient id="_Безымянный_градиент_801-90" data-name="Безымянный градиент 801" x1="399.33" y1="119.31" x2="555.15" y2="119.31" gradientTransform="matrix(1,0,0,1,0,0)" xlink:href="#_Безымянный_градиент_801"/>
    <linearGradient id="_Безымянный_градиент_801-91" data-name="Безымянный градиент 801" x1="399.49" y1="121.52" x2="554.99" y2="121.52" gradientTransform="matrix(1,0,0,1,0,0)" xlink:href="#_Безымянный_градиент_801"/>
    <linearGradient id="_Безымянный_градиент_801-92" data-name="Безымянный градиент 801" x1="399.65" y1="123.72" x2="554.83" y2="123.72" gradientTransform="matrix(1,0,0,1,0,0)" xlink:href="#_Безымянный_градиент_801"/>
    <linearGradient id="_Безымянный_градиент_801-93" data-name="Безымянный градиент 801" x1="399.81" y1="125.93" x2="554.68" y2="125.93" gradientTransform="matrix(1,0,0,1,0,0)" xlink:href="#_Безымянный_градиент_801"/>
    <linearGradient id="_Безымянный_градиент_801-94" data-name="Безымянный градиент 801" x1="399.97" y1="128.14" x2="554.52" y2="128.14" gradientTransform="matrix(1,0,0,1,0,0)" xlink:href="#_Безымянный_градиент_801"/>
    <linearGradient id="_Безымянный_градиент_23" data-name="Безымянный градиент 23" x1="0" y1="860.94" x2="952.55" y2="860.94" gradientUnits="userSpaceOnUse">
      <stop offset="0" stop-color="#2a0a00"/>
      <stop offset="0" stop-color="#8a7974"/>
      <stop offset=".45" stop-color="#f0f0f0"/>
      <stop offset="1" stop-color="#afafaf"/>
      <stop offset="1" stop-color="#989898"/>
      <stop offset="1" stop-color="#787878"/>
      <stop offset="1" stop-color="#000"/>
    </linearGradient>
  </defs>
  <g class="cls-101">
    <g id="_Слой_1" data-name="Слой 1">
      <g>
        <g>
          <g>
            <path class="cls-83" d="m475.93,997.89c.28,0,.57,0,.85,0l473.86,13.67c.46.01.92.05,1.37.11-2.7-12.47-6.58-24.75-11.68-36.67l-162.01-378.88c-32.15-75.18-106.61-124.02-189.08-124.02h-225.78c-82.47,0-156.93,48.84-189.08,124.02L12.37,974.99c-5.1,11.92-8.98,24.2-11.68,36.67.45-.05.91-.09,1.37-.11l473.86-13.67Z"/>
            <path class="cls-66" d="m476.78,1026.9c-.28,0-.56,0-.85,0l-469.96-13.59c-1.9-.05-3.7-.48-5.34-1.18-2.34,31.66,2.85,63.73,15.56,93.54l160.68,376.61c31.88,74.73,105.74,123.28,187.52,123.28h223.92c81.79,0,155.64-48.55,187.52-123.28l160.68-376.61c12.72-29.8,17.9-61.88,15.56-93.54-1.65.71-3.45,1.13-5.34,1.18l-469.96,13.59Z"/>
            <ellipse class="cls-17" cx="476.36" cy="1012.13" rx="475.73" ry="27.29"/>
            <g>
              <path class="cls-83" d="m476.27,155.59c-52.71,0-95.43-8.81-95.43-19.67v515.14h190.86V135.93c0,10.86-42.73,19.67-95.43,19.67Z"/>
              <ellipse class="cls-41" cx="476.27" cy="135.93" rx="95.43" ry="19.67"/>
            </g>
          </g>
          <g class="cls-102">
            <g>
              <ellipse class="cls-55" cx="477.24" cy="236.98" rx="84.54" ry="25.5"/>
              <ellipse class="cls-55" cx="477.24" cy="234.77" rx="84.38" ry="25.45"/>
              <ellipse class="cls-55" cx="477.24" cy="232.56" rx="84.22" ry="25.4"/>
              <ellipse class="cls-55" cx="477.24" cy="230.35" rx="84.06" ry="25.36"/>
              <ellipse class="cls-55" cx="477.24" cy="228.15" rx="83.91" ry="25.31"/>
              <ellipse class="cls-55" cx="477.24" cy="225.94" rx="83.75" ry="25.26"/>
              <ellipse class="cls-55" cx="477.24" cy="223.73" rx="83.59" ry="25.21"/>
              <ellipse class="cls-55" cx="477.24" cy="221.52" rx="83.43" ry="25.17"/>
              <ellipse class="cls-55" cx="477.24" cy="219.32" rx="83.27" ry="25.12"/>
              <ellipse class="cls-55" cx="477.24" cy="217.11" rx="83.12" ry="25.07"/>
              <ellipse class="cls-55" cx="477.24" cy="214.9" rx="82.96" ry="25.02"/>
              <ellipse class="cls-55" cx="477.24" cy="212.69" rx="82.8" ry="24.98"/>
              <ellipse class="cls-55" cx="477.24" cy="210.49" rx="82.64" ry="24.93"/>
              <ellipse class="cls-55" cx="477.24" cy="208.28" rx="82.49" ry="24.88"/>
              <ellipse class="cls-55" cx="477.24" cy="206.07" rx="82.33" ry="24.83"/>
              <ellipse class="cls-55" cx="477.24" cy="203.86" rx="82.17" ry="24.79"/>
              <ellipse class="cls-55" cx="477.24" cy="201.66" rx="82.01" ry="24.74"/>
              <ellipse class="cls-55" cx="477.24" cy="199.45" rx="81.85" ry="24.69"/>
              <ellipse class="cls-55" cx="477.24" cy="197.24" rx="81.7" ry="24.64"/>
              <ellipse class="cls-55" cx="477.24" cy="195.03" rx="81.54" ry="24.6"/>
              <ellipse class="cls-55" cx="477.24" cy="192.83" rx="81.38" ry="24.55"/>
              <ellipse class="cls-55" cx="477.24" cy="190.62" rx="81.22" ry="24.5"/>
              <ellipse class="cls-55" cx="477.24" cy="188.41" rx="81.06" ry="24.45"/>
              <ellipse class="cls-55" cx="477.24" cy="186.2" rx="80.91" ry="24.4"/>
              <ellipse class="cls-55" cx="477.24" cy="184" rx="80.75" ry="24.36"/>
              <ellipse class="cls-55" cx="477.24" cy="181.79" rx="80.59" ry="24.31"/>
              <ellipse class="cls-55" cx="477.24" cy="179.58" rx="80.43" ry="24.26"/>
              <ellipse class="cls-55" cx="477.24" cy="177.37" rx="80.28" ry="24.21"/>
              <ellipse class="cls-55" cx="477.24" cy="175.17" rx="80.12" ry="24.17"/>
              <ellipse class="cls-55" cx="477.24" cy="172.96" rx="79.96" ry="24.12"/>
              <ellipse class="cls-55" cx="477.24" cy="170.75" rx="79.8" ry="24.07"/>
              <ellipse class="cls-55" cx="477.24" cy="168.54" rx="79.64" ry="24.02"/>
              <ellipse class="cls-55" cx="477.24" cy="166.34" rx="79.49" ry="23.98"/>
              <ellipse class="cls-55" cx="477.24" cy="164.13" rx="79.33" ry="23.93"/>
              <ellipse class="cls-55" cx="477.24" cy="161.92" rx="79.17" ry="23.88"/>
              <ellipse class="cls-55" cx="477.24" cy="159.71" rx="79.01" ry="23.83"/>
              <ellipse class="cls-55" cx="477.24" cy="157.51" rx="78.85" ry="23.79"/>
              <ellipse class="cls-55" cx="477.24" cy="155.3" rx="78.7" ry="23.74"/>
              <ellipse class="cls-55" cx="477.24" cy="153.09" rx="78.54" ry="23.69"/>
              <ellipse class="cls-55" cx="477.24" cy="150.88" rx="78.38" ry="23.64"/>
              <ellipse class="cls-55" cx="477.24" cy="148.68" rx="78.22" ry="23.6"/>
              <ellipse class="cls-55" cx="477.24" cy="146.47" rx="78.07" ry="23.55"/>
              <ellipse class="cls-55" cx="477.24" cy="144.26" rx="77.91" ry="23.5"/>
              <ellipse class="cls-55" cx="477.24" cy="142.06" rx="77.75" ry="23.45"/>
              <ellipse class="cls-55" cx="477.24" cy="139.85" rx="77.59" ry="23.41"/>
              <ellipse class="cls-55" cx="477.24" cy="137.64" rx="77.43" ry="23.36"/>
              <ellipse class="cls-55" cx="477.24" cy="135.43" rx="77.28" ry="23.31"/>
            </g>
            <g class="cls-103">
              <ellipse class="cls-87" cx="477.24" cy="235.88" rx="84.54" ry="25.5"/>
              <ellipse class="cls-64" cx="477.24" cy="233.67" rx="84.38" ry="25.45"/>
              <ellipse class="cls-22" cx="477.24" cy="231.47" rx="84.22" ry="25.4"/>
              <ellipse class="cls-72" cx="477.24" cy="229.26" rx="84.06" ry="25.36"/>
              <ellipse class="cls-35" cx="477.24" cy="227.05" rx="83.91" ry="25.31"/>
              <ellipse class="cls-1" cx="477.24" cy="224.84" rx="83.75" ry="25.26"/>
              <ellipse class="cls-73" cx="477.24" cy="222.64" rx="83.59" ry="25.21"/>
              <ellipse class="cls-91" cx="477.24" cy="220.43" rx="83.43" ry="25.17"/>
              <ellipse class="cls-47" cx="477.24" cy="218.22" rx="83.27" ry="25.12"/>
              <ellipse class="cls-15" cx="477.24" cy="216.01" rx="83.12" ry="25.07"/>
              <ellipse class="cls-27" cx="477.24" cy="213.81" rx="82.96" ry="25.02"/>
              <ellipse class="cls-45" cx="477.24" cy="211.6" rx="82.8" ry="24.98"/>
              <ellipse class="cls-5" cx="477.24" cy="209.39" rx="82.64" ry="24.93"/>
              <ellipse class="cls-11" cx="477.24" cy="207.18" rx="82.49" ry="24.88"/>
              <ellipse class="cls-92" cx="477.24" cy="204.98" rx="82.33" ry="24.83"/>
              <ellipse class="cls-6" cx="477.24" cy="202.77" rx="82.17" ry="24.79"/>
              <ellipse class="cls-99" cx="477.24" cy="200.56" rx="82.01" ry="24.74"/>
              <ellipse class="cls-77" cx="477.24" cy="198.35" rx="81.85" ry="24.69"/>
              <ellipse class="cls-95" cx="477.24" cy="196.15" rx="81.7" ry="24.64"/>
              <ellipse class="cls-2" cx="477.24" cy="193.94" rx="81.54" ry="24.6"/>
              <ellipse class="cls-38" cx="477.24" cy="191.73" rx="81.38" ry="24.55"/>
              <ellipse class="cls-61" cx="477.24" cy="189.52" rx="81.22" ry="24.5"/>
              <ellipse class="cls-46" cx="477.24" cy="187.32" rx="81.06" ry="24.45"/>
              <ellipse class="cls-90" cx="477.24" cy="185.11" rx="80.91" ry="24.4"/>
              <ellipse class="cls-56" cx="477.24" cy="182.9" rx="80.75" ry="24.36"/>
              <ellipse class="cls-67" cx="477.24" cy="180.69" rx="80.59" ry="24.31"/>
              <ellipse class="cls-26" cx="477.24" cy="178.49" rx="80.43" ry="24.26"/>
              <ellipse class="cls-7" cx="477.24" cy="176.28" rx="80.28" ry="24.21"/>
              <ellipse class="cls-65" cx="477.24" cy="174.07" rx="80.12" ry="24.17"/>
              <ellipse class="cls-57" cx="477.24" cy="171.86" rx="79.96" ry="24.12"/>
              <ellipse class="cls-13" cx="477.24" cy="169.66" rx="79.8" ry="24.07"/>
              <ellipse class="cls-3" cx="477.24" cy="167.45" rx="79.64" ry="24.02"/>
              <ellipse class="cls-86" cx="477.24" cy="165.24" rx="79.49" ry="23.98"/>
              <ellipse class="cls-18" cx="477.24" cy="163.03" rx="79.33" ry="23.93"/>
              <ellipse class="cls-100" cx="477.24" cy="160.83" rx="79.17" ry="23.88"/>
              <ellipse class="cls-53" cx="477.24" cy="158.62" rx="79.01" ry="23.83"/>
              <ellipse class="cls-31" cx="477.24" cy="156.41" rx="78.85" ry="23.79"/>
              <ellipse class="cls-42" cx="477.24" cy="154.2" rx="78.7" ry="23.74"/>
              <ellipse class="cls-49" cx="477.24" cy="152" rx="78.54" ry="23.69"/>
              <ellipse class="cls-58" cx="477.24" cy="149.79" rx="78.38" ry="23.64"/>
              <ellipse class="cls-37" cx="477.24" cy="147.58" rx="78.22" ry="23.6"/>
              <ellipse class="cls-28" cx="477.24" cy="145.37" rx="78.07" ry="23.55"/>
              <ellipse class="cls-25" cx="477.24" cy="143.17" rx="77.91" ry="23.5"/>
              <ellipse class="cls-36" cx="477.24" cy="140.96" rx="77.75" ry="23.45"/>
              <ellipse class="cls-71" cx="477.24" cy="138.75" rx="77.59" ry="23.41"/>
              <ellipse class="cls-82" cx="477.24" cy="136.55" rx="77.43" ry="23.36"/>
              <ellipse class="cls-30" cx="477.24" cy="134.34" rx="77.28" ry="23.31"/>
            </g>
          </g>
          <g>
            <g>
              <ellipse class="cls-55" cx="477.24" cy="25.5" rx="84.54" ry="25.5"/>
              <ellipse class="cls-55" cx="477.24" cy="27.71" rx="84.38" ry="25.45"/>
              <ellipse class="cls-55" cx="477.24" cy="29.91" rx="84.22" ry="25.4"/>
              <ellipse class="cls-55" cx="477.24" cy="32.12" rx="84.06" ry="25.36"/>
              <ellipse class="cls-55" cx="477.24" cy="34.33" rx="83.91" ry="25.31"/>
              <ellipse class="cls-55" cx="477.24" cy="36.54" rx="83.75" ry="25.26"/>
              <ellipse class="cls-55" cx="477.24" cy="38.74" rx="83.59" ry="25.21"/>
              <ellipse class="cls-55" cx="477.24" cy="40.95" rx="83.43" ry="25.17"/>
              <ellipse class="cls-55" cx="477.24" cy="43.16" rx="83.27" ry="25.12"/>
              <ellipse class="cls-55" cx="477.24" cy="45.37" rx="83.12" ry="25.07"/>
              <ellipse class="cls-55" cx="477.24" cy="47.57" rx="82.96" ry="25.02"/>
              <ellipse class="cls-55" cx="477.24" cy="49.78" rx="82.8" ry="24.98"/>
              <ellipse class="cls-55" cx="477.24" cy="51.99" rx="82.64" ry="24.93"/>
              <ellipse class="cls-55" cx="477.24" cy="54.2" rx="82.49" ry="24.88"/>
              <ellipse class="cls-55" cx="477.24" cy="56.4" rx="82.33" ry="24.83"/>
              <ellipse class="cls-55" cx="477.24" cy="58.61" rx="82.17" ry="24.79"/>
              <ellipse class="cls-55" cx="477.24" cy="60.82" rx="82.01" ry="24.74"/>
              <ellipse class="cls-55" cx="477.24" cy="63.03" rx="81.85" ry="24.69"/>
              <ellipse class="cls-55" cx="477.24" cy="65.23" rx="81.7" ry="24.64"/>
              <ellipse class="cls-55" cx="477.24" cy="67.44" rx="81.54" ry="24.6"/>
              <ellipse class="cls-55" cx="477.24" cy="69.65" rx="81.38" ry="24.55"/>
              <ellipse class="cls-55" cx="477.24" cy="71.86" rx="81.22" ry="24.5"/>
              <ellipse class="cls-55" cx="477.24" cy="74.06" rx="81.06" ry="24.45"/>
              <ellipse class="cls-55" cx="477.24" cy="76.27" rx="80.91" ry="24.4"/>
              <ellipse class="cls-55" cx="477.24" cy="78.48" rx="80.75" ry="24.36"/>
              <ellipse class="cls-55" cx="477.24" cy="80.69" rx="80.59" ry="24.31"/>
              <ellipse class="cls-55" cx="477.24" cy="82.89" rx="80.43" ry="24.26"/>
              <ellipse class="cls-55" cx="477.24" cy="85.1" rx="80.28" ry="24.21"/>
              <ellipse class="cls-55" cx="477.24" cy="87.31" rx="80.12" ry="24.17"/>
              <ellipse class="cls-55" cx="477.24" cy="89.52" rx="79.96" ry="24.12"/>
              <ellipse class="cls-55" cx="477.24" cy="91.72" rx="79.8" ry="24.07"/>
              <ellipse class="cls-55" cx="477.24" cy="93.93" rx="79.64" ry="24.02"/>
              <ellipse class="cls-55" cx="477.24" cy="96.14" rx="79.49" ry="23.98"/>
              <ellipse class="cls-55" cx="477.24" cy="98.35" rx="79.33" ry="23.93"/>
              <ellipse class="cls-55" cx="477.24" cy="100.55" rx="79.17" ry="23.88"/>
              <ellipse class="cls-55" cx="477.24" cy="102.76" rx="79.01" ry="23.83"/>
              <ellipse class="cls-55" cx="477.24" cy="104.97" rx="78.85" ry="23.79"/>
              <ellipse class="cls-55" cx="477.24" cy="107.18" rx="78.7" ry="23.74"/>
              <ellipse class="cls-55" cx="477.24" cy="109.38" rx="78.54" ry="23.69"/>
              <ellipse class="cls-55" cx="477.24" cy="111.59" rx="78.38" ry="23.64"/>
              <ellipse class="cls-55" cx="477.24" cy="113.8" rx="78.22" ry="23.6"/>
              <ellipse class="cls-55" cx="477.24" cy="116.01" rx="78.07" ry="23.55"/>
              <ellipse class="cls-55" cx="477.24" cy="118.21" rx="77.91" ry="23.5"/>
              <ellipse class="cls-55" cx="477.24" cy="120.42" rx="77.75" ry="23.45"/>
              <ellipse class="cls-55" cx="477.24" cy="122.63" rx="77.59" ry="23.41"/>
              <ellipse class="cls-55" cx="477.24" cy="124.84" rx="77.43" ry="23.36"/>
              <ellipse class="cls-55" cx="477.24" cy="127.04" rx="77.28" ry="23.31"/>
            </g>
            <g class="cls-103">
              <ellipse class="cls-29" cx="477.24" cy="26.59" rx="84.54" ry="25.5"/>
              <ellipse class="cls-88" cx="477.24" cy="28.8" rx="84.38" ry="25.45"/>
              <ellipse class="cls-70" cx="477.24" cy="31.01" rx="84.22" ry="25.4"/>
              <ellipse class="cls-68" cx="477.24" cy="33.22" rx="84.06" ry="25.36"/>
              <ellipse class="cls-60" cx="477.24" cy="35.42" rx="83.91" ry="25.31"/>
              <ellipse class="cls-40" cx="477.24" cy="37.63" rx="83.75" ry="25.26"/>
              <ellipse class="cls-8" cx="477.24" cy="39.84" rx="83.59" ry="25.21"/>
              <ellipse class="cls-76" cx="477.24" cy="42.05" rx="83.43" ry="25.17"/>
              <ellipse class="cls-89" cx="477.24" cy="44.25" rx="83.27" ry="25.12"/>
              <ellipse class="cls-20" cx="477.24" cy="46.46" rx="83.12" ry="25.07"/>
              <ellipse class="cls-98" cx="477.24" cy="48.67" rx="82.96" ry="25.02"/>
              <ellipse class="cls-52" cx="477.24" cy="50.88" rx="82.8" ry="24.98"/>
              <ellipse class="cls-97" cx="477.24" cy="53.08" rx="82.64" ry="24.93"/>
              <ellipse class="cls-14" cx="477.24" cy="55.29" rx="82.49" ry="24.88"/>
              <ellipse class="cls-79" cx="477.24" cy="57.5" rx="82.33" ry="24.83"/>
              <ellipse class="cls-43" cx="477.24" cy="59.71" rx="82.17" ry="24.79"/>
              <ellipse class="cls-81" cx="477.24" cy="61.91" rx="82.01" ry="24.74"/>
              <ellipse class="cls-62" cx="477.24" cy="64.12" rx="81.85" ry="24.69"/>
              <ellipse class="cls-80" cx="477.24" cy="66.33" rx="81.7" ry="24.64"/>
              <ellipse class="cls-94" cx="477.24" cy="68.54" rx="81.54" ry="24.6"/>
              <ellipse class="cls-50" cx="477.24" cy="70.74" rx="81.38" ry="24.55"/>
              <ellipse class="cls-39" cx="477.24" cy="72.95" rx="81.22" ry="24.5"/>
              <ellipse class="cls-21" cx="477.24" cy="75.16" rx="81.06" ry="24.45"/>
              <ellipse class="cls-44" cx="477.24" cy="77.37" rx="80.91" ry="24.4"/>
              <ellipse class="cls-19" cx="477.24" cy="79.57" rx="80.75" ry="24.36"/>
              <ellipse class="cls-74" cx="477.24" cy="81.78" rx="80.59" ry="24.31"/>
              <ellipse class="cls-93" cx="477.24" cy="83.99" rx="80.43" ry="24.26"/>
              <ellipse class="cls-69" cx="477.24" cy="86.2" rx="80.28" ry="24.21"/>
              <ellipse class="cls-54" cx="477.24" cy="88.4" rx="80.12" ry="24.17"/>
              <ellipse class="cls-32" cx="477.24" cy="90.61" rx="79.96" ry="24.12"/>
              <ellipse class="cls-48" cx="477.24" cy="92.82" rx="79.8" ry="24.07"/>
              <ellipse class="cls-34" cx="477.24" cy="95.03" rx="79.64" ry="24.02"/>
              <ellipse class="cls-23" cx="477.24" cy="97.23" rx="79.49" ry="23.98"/>
              <ellipse class="cls-51" cx="477.24" cy="99.44" rx="79.33" ry="23.93"/>
              <ellipse class="cls-85" cx="477.24" cy="101.65" rx="79.17" ry="23.88"/>
              <ellipse class="cls-96" cx="477.24" cy="103.86" rx="79.01" ry="23.83"/>
              <ellipse class="cls-12" cx="477.24" cy="106.06" rx="78.85" ry="23.79"/>
              <ellipse class="cls-59" cx="477.24" cy="108.27" rx="78.7" ry="23.74"/>
              <ellipse class="cls-63" cx="477.24" cy="110.48" rx="78.54" ry="23.69"/>
              <ellipse class="cls-84" cx="477.24" cy="112.69" rx="78.38" ry="23.64"/>
              <ellipse class="cls-16" cx="477.24" cy="114.89" rx="78.22" ry="23.6"/>
              <ellipse class="cls-4" cx="477.24" cy="117.1" rx="78.07" ry="23.55"/>
              <ellipse class="cls-24" cx="477.24" cy="119.31" rx="77.91" ry="23.5"/>
              <ellipse class="cls-9" cx="477.24" cy="121.52" rx="77.75" ry="23.45"/>
              <ellipse class="cls-33" cx="477.24" cy="123.72" rx="77.59" ry="23.41"/>
              <ellipse class="cls-75" cx="477.24" cy="125.93" rx="77.43" ry="23.36"/>
              <ellipse class="cls-10" cx="477.24" cy="128.14" rx="77.28" ry="23.31"/>
            </g>
          </g>
        </g>
        <path class="cls-78" d="m952,1012.16s0,0,0,0h0c0-.16-.03-.31-.08-.47,0,0,0,0,0,0-2.7-12.47-6.58-24.75-11.68-36.67l-162.01-378.88c-32.15-75.18-106.61-124.02-189.08-124.02h-17.54V135.96c0-10.86-42.73-19.67-95.43-19.67s-95.43,8.81-95.43,19.67v336.17h-17.37c-82.47,0-156.93,48.84-189.08,124.02L12.29,975.02c-5.1,11.92-8.98,24.2-11.68,36.67,0,0,0,0,0,0-.05.16-.08.31-.08.47-2.34,31.66,2.85,63.73,15.56,93.54l160.68,376.61c31.88,74.73,105.74,123.28,187.52,123.28h223.92c81.79,0,155.64-48.55,187.52-123.28l160.68-376.61c12.72-29.8,17.9-61.88,15.56-93.54Z"/>
      </g>
    </g>
  </g>
</svg>