<?xml version="1.0" encoding="UTF-8"?>
<svg id="_Слой_1" data-name="Слой 1" xmlns="http://www.w3.org/2000/svg" viewBox="0 0 154.27 92.36">
  <defs>
    <style>
      .cls-1 {
        letter-spacing: -.01em;
      }

      .cls-2 {
        fill: #e0bae0;
      }

      .cls-2, .cls-3, .cls-4, .cls-5, .cls-6, .cls-7, .cls-8 {
        stroke-miterlimit: 10;
      }

      .cls-2, .cls-3, .cls-5, .cls-6, .cls-8 {
        stroke: #000;
      }

      .cls-9 {
        letter-spacing: -.01em;
      }

      .cls-10 {
        stroke-width: 0px;
      }

      .cls-10, .cls-4, .cls-11 {
        fill: #784fbc;
      }

      .cls-3 {
        fill: #ccf4b5;
      }

      .cls-12 {
        letter-spacing: 0em;
      }

      .cls-4 {
        stroke: #2d2d2d;
      }

      .cls-5 {
        fill: #99956a;
      }

      .cls-13 {
        letter-spacing: 0em;
      }

      .cls-6 {
        fill: #9fc49d;
      }

      .cls-7 {
        fill: #fff;
        stroke: #b28fff;
      }

      .cls-14 {
        letter-spacing: 0em;
      }

      .cls-8 {
        fill: #89a088;
      }

      .cls-11 {
        font-family: MyriadPro-Regular, 'Myriad Pro';
        font-size: 5.61px;
      }

      .cls-15 {
        letter-spacing: 0em;
      }

      .cls-16 {
        letter-spacing: .02em;
      }
    </style>
  </defs>
  <rect class="cls-7" x=".5" y=".5" width="153.27" height="91.36"/>
  <polygon class="cls-3" points="59.14 17.1 50.61 17.1 47.75 17.1 38.55 17.1 27.16 17.1 27.16 79.82 47.75 79.82 47.75 40.14 50.61 40.14 50.61 79.82 71.2 79.82 71.2 17.1 59.14 17.1"/>
  <path class="cls-5" d="m26,13.82h46.36c.19,0,.34.15.34.34v3.95c0,1.17-.95,2.11-2.11,2.11H27.77c-1.17,0-2.11-.95-2.11-2.11v-3.95c0-.19.15-.34.34-.34Z"/>
  <path class="cls-8" d="m26,79.28h21.95c.19,0,.34.15.34.34v1.5c0,1.17-.95,2.11-2.11,2.11h-18.41c-1.17,0-2.11-.95-2.11-2.11v-1.5c0-.19.15-.34.34-.34Z"/>
  <path class="cls-8" d="m50.41,79.28h21.95c.19,0,.34.15.34.34v1.5c0,1.17-.95,2.11-2.11,2.11h-18.41c-1.17,0-2.11-.95-2.11-2.11v-1.5c0-.19.15-.34.34-.34Z"/>
  <path class="cls-6" d="m28.25,22.82h2.32c2.48,0,4.5,2.02,4.5,4.5v7.5c0,1.28-1.04,2.32-2.32,2.32h-6.68c-1.28,0-2.32-1.04-2.32-2.32v-7.5c0-2.48,2.02-4.5,4.5-4.5Z"/>
  <path class="cls-6" d="m65.89,22.82h2.32c2.48,0,4.5,2.02,4.5,4.5v7.5c0,1.28-1.04,2.32-2.32,2.32h-6.68c-1.28,0-2.32-1.04-2.32-2.32v-7.5c0-2.48,2.02-4.5,4.5-4.5Z"/>
  <path class="cls-2" d="m43.52,13.04h11.32v7.33c0,.36-.29.65-.65.65h-10.02c-.36,0-.65-.29-.65-.65v-7.33h0Z"/>
  <polygon class="cls-10" points="48.89 14.47 48.89 16.01 47.56 16.01 47.56 14.47 46.89 14.47 46.89 16.01 46.89 16.67 46.89 19.72 47.56 19.72 47.56 16.67 48.89 16.67 48.89 19.72 49.56 19.72 49.56 16.67 49.56 16.01 49.56 14.47 48.89 14.47"/>
  <polygon class="cls-10" points="50.54 19.05 50.54 14.47 49.87 14.47 49.87 19.05 49.87 19.72 50.54 19.72 52.53 19.72 52.53 19.05 50.54 19.05"/>
  <polygon class="cls-4" points="101.71 5.32 101.71 16.63 91.87 16.63 91.87 5.32 86.95 5.32 86.95 16.63 86.95 21.55 86.95 44.04 91.87 44.04 91.87 21.55 101.71 21.55 101.71 44.04 106.62 44.04 106.62 21.55 106.62 16.63 106.62 5.32 101.71 5.32"/>
  <polygon class="cls-4" points="113.86 39.13 113.86 5.32 108.94 5.32 108.94 39.13 108.94 44.04 113.86 44.04 128.61 44.04 128.61 39.13 113.86 39.13"/>
  <text class="cls-11" transform="translate(80.85 50.88)"><tspan class="cls-12" x="0" y="0">Ш</tspan><tspan class="cls-1" x="4.73" y="0">т</tspan><tspan class="cls-15" x="6.95" y="0" xml:space="preserve">аны  ава</tspan><tspan class="cls-14" x="27.02" y="0">н</tspan><tspan class="cls-13" x="30.07" y="0">т</tspan><tspan x="32.33" y="0">юри</tspan><tspan class="cls-16" x="42.58" y="0">с</tspan><tspan class="cls-9" x="45.18" y="0">т</tspan><tspan x="47.41" y="0">а</tspan></text>
</svg>