<svg width="435" height="98" viewBox="0 0 435 98" fill="none" xmlns="http://www.w3.org/2000/svg">
<g clip-path="url(#clip0_3_12)">
<path d="M85.2394 28.7955V15.8544H64.706V15.8346H51.749V82.0465H52.7974H64.706H85.2394V69.0657H64.706V55.4309H85.2394V42.4502H64.706V28.7955H85.2394Z" fill="#937EAA" stroke="white" stroke-miterlimit="10"/>
<path d="M201.635 43.5401L202.723 30.381L178.075 28.3397L165.177 27.2497L164.089 40.4089L163.021 53.2113L161.973 65.657L161.913 66.3705L186.561 68.4315L185.414 82.1654L160.786 80.1242L159.678 93.2635L197.224 96.3947L197.323 95.3642L198.332 83.2554L199.459 69.5017L200.567 56.3426L187.649 55.2724L175.919 54.3013L176.987 41.4791L201.635 43.5401Z" fill="#937EAA" stroke="white" stroke-miterlimit="10"/>
<path d="M116.732 58.5622L126.445 58.9784L128.126 20.1747L118.413 19.7585L115.189 19.6198L98.9482 18.9064L86.0109 18.3515L85.457 31.3124L84.9031 44.1941L84.3493 57.1551L83.1624 84.4841L96.0996 85.039L97.0096 64.2896L112.973 85.8516L125.278 86.3867L109.808 58.2847L113.527 58.4433L116.752 58.582L116.732 58.5622ZM97.8206 44.749L98.3745 31.8673L114.615 32.5808L114.061 45.4625L97.8206 44.749Z" fill="#937EAA" stroke="white" stroke-miterlimit="10"/>
<path d="M158.59 8.56138L149.906 9.03701L139.125 9.63155L126.188 10.345L126.9 23.3852L129.847 76.4975L130.698 76.4578L142.784 75.784L153.565 75.1895L163.1 74.6544L166.503 74.4562L162.843 8.32356L158.61 8.56138H158.59ZM142.072 62.7438L139.857 22.6718L150.638 22.0773L152.853 62.1492L142.072 62.7438Z" fill="#937EAA" stroke="white" stroke-miterlimit="10"/>
<path d="M39.4052 1.96198L41.2053 27.7848L15.7858 29.5685L13.9659 3.7456L1.04843 4.65723L7.1412 91.5988L20.0587 90.6872L16.676 42.5096L42.1153 40.726L45.4782 88.9035L58.3956 87.9919L52.3227 1.05035L39.4052 1.96198Z" fill="#937EAA" stroke="white" stroke-miterlimit="10"/>
<path d="M303.254 16.7462L294.649 17.9749L283.967 19.5009L271.148 21.3242L273.027 34.5824L280.683 88.6063L281.514 88.4874L293.501 86.783L304.184 85.257L313.639 83.9094L317.002 83.4338L307.487 16.1517L303.274 16.7462H303.254ZM291.602 73.505L285.826 32.7592L296.508 31.2332L302.284 71.979L291.602 73.505Z" fill="#937EAA" stroke="white" stroke-miterlimit="10"/>
<path d="M357.515 16.6273L348.831 16.2508L338.05 15.7949L325.113 15.24L324.539 28.637L322.224 83.1959L323.075 83.2356L335.162 83.7508L345.943 84.2067L355.477 84.603L358.88 84.7417L361.768 16.7858L357.515 16.6075V16.6273ZM335.716 70.3737L337.456 29.2117L348.237 29.6675L346.497 70.8295L335.716 70.3737Z" fill="#937EAA" stroke="white" stroke-miterlimit="10"/>
<path d="M411.242 29.291L411.084 29.2514L394.744 24.2176L394.566 24.178L372.055 17.2417L366.99 33.7897L389.502 40.7062L374.626 89.2801L374.804 89.3395L391.124 94.3535L391.302 94.4129L406.178 45.839L428.709 52.7555L433.774 36.2273L411.242 29.291Z" fill="#937EAA" stroke="white" stroke-miterlimit="10"/>
<path d="M250.001 76.8542L241.317 26.7939L224.305 29.7666L232.989 79.8269L235.937 96.8506L252.949 93.8977L276.173 89.8548L273.205 72.8113L250.001 76.8542Z" fill="#937EAA" stroke="white" stroke-miterlimit="10"/>
</g>
<defs>
<clipPath id="clip0_3_12">
<rect width="435" height="98" fill="white"/>
</clipPath>
</defs>
</svg>
