<?xml version="1.0" encoding="UTF-8"?>
<svg xmlns="http://www.w3.org/2000/svg" xmlns:xlink="http://www.w3.org/1999/xlink" viewBox="0 0 1238.04 1332.73">
  <defs>
    <style>
      .cls-1 {
        fill: url(#_Безымянный_градиент_570-3);
      }

      .cls-1, .cls-2, .cls-3, .cls-4, .cls-5, .cls-6, .cls-7, .cls-8, .cls-9, .cls-10, .cls-11 {
        stroke-width: 0px;
      }

      .cls-2 {
        fill: #b0b3b5;
      }

      .cls-12 {
        isolation: isolate;
      }

      .cls-3 {
        fill: #784fbc;
      }

      .cls-4 {
        fill: url(#_Безымянный_градиент_570);
      }

      .cls-5 {
        fill: none;
      }

      .cls-13 {
        mix-blend-mode: multiply;
        opacity: .74;
      }

      .cls-6 {
        fill: #e2b774;
      }

      .cls-7 {
        fill: url(#_Безымянный_градиент_570-2);
      }

      .cls-8 {
        fill: url(#_Безымянный_градиент_570-4);
      }

      .cls-9 {
        fill: #bea1ff;
      }

      .cls-10 {
        fill: #cc89c9;
      }

      .cls-11 {
        fill: #fcfcfc;
      }
    </style>
    <linearGradient id="_Безымянный_градиент_570" data-name="Безымянный градиент 570" x1="223.37" y1="906.69" x2="876.77" y2="906.69" gradientUnits="userSpaceOnUse">
      <stop offset="0" stop-color="#fff"/>
      <stop offset="1" stop-color="#bfd8ff"/>
    </linearGradient>
    <linearGradient id="_Безымянный_градиент_570-2" data-name="Безымянный градиент 570" x1="310.56" y1="899.09" x2="975.54" y2="899.09" xlink:href="#_Безымянный_градиент_570"/>
    <linearGradient id="_Безымянный_градиент_570-3" data-name="Безымянный градиент 570" x1="0" y1="431.17" x2="619.02" y2="431.17" xlink:href="#_Безымянный_градиент_570"/>
    <linearGradient id="_Безымянный_градиент_570-4" data-name="Безымянный градиент 570" x1="619.02" y1="431.17" x2="1238.04" y2="431.17" xlink:href="#_Безымянный_градиент_570"/>
  </defs>
  <g class="cls-12">
    <g id="_Слой_1" data-name="Слой 1">
      <g>
        <line class="cls-5" x1="494.04" y1="1226.84" x2="500.88" y2="392.04"/>
        <line class="cls-5" x1="280.92" y1="1089.89" x2="289.09" y2="518.35"/>
        <line class="cls-5" x1="392.8" y1="1178.4" x2="395.84" y2="433.07"/>
        <g>
          <polygon class="cls-9" points="451.87 1158.08 223.37 1321.05 321.57 1058.17 648.08 632.13 876.77 468.97 778.57 732.04 451.87 1158.08"/>
          <polygon class="cls-9" points="744.19 1154.28 975.54 1321.05 874.49 1054.37 542.1 620.54 310.56 453.77 411.61 720.64 744.19 1154.28"/>
          <polygon class="cls-9" points="440.1 218.62 290.99 321.19 137.14 97.44 129.73 102.57 124.03 30.96 59.26 0 0 40.65 5.7 112.26 70.47 143.22 63.06 148.35 216.91 372.1 61.92 478.65 87.56 516.07 229.26 418.44 518.54 838.98 619.02 769.84 329.93 349.3 465.74 255.85 440.1 218.62"/>
          <polygon class="cls-9" points="797.95 218.62 947.24 321.19 1101.1 97.44 1108.31 102.57 1114.01 30.96 1178.97 0 1238.04 40.65 1232.35 112.26 1167.58 143.22 1174.98 148.35 1021.13 372.1 1176.31 478.65 1150.48 516.07 1008.78 418.44 719.5 838.98 619.02 769.84 908.3 349.3 772.31 255.85 797.95 218.62"/>
        </g>
        <g>
          <g>
            <g class="cls-13">
              <polygon class="cls-4" points="451.87 1169.76 223.37 1332.73 321.57 1069.85 648.08 643.81 876.77 480.65 778.57 743.72 451.87 1169.76"/>
              <polygon class="cls-7" points="744.19 1165.96 975.54 1332.73 874.49 1066.05 542.1 632.22 310.56 465.45 411.61 732.32 744.19 1165.96"/>
              <polygon class="cls-1" points="440.1 230.31 290.99 332.87 137.14 109.12 129.73 114.25 124.03 42.64 59.26 11.68 0 52.33 5.7 123.94 70.47 154.9 63.06 160.03 216.91 383.78 61.92 490.34 87.56 527.75 229.26 430.12 518.54 850.66 619.02 781.52 329.93 360.99 465.74 267.53 440.1 230.31"/>
              <polygon class="cls-8" points="797.95 230.31 947.24 332.87 1101.1 109.12 1108.31 114.25 1114.01 42.64 1178.97 11.68 1238.04 52.33 1232.35 123.94 1167.58 154.9 1174.98 160.03 1021.13 383.78 1176.31 490.34 1150.48 527.75 1008.78 430.12 719.5 850.66 619.02 781.52 908.3 360.99 772.31 267.53 797.95 230.31"/>
            </g>
            <circle class="cls-2" cx="608.39" cy="809.72" r="474.67"/>
            <path class="cls-6" d="m176.08,809.72c0,236.29,189.56,428.13,424.71,432.12l7.6-864.62c-238.76,0-432.31,193.55-432.31,432.31v.19Z"/>
            <path class="cls-10" d="m608.39,377.42h0l-7.6,864.62c2.47,0,5.13.19,7.6.19,238.76,0,432.31-193.55,432.31-432.31s-193.55-432.31-432.31-432.31v-.19Z"/>
          </g>
          <circle class="cls-11" cx="608.39" cy="823.21" r="260.41"/>
          <polygon class="cls-3" points="567.74 672.21 567.74 752.55 497.84 752.55 497.84 672.21 462.89 672.21 462.89 752.55 462.89 787.5 462.89 947.24 497.84 947.24 497.84 787.5 567.74 787.5 567.74 947.24 602.5 947.24 602.5 787.5 602.5 752.55 602.5 672.21 567.74 672.21"/>
          <polygon class="cls-3" points="653.97 912.29 653.97 672.21 619.02 672.21 619.02 912.29 619.02 947.24 653.97 947.24 758.82 947.24 758.82 912.29 653.97 912.29"/>
        </g>
      </g>
    </g>
  </g>
</svg>