<?xml version="1.0" encoding="UTF-8"?>
<svg xmlns="http://www.w3.org/2000/svg" xmlns:xlink="http://www.w3.org/1999/xlink" viewBox="0 0 245.09 96.42">
  <defs>
    <style>
      .cls-1 {
        fill: url(#_Безымянный_градиент_570-3);
      }

      .cls-1, .cls-2, .cls-3, .cls-4, .cls-5, .cls-6, .cls-7, .cls-8, .cls-9, .cls-10, .cls-11, .cls-12 {
        stroke-width: 0px;
      }

      .cls-2 {
        fill: #b0b3b5;
      }

      .cls-13 {
        isolation: isolate;
      }

      .cls-3 {
        fill: #784fbc;
      }

      .cls-4 {
        fill: url(#_Безымянный_градиент_570);
      }

      .cls-5 {
        fill: none;
      }

      .cls-14 {
        mix-blend-mode: multiply;
        opacity: .74;
      }

      .cls-6 {
        fill: #e2b774;
      }

      .cls-7 {
        fill: url(#_Безымянный_градиент_570-2);
      }

      .cls-8 {
        fill: url(#_Безымянный_градиент_570-4);
      }

      .cls-9 {
        fill: url(#_Безымянный_градиент_585);
        mix-blend-mode: darken;
        opacity: .3;
      }

      .cls-10 {
        fill: #bea1ff;
      }

      .cls-11 {
        fill: #cc89c9;
      }

      .cls-12 {
        fill: #fcfcfc;
      }
    </style>
    <linearGradient id="_Безымянный_градиент_585" data-name="Безымянный градиент 585" x1="30.15" y1="98.56" x2="30.15" y2="84.43" gradientUnits="userSpaceOnUse">
      <stop offset="0" stop-color="#fff"/>
      <stop offset=".18" stop-color="#cbcbcb"/>
      <stop offset=".44" stop-color="#787878"/>
      <stop offset="1" stop-color="#3e3e3e"/>
      <stop offset="1" stop-color="#000"/>
    </linearGradient>
    <linearGradient id="_Безымянный_градиент_570" data-name="Безымянный градиент 570" x1="13.31" y1="47.76" x2="44.31" y2="47.76" gradientUnits="userSpaceOnUse">
      <stop offset="0" stop-color="#fff"/>
      <stop offset="1" stop-color="#bfd8ff"/>
    </linearGradient>
    <linearGradient id="_Безымянный_градиент_570-2" data-name="Безымянный градиент 570" x1="17.45" y1="47.4" x2="49" y2="47.4" xlink:href="#_Безымянный_градиент_570"/>
    <linearGradient id="_Безымянный_градиент_570-3" data-name="Безымянный градиент 570" x1="2.72" y1="25.2" x2="32.08" y2="25.2" xlink:href="#_Безымянный_градиент_570"/>
    <linearGradient id="_Безымянный_градиент_570-4" data-name="Безымянный градиент 570" x1="32.08" y1="25.2" x2="61.45" y2="25.2" xlink:href="#_Безымянный_градиент_570"/>
  </defs>
  <g class="cls-13">
    <g id="_Слой_1" data-name="Слой 1">
      <g>
        <path class="cls-9" d="m.78,95.53l2.8.88,3.08-.67.27-1.56.34.11,7.3-4.87,7.08,2.23,1.22-.81-.26-.08.26-.17-6.19-1.95,1.76-1.17c3.52,1.04,7.7,1.66,12.21,1.66,4.2,0,8.12-.54,11.49-1.46l1.46.97-6.18,1.95.26.17-.26.08,1.22.81,7.07-2.23,7.3,4.87.35-.11.27,1.56,3.07.67,2.81-.88-.04-.24h.04s-.27-1.57-.27-1.57l-2.87-.63-.11-.07.26-.08-7.04-4.7,7.09-2.24-.26-.17.26-.08-1.22-.81-6.72,2.12-1.71-1.14c3.86-1.85,6.24-4.36,6.24-7.12,0-2.98-2.77-5.66-7.17-7.54l2.92-3.58-.28.09.28-.35-7.26,2.37c-3.26-.84-7.01-1.32-11.01-1.32s-7.42.44-10.57,1.21l-6.84-2.26.29.35-.29-.1,2.73,3.31c-4.79,1.89-7.83,4.69-7.83,7.82,0,2.62,2.15,5.01,5.66,6.83l-2.14,1.43-6.72-2.12-1.23.81.26.08-.26.17,7.1,2.24-7.04,4.7.26.08-.11.07-2.87.63-.27,1.56h.04s-.04.25-.04.25Z"/>
        <line class="cls-5" x1="26.15" y1="62.95" x2="26.48" y2="23.35"/>
        <line class="cls-5" x1="16.04" y1="56.45" x2="16.43" y2="29.34"/>
        <line class="cls-5" x1="21.35" y1="60.65" x2="21.5" y2="25.29"/>
        <g>
          <g>
            <polygon class="cls-10" points="24.15 59.69 13.31 67.42 17.97 54.95 33.46 34.74 44.31 27 39.65 39.48 24.15 59.69"/>
            <polygon class="cls-10" points="38.02 59.51 49 67.42 44.2 54.77 28.43 34.19 17.45 26.27 22.24 38.93 38.02 59.51"/>
            <polygon class="cls-10" points="23.6 15.12 16.52 19.98 9.22 9.37 8.87 9.61 8.6 6.22 5.53 4.75 2.72 6.68 2.99 10.07 6.06 11.54 5.71 11.78 13.01 22.4 5.65 27.45 6.87 29.23 13.59 24.6 27.32 44.55 32.08 41.27 18.37 21.32 24.81 16.88 23.6 15.12"/>
            <polygon class="cls-10" points="40.57 15.12 47.65 19.98 54.95 9.37 55.3 9.61 55.57 6.22 58.65 4.75 61.45 6.68 61.18 10.07 58.11 11.54 58.46 11.78 51.16 22.4 58.52 27.45 57.3 29.23 50.57 24.6 36.85 44.55 32.08 41.27 45.81 21.32 39.36 16.88 40.57 15.12"/>
          </g>
          <g>
            <g>
              <g class="cls-14">
                <polygon class="cls-4" points="24.15 60.24 13.31 67.97 17.97 55.5 33.46 35.29 44.31 27.55 39.65 40.03 24.15 60.24"/>
                <polygon class="cls-7" points="38.02 60.06 49 67.97 44.2 55.32 28.43 34.74 17.45 26.83 22.24 39.49 38.02 60.06"/>
                <polygon class="cls-1" points="23.6 15.67 16.52 20.54 9.22 9.92 8.87 10.17 8.6 6.77 5.53 5.3 2.72 7.23 2.99 10.63 6.06 12.1 5.71 12.34 13.01 22.95 5.65 28.01 6.87 29.78 13.59 25.15 27.32 45.1 32.08 41.82 18.37 21.87 24.81 17.44 23.6 15.67"/>
                <polygon class="cls-8" points="40.57 15.67 47.65 20.54 54.95 9.92 55.3 10.17 55.57 6.77 58.65 5.3 61.45 7.23 61.18 10.63 58.11 12.1 58.46 12.34 51.16 22.95 58.52 28.01 57.3 29.78 50.57 25.15 36.85 45.1 32.08 41.82 45.81 21.87 39.36 17.44 40.57 15.67"/>
              </g>
              <circle class="cls-2" cx="31.58" cy="43.16" r="22.52"/>
              <path class="cls-6" d="m11.07,43.16c0,11.21,8.99,20.31,20.15,20.5l.36-41.02c-11.33,0-20.51,9.18-20.51,20.51h0Z"/>
              <path class="cls-11" d="m31.58,22.65h0l-.36,41.02c.12,0,.24,0,.36,0,11.33,0,20.51-9.18,20.51-20.51s-9.18-20.51-20.51-20.51h0Z"/>
            </g>
            <circle class="cls-12" cx="31.58" cy="43.8" r="12.35"/>
            <polygon class="cls-3" points="29.65 36.64 29.65 40.45 26.33 40.45 26.33 36.64 24.68 36.64 24.68 40.45 24.68 42.11 24.68 49.68 26.33 49.68 26.33 42.11 29.65 42.11 29.65 49.68 31.3 49.68 31.3 42.11 31.3 40.45 31.3 36.64 29.65 36.64"/>
            <polygon class="cls-3" points="33.74 48.03 33.74 36.64 32.08 36.64 32.08 48.03 32.08 49.68 33.74 49.68 38.72 49.68 38.72 48.03 33.74 48.03"/>
          </g>
        </g>
      </g>
    </g>
  </g>
</svg>