<?xml version="1.0" encoding="UTF-8"?>
<svg xmlns="http://www.w3.org/2000/svg" xmlns:xlink="http://www.w3.org/1999/xlink" viewBox="0 0 245.09 87.44">
  <defs>
    <style>
      .cls-1 {
        fill: #ce82c8;
      }

      .cls-1, .cls-2, .cls-3, .cls-4, .cls-5, .cls-6, .cls-7, .cls-8, .cls-9, .cls-10, .cls-11, .cls-12 {
        stroke-width: 0px;
      }

      .cls-2 {
        fill: url(#_Безымянный_градиент_6-9);
      }

      .cls-13 {
        isolation: isolate;
      }

      .cls-3 {
        fill: url(#_Безымянный_градиент_6-4);
      }

      .cls-4 {
        fill: url(#_Безымянный_градиент_6-2);
      }

      .cls-5 {
        fill: url(#_Безымянный_градиент_6-3);
      }

      .cls-14 {
        mix-blend-mode: multiply;
        opacity: .21;
      }

      .cls-6 {
        fill: #53bef4;
      }

      .cls-7 {
        fill: url(#_Безымянный_градиент_6);
      }

      .cls-8 {
        fill: url(#_Безымянный_градиент_6-5);
      }

      .cls-9 {
        fill: url(#_Безымянный_градиент_20);
      }

      .cls-10 {
        fill: url(#_Безымянный_градиент_6-6);
      }

      .cls-11 {
        fill: url(#_Безымянный_градиент_6-8);
      }

      .cls-12 {
        fill: url(#_Безымянный_градиент_6-7);
      }
    </style>
    <linearGradient id="_Безымянный_градиент_20" data-name="Безымянный градиент 20" x1="122.52" y1="34.64" x2="122.27" y2="91.46" gradientUnits="userSpaceOnUse">
      <stop offset="0" stop-color="#fff"/>
      <stop offset=".02" stop-color="#ecf9fd"/>
      <stop offset=".07" stop-color="#bbeaf9"/>
      <stop offset=".12" stop-color="#8eddf5"/>
      <stop offset=".18" stop-color="#68d1f1"/>
      <stop offset=".24" stop-color="#47c7ef"/>
      <stop offset=".3" stop-color="#2dbfec"/>
      <stop offset=".37" stop-color="#19b9eb"/>
      <stop offset=".45" stop-color="#0ab5e9"/>
      <stop offset=".55" stop-color="#02b2e9"/>
      <stop offset=".71" stop-color="#00b2e9"/>
    </linearGradient>
    <linearGradient id="_Безымянный_градиент_6" data-name="Безымянный градиент 6" x1="23.89" y1="32.01" x2="24.82" y2="104.45" gradientUnits="userSpaceOnUse">
      <stop offset="0" stop-color="#fff"/>
      <stop offset=".52" stop-color="#1d1d1b"/>
      <stop offset=".67" stop-color="#1d1d1b"/>
    </linearGradient>
    <linearGradient id="_Безымянный_градиент_6-2" data-name="Безымянный градиент 6" x1="114.72" y1="30.84" x2="115.65" y2="103.28" xlink:href="#_Безымянный_градиент_6"/>
    <linearGradient id="_Безымянный_градиент_6-3" data-name="Безымянный градиент 6" x1="93.1" y1="31.12" x2="94.03" y2="103.56" xlink:href="#_Безымянный_градиент_6"/>
    <linearGradient id="_Безымянный_градиент_6-4" data-name="Безымянный градиент 6" x1="180.98" y1="29.99" x2="181.9" y2="102.43" xlink:href="#_Безымянный_градиент_6"/>
    <linearGradient id="_Безымянный_градиент_6-5" data-name="Безымянный градиент 6" x1="206.11" y1="29.67" x2="207.04" y2="102.11" xlink:href="#_Безымянный_градиент_6"/>
    <linearGradient id="_Безымянный_градиент_6-6" data-name="Безымянный градиент 6" x1="158.42" y1="30.28" x2="159.34" y2="102.72" xlink:href="#_Безымянный_градиент_6"/>
    <linearGradient id="_Безымянный_градиент_6-7" data-name="Безымянный градиент 6" x1="232.53" y1="29.33" x2="233.46" y2="101.77" xlink:href="#_Безымянный_градиент_6"/>
    <linearGradient id="_Безымянный_градиент_6-8" data-name="Безымянный градиент 6" x1="67.49" y1="31.45" x2="68.41" y2="103.89" xlink:href="#_Безымянный_градиент_6"/>
    <linearGradient id="_Безымянный_градиент_6-9" data-name="Безымянный градиент 6" x1="45.71" y1="31.73" x2="46.64" y2="104.17" xlink:href="#_Безымянный_градиент_6"/>
  </defs>
  <g class="cls-13">
    <g id="_Слой_1" data-name="Слой 1">
      <rect class="cls-6" x="0" y="50.27" width="245.09" height="25.07" rx="7.36" ry="7.36"/>
      <rect class="cls-9" y="8.64" width="245.09" height="41.63" rx="7.36" ry="7.36"/>
      <g>
        <polygon class="cls-1" points="28.34 14.83 19.59 14.83 19.59 0 12.97 0 12.97 57.61 19.59 57.61 19.59 18.14 28.34 18.14 28.34 57.61 34.95 57.61 34.95 0 28.34 0 28.34 14.83"/>
        <polygon class="cls-1" points="106.75 0 106.75 24.55 113.37 24.55 116.25 24.55 116.25 53.95 106.75 53.95 106.75 57.26 116.25 57.26 122.86 57.26 122.86 24.55 122.86 24.2 122.86 21.25 113.37 21.25 113.37 3.31 122.86 3.31 122.86 0 113.37 0 106.75 0"/>
        <path class="cls-1" d="m88.44,0h-6.61v57.61h22.72V0h-16.11Zm9.5,54.3h-9.5V3.31h9.5v51Z"/>
        <path class="cls-1" d="m176.33.43h-6.61v57.61h22.72V.43h-16.11Zm9.5,54.3h-9.5V3.74h9.5v51Z"/>
        <path class="cls-1" d="m201.46.43h-6.61v57.61h22.72V.43h-16.11Zm9.5,54.3h-9.5V3.74h9.5v51Z"/>
        <polygon class="cls-1" points="157.42 0 150.8 0 150.8 57.61 157.42 57.61 166.91 57.61 166.91 54.3 157.42 54.3 157.42 0"/>
        <polygon class="cls-1" points="235.6 .43 228.98 .43 219.49 .43 219.49 3.74 228.98 3.74 228.98 58.04 235.6 58.04 235.6 3.74 245.09 3.74 245.09 .43 235.6 .43"/>
        <path class="cls-1" d="m62.83,0h-6.61v57.61h6.61v-29.75h9.46v29.75h6.61V24.55h-16.07v-6.42h16.07V0h-16.07Zm9.46,14.83h-9.46V3.31h9.46v11.52Z"/>
        <polygon class="cls-1" points="37.73 0 37.73 57.61 44.34 57.61 53.84 57.61 53.84 54.3 44.34 54.3 44.34 18.14 53.2 18.14 53.2 14.83 44.34 14.83 44.34 3.31 53.84 3.31 53.84 0 44.34 0 37.73 0"/>
      </g>
      <g class="cls-14">
        <polygon class="cls-7" points="28.34 23.47 19.59 23.47 19.59 8.64 12.97 8.64 12.97 66.25 19.59 66.25 19.59 26.78 28.34 26.78 28.34 66.25 34.95 66.25 34.95 8.64 28.34 8.64 28.34 23.47"/>
        <polygon class="cls-4" points="106.75 8.64 106.75 33.19 113.37 33.19 116.25 33.19 116.25 62.59 106.75 62.59 106.75 65.9 116.25 65.9 122.86 65.9 122.86 33.19 122.86 32.84 122.86 29.89 113.37 29.89 113.37 11.95 122.86 11.95 122.86 8.64 113.37 8.64 106.75 8.64"/>
        <path class="cls-5" d="m88.44,8.64h-6.61v57.61h22.72V8.64h-16.11Zm9.5,54.3h-9.5V11.95h9.5v51Z"/>
        <path class="cls-3" d="m176.33,9.07h-6.61v57.61h22.72V9.07h-16.11Zm9.5,54.3h-9.5V12.38h9.5v51Z"/>
        <path class="cls-8" d="m201.46,9.07h-6.61v57.61h22.72V9.07h-16.11Zm9.5,54.3h-9.5V12.38h9.5v51Z"/>
        <polygon class="cls-10" points="157.42 8.64 150.8 8.64 150.8 66.25 157.42 66.25 166.91 66.25 166.91 62.94 157.42 62.94 157.42 8.64"/>
        <polygon class="cls-12" points="235.6 9.07 228.98 9.07 219.49 9.07 219.49 12.38 228.98 12.38 228.98 66.68 235.6 66.68 235.6 12.38 245.09 12.38 245.09 9.07 235.6 9.07"/>
        <path class="cls-11" d="m62.83,8.64h-6.61v57.61h6.61v-29.75h9.46v29.75h6.61v-33.06h-16.07v-6.42h16.07V8.64h-16.07Zm9.46,14.83h-9.46v-11.52h9.46v11.52Z"/>
        <polygon class="cls-2" points="37.73 8.64 37.73 66.25 44.34 66.25 53.84 66.25 53.84 62.94 44.34 62.94 44.34 26.78 53.2 26.78 53.2 23.47 44.34 23.47 44.34 11.95 53.84 11.95 53.84 8.64 44.34 8.64 37.73 8.64"/>
      </g>
    </g>
  </g>
</svg>