<?xml version="1.0" encoding="UTF-8"?>
<svg id="_Слой_1" data-name="Слой 1" xmlns="http://www.w3.org/2000/svg" viewBox="0 0 58.6 58.6">
  <defs>
    <style>
      .cls-1 {
        fill: #784fbc;
      }

      .cls-1, .cls-2, .cls-3, .cls-4 {
        stroke-width: 0px;
      }

      .cls-2 {
        fill: #be71d1;
      }

      .cls-3 {
        fill: #cc89c9;
      }

      .cls-4 {
        fill: #937eaa;
      }
    </style>
  </defs>
  <circle class="cls-4" cx="29.3" cy="29.3" r="29.3"/>
  <circle class="cls-3" cx="29.3" cy="29.3" r="23.96"/>
  <g>
    <path class="cls-1" d="m29.3,12.74c-4.09,0-7.63,3.76-9.39,9.26h18.78c-1.76-5.5-5.3-9.26-9.39-9.26Z"/>
    <path class="cls-1" d="m41.5,37.85h-7.68v-2.72c2.84-1.64,4.76-4.78,4.76-8.39,0-.75-.09-1.47-.24-2.16h-18.06c-.15.7-.24,1.42-.24,2.16,0,3.65,1.96,6.83,4.86,8.46v2.66h-7.78c-1.9,0-3.45,1.55-3.45,3.45s1.55,3.45,3.45,3.45h24.39c1.9,0,3.45-1.55,3.45-3.45s-1.55-3.45-3.45-3.45Z"/>
    <path class="cls-1" d="m22.23,22.01v13.94h-2.01c-.07-4.91-.17-9.58-.31-13.94h2.32Z"/>
    <path class="cls-1" d="m36.41,35.95v-12.66h2.28c-.13,3.96-.24,8.2-.3,12.66h-1.98Z"/>
    <path class="cls-1" d="m38.69,22.01h-18.78c-.4.8-.71,1.66-.91,2.57h20.6c-.2-.9-.51-1.76-.91-2.57Z"/>
  </g>
  <g>
    <path class="cls-2" d="m29.3,11.59c-4.09,0-7.63,3.76-9.39,9.26h18.78c-1.76-5.5-5.3-9.26-9.39-9.26Z"/>
    <path class="cls-2" d="m41.5,36.7h-7.68v-2.72c2.84-1.64,4.76-4.78,4.76-8.39,0-.75-.09-1.47-.24-2.16h-18.06c-.15.7-.24,1.42-.24,2.16,0,3.65,1.96,6.83,4.86,8.46v2.66h-7.78c-1.9,0-3.45,1.55-3.45,3.45s1.55,3.45,3.45,3.45h24.39c1.9,0,3.45-1.55,3.45-3.45s-1.55-3.45-3.45-3.45Z"/>
    <path class="cls-2" d="m22.23,20.85v13.94h-2.01c-.07-4.91-.17-9.58-.31-13.94h2.32Z"/>
    <path class="cls-2" d="m36.41,34.79v-12.66h2.28c-.13,3.96-.24,8.2-.3,12.66h-1.98Z"/>
    <path class="cls-2" d="m38.69,20.85h-18.78c-.4.8-.71,1.66-.91,2.57h20.6c-.2-.9-.51-1.76-.91-2.57Z"/>
  </g>
</svg>