<?xml version="1.0" encoding="UTF-8"?>
<svg id="_Слой_1" data-name="Слой 1" xmlns="http://www.w3.org/2000/svg" viewBox="0 0 58.6 58.6">
  <defs>
    <style>
      .cls-1 {
        fill: #9884d1;
      }

      .cls-1, .cls-2, .cls-3, .cls-4, .cls-5, .cls-6, .cls-7, .cls-8 {
        stroke-width: 0px;
      }

      .cls-2 {
        fill: #533999;
      }

      .cls-3 {
        fill: #b3a6e2;
      }

      .cls-4 {
        fill: #432c9b;
      }

      .cls-5 {
        fill: #3e288e;
      }

      .cls-6 {
        fill: #cc89c9;
      }

      .cls-7 {
        fill: #937eaa;
      }

      .cls-8 {
        fill: #6041a5;
      }
    </style>
  </defs>
  <circle class="cls-7" cx="29.3" cy="29.3" r="29.3"/>
  <circle class="cls-6" cx="29.3" cy="29.3" r="23.96"/>
  <g>
    <path class="cls-2" d="m15.2,43.3c-.8-.26-1.2-.4-2.01-.72-1.18-.46-2.15-1.68-2.16-2.63-.04-2.45-.06-3.68-.09-6.13,0-.39.4-.9.91-1.12,1.88-.81,2.82-1.16,4.7-1.68.51-.14.91.25.91.86-.04,3.75-.06,5.63-.09,9.38-.01,1.46-.98,2.42-2.16,2.04Z"/>
    <path class="cls-2" d="m14.53,34.46h0c-.94-.34-1.71-1.31-1.72-2.07-.02-1.08-.02-1.62-.04-2.7,0-.31.32-.72.72-.89.83-.35,1.25-.5,2.07-.74.4-.12.73.2.72.67-.02,1.65-.02,2.48-.04,4.13-.01,1.16-.78,1.92-1.72,1.59Z"/>
  </g>
  <g>
    <path class="cls-2" d="m42.97,43.42c.8-.26,1.2-.4,2.01-.72,1.18-.46,2.15-1.68,2.16-2.63.04-2.45.06-3.68.09-6.13,0-.39-.4-.9-.91-1.12-1.88-.81-2.82-1.16-4.7-1.68-.51-.14-.91.25-.91.86.04,3.75.06,5.63.09,9.38.01,1.46.98,2.42,2.16,2.04Z"/>
    <path class="cls-2" d="m43.64,34.57h0c.94-.34,1.71-1.31,1.72-2.07.02-1.08.02-1.62.04-2.7,0-.31-.32-.72-.72-.89-.83-.35-1.25-.5-2.07-.74-.4-.12-.73.2-.72.67.02,1.65.02,2.48.04,4.13.01,1.16.78,1.92,1.72,1.59Z"/>
  </g>
  <rect class="cls-2" x="15.57" y="14.77" width="26.69" height="30.58" rx="6.03" ry="6.03"/>
  <path class="cls-8" d="m20.7,30.99h5.14c1.79,0,3.24,1.45,3.24,3.24v7.69c0,.98-.79,1.77-1.77,1.77h-8.07c-.98,0-1.77-.79-1.77-1.77v-7.69c0-1.79,1.45-3.24,3.24-3.24Z"/>
  <path class="cls-8" d="m32.32,30.99h5.14c1.79,0,3.24,1.45,3.24,3.24v7.65c0,.98-.79,1.77-1.77,1.77h-8.07c-.98,0-1.77-.79-1.77-1.77v-7.65c0-1.79,1.45-3.24,3.24-3.24Z"/>
  <rect class="cls-2" x="16.3" y="30.99" width="25.58" height="1.38"/>
  <path class="cls-8" d="m28.89,22.78c5.69,0,10.43-2.67,11.62-6.23v3.7c0,4.2-5.2,7.6-11.62,7.6h0c-6.42,0-11.62-3.4-11.62-7.6v-3.7c1.18,3.57,5.93,6.23,11.62,6.23Z"/>
  <g>
    <path class="cls-5" d="m22.08,22.53h.74c.36,0,.66.3.66.66v11.56c0,.42-.34.76-.76.76h-.53c-.42,0-.76-.34-.76-.76v-11.56c0-.36.3-.66.66-.66Z"/>
    <rect class="cls-1" x="20.09" y="24.1" width="4.71" height="3.88" rx="1.34" ry="1.34"/>
    <rect class="cls-2" x="20.25" y="24.24" width="4.38" height="3.61" rx="1.34" ry="1.34"/>
    <rect class="cls-4" x="22.12" y="25.31" width=".61" height=".35" rx=".16" ry=".16"/>
    <rect class="cls-4" x="22.14" y="25.91" width=".61" height=".35" rx=".16" ry=".16"/>
    <rect class="cls-4" x="22.14" y="26.5" width=".61" height=".35" rx=".16" ry=".16"/>
    <path class="cls-3" d="m22.4,24.1h.08c.07,0,.12.05.12.12v1.24h-.32v-1.24c0-.07.05-.12.12-.12Z"/>
  </g>
  <g>
    <path class="cls-5" d="m35.09,22.54h.74c.36,0,.66.3.66.66v11.56c0,.42-.34.76-.76.76h-.53c-.42,0-.76-.34-.76-.76v-11.56c0-.36.3-.66.66-.66Z"/>
    <rect class="cls-1" x="33.1" y="24.11" width="4.71" height="3.88" rx="1.34" ry="1.34"/>
    <rect class="cls-2" x="33.26" y="24.24" width="4.38" height="3.61" rx="1.34" ry="1.34"/>
    <rect class="cls-4" x="35.13" y="25.32" width=".61" height=".35" rx=".16" ry=".16"/>
    <rect class="cls-4" x="35.15" y="25.91" width=".61" height=".35" rx=".16" ry=".16"/>
    <rect class="cls-4" x="35.15" y="26.51" width=".61" height=".35" rx=".16" ry=".16"/>
    <path class="cls-3" d="m35.41,24.11h.08c.07,0,.12.05.12.12v1.24h-.32v-1.24c0-.07.05-.12.12-.12Z"/>
  </g>
  <rect class="cls-2" x="28.74" y="31.42" width=".36" height="13.03"/>
</svg>